<svg viewBox="0 0 21 10" xmlns="http://www.w3.org/2000/svg">
<path d="M6.01172 6.7207C6.01172 7.47461 5.73828 8.0625 5.19141 8.48438C4.64453 8.90625 3.90234 9.11719 2.96484 9.11719C1.94922 9.11719 1.16797 8.98633 0.621094 8.72461V7.76367C0.972656 7.91211 1.35547 8.0293 1.76953 8.11523C2.18359 8.20117 2.59375 8.24414 3 8.24414C3.66406 8.24414 4.16406 8.11914 4.5 7.86914C4.83594 7.61523 5.00391 7.26367 5.00391 6.81445C5.00391 6.51758 4.94336 6.27539 4.82227 6.08789C4.70508 5.89648 4.50586 5.7207 4.22461 5.56055C3.94727 5.40039 3.52344 5.21875 2.95312 5.01562C2.15625 4.73047 1.58594 4.39258 1.24219 4.00195C0.902344 3.61133 0.732422 3.10156 0.732422 2.47266C0.732422 1.8125 0.980469 1.28711 1.47656 0.896484C1.97266 0.505859 2.62891 0.310547 3.44531 0.310547C4.29688 0.310547 5.08008 0.466797 5.79492 0.779297L5.48438 1.64648C4.77734 1.34961 4.08984 1.20117 3.42188 1.20117C2.89453 1.20117 2.48242 1.31445 2.18555 1.54102C1.88867 1.76758 1.74023 2.08203 1.74023 2.48438C1.74023 2.78125 1.79492 3.02539 1.9043 3.2168C2.01367 3.4043 2.19727 3.57812 2.45508 3.73828C2.7168 3.89453 3.11523 4.06836 3.65039 4.25977C4.54883 4.58008 5.16602 4.92383 5.50195 5.29102C5.8418 5.6582 6.01172 6.13477 6.01172 6.7207ZM8.75977 9H7.76367V0.433594H12.5391V1.31836H8.75977V4.45312H12.3105V5.33789H8.75977V9ZM17.7305 4.51172H20.6426V8.67773C20.1895 8.82227 19.7285 8.93164 19.2598 9.00586C18.791 9.08008 18.248 9.11719 17.6309 9.11719C16.334 9.11719 15.3242 8.73242 14.6016 7.96289C13.8789 7.18945 13.5176 6.10742 13.5176 4.7168C13.5176 3.82617 13.6953 3.04688 14.0508 2.37891C14.4102 1.70703 14.9258 1.19531 15.5977 0.84375C16.2695 0.488281 17.0566 0.310547 17.959 0.310547C18.873 0.310547 19.7246 0.478516 20.5137 0.814453L20.127 1.69336C19.3535 1.36523 18.6094 1.20117 17.8945 1.20117C16.8516 1.20117 16.0371 1.51172 15.4512 2.13281C14.8652 2.75391 14.5723 3.61523 14.5723 4.7168C14.5723 5.87305 14.8535 6.75 15.416 7.34766C15.9824 7.94531 16.8125 8.24414 17.9062 8.24414C18.5 8.24414 19.0801 8.17578 19.6465 8.03906V5.40234H17.7305V4.51172Z" fill="white"/>
</svg>
