<?xml version="1.0" encoding="UTF-8"?>
<svg id="Layer_1" data-name="Layer 1" xmlns="http://www.w3.org/2000/svg" viewBox="0 0 390 844">
  <defs>
    <style>
      .cls-1 {
        fill: #fff;
        stroke-width: 0px;
      }
    </style>
  </defs>
  <path class="cls-1" d="m391.45,599.72c-7.09-6.45-9.75-12.35-10.4-21.88-.33-4.79-1.68-7.3-4.21-11.27-2.71-4.26-4.02-8.94-6.21-13.42-7.85-16.01-27.15-16.14-42.49-16.53-9.22-.23-14.86,7.21-24.25,7.28-8.66.06-15.09-4.29-19.97-11.18-5.57-7.87-9.01-17.09-14.01-25.3-5.31-8.71-11.88-12.33-20.84-16.28-17.71-7.8-33.94-16.02-45.76-31.85-5.34-7.15-10.13-14.79-15.96-21.57-6.27-7.28-14.37-8.1-23.51-8.44-9.28-.35-18.92-.9-28.18-.23-10.32.75-20.32,3.76-30.59,4.86-15.57,1.68-36.35-6.28-35.92-24.51.27-11.52,4.1-22.77,4.43-34.29.33-11.78-5.11-17.42-14.21-23.45-4.53-3-8.77-6.27-14.15-7.53-5.09-1.19-10.26-2.36-15.38-3.48-5.2-1.14-11.11-2.42-16.28-.52-4.32,1.59-8.13,4.7-12.34,6.62,0-.48,0-.96,0-1.44,7.49-3.42,12.79-8.89,21.63-8.32,4.23.27,8.34,1.69,12.42,2.77,4.8,1.28,10.09,1.42,14.7,3.18,6.5,2.49,15.5,8.33,20.18,13.53,5.83,6.47,5.48,15.83,4.5,23.94-1.11,9.22-3.52,18.48-3.64,27.8-.11,8.82,5.03,14.72,12.53,18.79,18.83,10.23,38.47-1.09,58.14-1.07,10.02.01,20.81-.43,30.74.88,10.07,1.33,15.79,6.68,21.9,14.38,11.58,14.62,20.02,30.57,37.98,38.39,8.13,3.54,16.22,7.42,24.21,11.25,8.25,3.95,13.36,10.64,17.64,18.49,7.87,14.45,16.15,37.22,37.17,30.87,4.66-1.41,7.94-5.5,12.73-6.35,5.04-.89,11.4-.2,16.52-.02,9.55.34,21.09,3.31,27.9,10.46,3.56,3.74,4.96,8.55,6.97,13.18,1.92,4.42,5.51,8.2,7.08,12.67,1.62,4.58.44,9.65,1.84,14.35,1.37,4.6,4.16,7.75,7.11,11.37v3.84Z"/>
  <path class="cls-1" d="m391.45,546.44c-7.5,3.65-14.93-1.38-14.7-9.48.21-7.61,5.68-14.51,9.54-20.7-1.75-.18-6.16,1.26-8.6,2.7-.04,1.65,1.48.69,2.29,1.38-.46.77-1.27,2.53-2.36,2.65-2.02.23-1.27-1.09-2.5-1.83-2.23-1.35-2.61-.92-5.38-1.46-1.24-.24-4.8-1.06-3.79-3.01.66-1.28,5.94.82,7.63.16.81-14.45-13.8-7.64-22.24-7.73-15.45-.17,5.38-13.64,2.16-19.27-.38-.67-5.66-5.61.38-2.01,4.51,2.69-.28,7.24-2.51,10.39-1.86,2.63-6.2,6.21-1.54,7.9,4.09,1.48,11.11-1.07,15.2-1.76-3.39-8.25,2.7-14.89,1.72-22.76-6.5,1.07-11.37,4.73-18.31,3.47-2.16-.39-13.87-6.06-8-9.5,4.93,8.99,13.51,8.08,22.36,4.77,4.01-1.5,6.11-2.95,5.85,1.78-.27,4.81-2.66,9.46-2.7,14.38-.03,3.49,1.1,5.77,3.99,7.8,1.97,1.38,3.23,1.56,4.5,3.73,1.07,1.84.36,5.37,1.66,6.92,1.45,1.72,1.53,1.31,4.08.57.94-.24,1.84-.57,2.7-1,.82-.2,1.22-.79,1.2-1.76.16-1.09.8-1.49,1.91-1.19.15.04.31.08.46.12,2.1-.85,3.31,1.2,5.02-1.73v5.28c-5.19-.32-11.13,11.79-12.14,16.52-1.96,9.15,3.83,13.17,12.14,12.28v2.4Z"/>
  <path class="cls-1" d="m1.21,626.12c1.38-1.54,2.76-3.07,4.23-4.71-2.75-3.31-1.33-7.75,2.5-9.72.15.11.3.22.46.32-2.81,4.43-3.15,8.37,2.87,4.82,4.63-2.73,7.61-5.33,10.69-9.72.19.12.38.23.57.35-.66,1.2-1.32,2.4-2.22,4.05,3.82-.64,11.09-2.17,10.52,3.67-.43,4.46-5.54,6.94-9.31,7.67-6.43,1.23-6.8,1.2-10.35,7-3.08,5.04-5.89,10.71-9.96,15,0-.64,0-1.28,0-1.92,4.68-4.49,9.92-13.29,12.25-19.38-2.44-1.58-9.97,8.68-12.25,10.26,0-.48,0-.96,0-1.44,3.24-2.84,6.33-5.81,8.9-9.43-4.32-2.35-6.29,3.07-8.9,5.59,0-.8,0-1.6,0-2.4Zm16.16-6.17c2.35.61,14.14-.09,11.14-5.3-.93-1.62-4.71-1.65-6.14-1.13-2.68.99-3.66,4.08-5,6.43Zm-2.94.16c1.88-.26,3.89-3,4.29-5.59-2.03,1.51-3.08,3.43-4.29,5.59Zm-.19-3.33c-1.18.82-2.36,1.63-3.74,2.59,2.44.87,3.04.48,3.74-2.59Z"/>
  <path class="cls-1" d="m1.21,665c3.44-.26,13.57-2.35,12.51-7.44-1.03-4.96-9.34-1.99-12.51-1.2,0-.8,0-1.6,0-2.4,3.82-3.96,5.3-10.66,9.63-14,.35,3.81-5.17,9.78-7.09,13,4.21-.66,12.15-2.45,12.05,4.1-.1,6.75-9.43,9.7-14.59,10.83v-2.88Z"/>
  <path class="cls-1" d="m391.45,348.68c-2-.74-6-1.4-6.3-3.87-.26-2.11,3.42-5.94,4.5-7.53.65.13,1.23.24,1.8.36v2.4c-3.45,1.52-4.03,4.24,0,5.28v3.36Z"/>
  <path class="cls-1" d="m52.03,83.5c2.85,1.06,5.87,1.93,8.59,3.29,2.98,1.5,4.41,3.89,6.96,5.65,4.5,3.09,11.14-1.8,14.76,4.07,4.65,7.54-7.06,6.91-11.02,6.89-3.38-.02-3.54,1.27-6.51,2.88-2.77,1.49-5.87,1.17-8.9,1.17-.07,7.15,17.16,6.01,21.3,6.57.74,4.3-13.47,1.78-15.6,1.2-2.2-.6-5.55-1.55-7.01-3.51-1.19-1.6-.53-3.44-1.55-4.9-2.54-3.67-9.17-3.26-11.71-7.73-2.63-4.62,1.13-8.68,3.61-12.4-3.91-1.32-7.21-4.56-.99-3.43,5.92,1.08,9.71-3.53,14.17-6.9,3.27-2.47,8.08-5.53,10.12-9.28,2.6-4.78-.95-8.01-5.42-8.16-3.94-.13-12.92,1.61-11.18-5.21,1.2-4.7,6.67-6.39,10.64-7.65,5.14-1.62,28.19-11.98,27.72-.35,6.57-8.69,14.41-15.76,21.71-23.37.16,2.38-4.2,5.5-5.7,7.07-2.88,2.99-5.78,5.96-8.59,9.02-4.99,5.42-8.84,11.11-12.23,17.62,4.21,5.23,9.78-4.97,13.91-6.59,3.18-1.25,17.29-3.68,19.27.56,1.3,2.78-2.8,1-4.12.71-3.93-.86-8.12-.86-12.06-.03-2.83.6-7.05,1.85-8.79,4.47-1.58,2.37-.66,4.3-.33,6.96.5-.3.81-.49,1.12-.67.56.92-.07,2.4.61,3.78.61,1.24,2.2,2.36,3.24,3.19,3.06,2.43,6.61,4.07,10.49,2.44.4,4.67-6.92,3.42-9.34,2.23-3.09-1.52-5.31-4.16-7.44-6.77-3.27,2.14-6,7.02-8.41,10.02.38,2.72,2.17,3.35.39,6.06-1.5,2.29-5.52,3.66-7.77,5.03-1.04-1.5-9.78.06-12.01-.51-3.6-.93-6.95-2.78-5.19-6.82,4.03-9.27,16.77-1.13,21.14-6.86.1.15.19.3.29.46-.1.55-.19,1.11-.29,1.66,3.16,1.35,4.73-2.23,6.52-4.4-7.03,0-10.07-1.55-15.61-5.87-4.62,8.41-12.58,11.7-18.79,18.42Zm13.79,11.94c.06-.17.11-.34.17-.51-3.02-4.31-9.27-8.06-14.63-8.31-4.3-.2-9.61,3.46-8.58,8.31.76,3.59,8.54,8.94,12.34,8.21,3.66-.7,6.69-8.56,10.7-7.7Zm24.99-29.98c-.1-.13-.19-.25-.29-.38-14.14,3.85-5.37-11.08-2.31-17.19-6.5,3.61-12.82,8.37-21.36,7.22,5.19,5.47,16.22,20.53,23.96,10.35Zm-23.47-13.16c4.46,1.02,7.6.22,11.72-1.61,2.33-1.03,10.63-3.58,7.94-6.91-1.9-2.35-9.88-.43-12.1.75-2.98,1.59-5.39,5.26-7.56,7.76Zm-2.72,1.94c2.5-2.98,4.73-5.62,6.96-8.28-1.92-.77-15.78,3.92-17.07,5.78-3.57,5.19,5.27,4.61,8.09,4.61q.19-2.32,2.02-2.12Zm14.98,24.77c-4.92-2.26-8.09,4.72-12.72,3.23-6.15-1.97,4.95-5.19,7.02-5.85-2.81-.39-18,1.31-12.8,6.48,2.3,2.28,8.15,2.28,11.03,1.92,4.24-.52,5.32-2.21,7.46-5.78Zm-3.41,22.89c2.54-.4,5.46-.24,4.52-3.23-.63-2-3.94-3.05-5.78-3.23-2.53-.26-5.4.23-4.98,3.45.41,3.09,3.54,2.61,6.25,3.01Zm-9.56.46c-3.7-2.02-6.89-3.46-9.3,1.29,3.17,1.65,7.23,1.11,9.3-1.29Zm17.91-41.97c-.91,2.47,3.79,3.62,5.23,2.43,2.87-2.38-4.82-2.43-5.23-2.43Zm-16.73,39.69c.97-2.86-1.69-3.48-3.28-1.42,1.13.49,2.08.9,3.28,1.42Z"/>
  <path class="cls-1" d="m57.77,176.59c4.74-2.37,14.22-10.72,19.64-9.33,1.11,2.58-3.36,7.14-4.53,9.17-1.14,1.97-1.48,7.63-3.46,8.23-4.27-4.76,7.12-10.79,5.95-14.84-2.68-1.02-9.46,4.46-11.72,5.68-3.81,2.06-7.97,3.54-11.63,5.87-2.48,1.58-5.95,5.69-9.22,5-5.33-1.11-2.24-7.15-.8-10.26-2.8-2.02-4.53-3.65-4.22-7.27.34-4.09,4.38-6.5,5.1-10.21-2.76,1.52-6.53,7.03-9.13,4.13-3.46-3.88,4.1-10.55,4.75-13.87-.17-.95-.45-1.87-.84-2.76-.06-1.52.34-2.91,1.2-4.17,1.06-2.37,2.99-4.73,4.64-6.72,3.23-3.89,7.21-7.58,11.37-10.46.11,2.83-5.57,6.49-7.28,8.13-2.47,2.37-7.57,6.36-7.72,10.3-.21,5.51,3.78,1.57,6.14-.31,3.05-2.41,8.81-7.59,12.99-6.82.38,1.81-13.62,8.64-15.55,11.31,8.69,2.47,16.28-7.37,19.7-14.08-3.95-4.15-.34-8.82,3.25-12.12-.4,2-6.47,8.71-1.51,9.29,3,.35,3.93-6.08,7.55-5.93,3.86,3.61-2.5,7.9-5,9.03-4.89,2.2-7.3,5.77-10.32,10.49,6.31-2.1,12.32-4.97,18.79-6.56.57,3.81-13.48,7.03-16.5,8.26-6.99,2.86-8.85,6.2-13.36,11.75-2.14,2.63-5.29,5.38-6.1,8.78-.57,2.4.03,6.8,3.51,6.77,2.13-.02,4.43-3.79,6.08-5.08,1.06-.83,6.51-2.92,7.02-3.97-3.31-1.81-7.59-2.99-6.37-7.36.92-3.33,4.69-5.65,7.62-6.82,4.38-1.76,10.06-2.27,14.62-.73,1.52.51,6.14,3.28,2.52,3.18-1.12-.03-3.76-1.57-5.05-1.8-2.04-.36-4.36-.38-6.41-.17-3.31.34-9.07,1.61-10.92,4.74-1.8,3.04,1.39,5.54,4.65,5.96,3.9.5,8.14-2.89,11.52-4.48.15.14.3.27.44.41-.27.87-.54,1.73-.83,2.69.47.27.99.57,1.6.92,2.61-2.14,27.04-21.63,25.7-8.99-.53,4.98-7.18,8.38-11.43,8.9-1.27.15-7.09.64-7.81-.69-1.12-2.06,2.62-1.7,3.79-1.72,3.77-.04,12.89.23,13.38-5.55.49-5.78-7.86-1.52-10.22-.08-10.29,6.28-18.26,14.46-25.82,23.68.08.16.15.32.23.49Zm8.34-16.59c-3.47,1.87-5.61,4.14-8.72,5.97-4.15,2.45-8.21,3.3-11.09,7.66,6.53.67,19.06-6.79,19.81-13.63Zm-7.34,11.57c-.11-.1-.22-.2-.32-.31-4.38,2.68-7.77,3.72-12.43,5.25-2.15.7-6.46,3-3.71,6.13,4.11,4.7,13.73-8.65,16.47-11.07Zm-22.5-10.91c2.69-.93,10.9-7.87,12.12-10.08-3.76-.14-7.35-1.16-10.1,1.72-1.68,1.76-4.1,6.15-2.01,8.36Zm31.12-29.78c2.51.1,4.11-.71,3.62-3.36-1.84.47-2.47,1.87-3.62,3.36Z"/>
  <path class="cls-1" d="m320.84,225.39c-.34-2.9,15.16-18.4,6.35-17.21-1.8.24-2.33,1.81-3.77,2.54-1.72.88-3.67,1.16-5.48,1.88-3.54,1.41-8.21,3.31-11.02,5.88,10.97,0,5.61,7.8,4.66,14.67-.16,1.14,1.89,7.17.02,7.51-3.3.59-1.99-5.82-1.61-7.21,1.62-5.92,4.71-14.88-5.36-11.55-7.56,2.5-12.96,8.93-19.77,12.7-2.38-4.78,14.35-17.39,17.82-19.23-2.17,5.95-11.2,10.41-15.35,15.28.11.11.22.22.33.33,5.92-4.48,13.17-8.09,18-13.77,5.07-5.95,8.05-10.96,9.9-18.45-2.89,0-5.77.81-8.66,1.01-2.82.2-6.49-.63-9.17.29-3.81,1.3-9.9,7.42-10.38-1.23-.52-9.53,12.11-21.41,19.83-25.1.5,2.74-2.97,3.69-4.72,4.97-2.65,1.94-5.01,4.29-7.1,6.82-1.47,1.77-10.72,16.78-2.4,15.24,1.45-.27.98-1.04,2.03-1.72.48-.31,1.97-1.25,2.34-1.61,2.42-2.39,4.41-5.12,6.24-8.22,3.91-6.6,7.68-13.3,11.11-20.16-1.94-.29-3.45-.52-5.01-.76,0-3,3.4-1.3,5.15-2.35,1.9-1.15,2.23-3.89,2.92-5.83-3.45.65-7.43,1.33-10.69-.53-2.34-1.33-3.03-1.88-.2-2.23,1.51-.19,3.82,1.31,5.48,1.41,1.82.1,3.44-.25,5.14-.83,4-1.38,7.31-4.2,10.95-6.24.15.14.3.27.45.41-2.13,4.68-8.18,13.55-4.28,18.72.55-.25,1.03-.46,1.6-.72.19,2.26-2.12,3.67-3.63,2.41-1.35-1.13-.89-4.9-.89-6.43-6.34,2.96-7.78,7.04-11.18,13.07-3.48,6.17-6.99,12.29-10.67,18.33,4.54,1.07,11.08.29,15.53-1.06,4.58-1.38,6.69-4.99,9.7-8.59,5.79-6.94,11.5-15.64,20.1-19.37-.31,3.45-3.93,7.14-5.84,10.05-2.46,3.73-4.83,7.73-7.85,11.04-4.63,5.05-12.76,6.07-15.3,12.57.13.11.26.21.39.32.79-1.01,1.58-2.01,2.38-3.02.18.12.36.25.54.37-1.41,2.3-4.16,4.95-2.23,7.57,2.32,3.17,5.55-.19,8.24-1.05,11.2-3.61,4.75,6.68,1.67,11.62l.39.36c2.72-1.63,16.89-10.69,18.72-4.81,1.5,4.79-10.11,13.3-4.13,17.29-.41,1.6-1.59,3.02-3.28,1.6-1.28-1.07.06-3.82.36-4.81.47-1.58,5.84-10.59,4.79-12.22-1.95-3.02-10.73,1.83-12.64,2.88-2.85,1.56-7.6,7-10.49,7.18Zm20.13-52.08c-8.08,4.45-14.12,13.8-19.72,20.91,7.76-2.07,14.45-10.83,19.72-20.91Zm-23.57-7.23c1.06-.49,8.49-5.71,4.23-6.66-2.84-.64-4.02,4.7-4.23,6.66Zm-3.03,42.35c-1.71.9-4.27,4.2-4.67,6.03,2.2-1.06,4.37-2.15,6.54-3.29-.73-1.07-1.3-1.91-1.87-2.74Zm9.8-50.45c.9-.86,1.46-1.49,1.44-2.96-.85,1.03-2.47,1.03-1.44,2.96Z"/>
  <path class="cls-1" d="m240.41,91.99c1.45,5.98-11.08,3.65-13.33,1.65-5.13-4.57-4.35-9.97-2.01-15.67-5.02,2.36-21.88,9.16-17.24-3.05,1.89-4.96,16.7-17.49,14.23-21.65-4.5,3.68-9.29,7.19-14.93,3.59-6.11-3.9-7.39-10.83-3.15-16.5,3.16-4.22,8.65-8.23,12.72-11.58,2.58-2.12,5.73-3.44,8.01-5.94,1.94-2.13,3.07-4.82,5.04-6.94-1.42,3.35-2.84,6.75-5.4,9.41-2.38,2.48-6.71,3.58-8.33,6.68,4.67-.59,9.27-.97,13.08,2.34,1.28,1.11,2.48,2.6,2.9,4.28.33,1.28-.65,3.64.15,4.56,7.66-8.69,14.99-18.35,24.66-24.95.15.15.31.29.46.44-3.72,4.6-9.01,8.21-13.11,12.55-4.03,4.28-7.8,8.79-11.46,13.39-3.31,4.16-7.94,7.32-5.86,12.6,1.36,3.44,3.62,10.84,8.23,7.44.2.82.19,1.29.19,2.14,9.26-7.21,18.38-11.39,29.89-6.14,2.08.95,11.45,6.46,4.81,5.07-5.03-1.05-8.84-4.92-14.35-5.42-11.03-.99-22.51,8.4-28.34,17.15-3.06,4.59-3.03,8.67.84,12.83,3.78,4.06,7.49,3.28,12.29,1.7Zm-20.49-58.06c-6.91,1.55-11.77,3.9-14.44,11.09-2.32,6.24,2.6,9.07,8.45,8.07,5.27-.89,12.8-3.68,15.55-8.73,3.3-6.06-4.66-10.03-9.56-10.43Zm3.62,22.66c-3.55,2.91-22.67,23.37-9.62,23.07,3.73-.09,14.4-3.52,14.76-8.01.59-7.22-9.82-2.66-11.91-5.84.46-3.18,7.83-1.61,10.08-1.49-1.13-2.64-2.16-5.03-3.32-7.74Zm-16.16-17.17c-2.26,1.37-4.27,3.03-3.84,6.16,1.28-2.05,2.56-4.1,3.84-6.16Zm20.69,9.18c-3.35,2.04-3.5,2.24-2.84,3.51,1.01-1.16,1.93-2.27,2.84-3.51Zm4.89,20.35q-2.28.14-2.08,2.44c.74-.87,1.3-1.52,2.08-2.44Zm-18.78-13.36c.03.09.05.17.08.26.5-.14,1-.28,1.51-.42-.04-.12-.08-.23-.12-.35-.49.17-.98.34-1.47.5Z"/>
  <path class="cls-1" d="m78.82,228.43c1.3,3.91,5.36,2.8,7.53,4.73-.43,3.21-6.42.97-8.01-.26-.86-.66-1.46-3-2.34-3.4-1.98-.9-6.01.67-8.06,1.03.02.16.04.32.06.47,2.15-.25,4.31-.5,6.46-.75-.32,6.91-19.67,4-19.44-3.86.11-3.73,4.71-8.01,6.97-10.71,3.63-4.33,7.64-8.44,10.87-13.07-1.76-2.43-6.99-6.87-4.07-9.55,1.95,2.37,3.9,4.74,6.03,7.32,2.44-2.87,6.8-6.66,8.05-10.22.78-2.21-3.3-6.77-.52-8.29,4.03,6.74,3.41,1.75,7.58-1.64.17,2.11-1.75,3.32-2.29,5.39,3.88-.74,6.1-3.86,9.35-5.73.5,3.71-7.25,6.84-8.12,10.98-1.07,5.09.97,6.26,4.87,5.05-.67,3.31-3.63,4.48-5.87,2.3-2.39-2.33-.55-7.35.36-9.94-3.54-.22-11.05,8.77-11.53,11.94-.72,4.78,6.52,5.63,10.01,6.74.28,6.54-11.61-2.09-12.79-2.92-4.98,4.05-9.01,10.07-13.13,15-4.24,5.06-4.51,7.68,1.51,11.07-1.88-2.67.53-5.78,3.87-4.32.27,1.49-1.52.97-1.76,2.08,3.68.86,9.91.51,12.61-2.4,3.43-3.71,5.37-8.34,9.3-11.92,8.01-7.29,13.01-13.58,23.93-16.58,4.24,4.96.16,10.78-3.54,14.62-1.97,2.05-4.73,3.43-6.62,5.48-2.3,2.51-1.59.93-.93,4.11.46,2.21,2.33,3.21.55,5.51-1.41,1.83-5.41,2.18-7.47,1.98-2.38-.24-4.5-2.61-6.52-2.77-2.16-.17-4.98,1.71-6.94,2.53Zm31.61-24.72c-.16-8.36-15.11,2.17-15.99,6.45-.72,3.5,1.66,6.25,4.26,5.85,4.43-.68,10.29-8.48,11.73-12.3Zm-22.59,18.45c1.44-.69,5.04-1.79,5.89-3.33,1-1.81-.96-6.03-1.7-8-2.37,1.85-4.58,3.47-6.21,5.2.71,2.15,1.3,3.93,2.02,6.13Zm-9.22,3.23c.15.2.3.4.45.59,5.17-1.79,7.34-2.51,4.72-7.93-2.51,2.11-4.2,4.47-5.16,7.34Zm19.4-.59c-2.64-4.89-4.07-5.12-8.67-.9,1.88,1.79,6.21,2.28,8.67.9Z"/>
  <path class="cls-1" d="m266.04,169.09c4.05-7.83,11.48-14.73,16.93-21.68,3.04-3.87,6.19-7.66,9.49-11.32,1.6-1.78,5.74-7.85,8.46-8.08.64,2.39-8.24,9.89-9.88,11.72-3.5,3.89-7.31,7.75-9.9,12.32,3.36-1.6,8.26-4.83,10.36-.48,2.03,4.2-1.45,11.2-2,15.42,15.11-5.91,21.74-23.97,30.09-36.14,4.68-6.81,9.95-13.84,15.18-20.38,2.7-3.37,12.38-16.2,13.3-4.09.6,7.8-10.14,14.74-15.77,18.59-3.28,2.24-7.42,3.86-10.44,6.41-3.34,2.81-5.46,7.38-7.82,10.98-5.22,7.96-10.8,15.57-16.88,22.89-2.32,2.79-7.05,6.54-7.46,10.35-.38,3.54,3.48,6.52.23,9.45-.85-2.64-1.65-5.16-2.56-7.99-4.28,3.4-7.98,7.62-11.87,11.46-2.44,2.41-8.68,10.2-12.88,8.9-5.51-1.7-1.03-10.45.96-13.04,3.72-4.86,9.43-8.55,14.65-11.58,5.56-3.24,8.99-3.54,10.5-10.14.69-3.02,3.22-9.59-1.05-10.66-3.81-.96-9.31,4.24-11.45,6.79-2.11,2.5-6.26,10.93-10.2,10.3Zm20.49,2.56c-5.35-.77-29.46,14.94-23.58,21.68,3.44,3.94,10.68-5.07,12.86-7.25,3.24-3.24,12.39-9.32,10.72-14.44Zm37.06-43.69c2.76,1.12,11.39-6.57,13.59-8.33,3.63-2.89,11.23-8.1,8.86-13.62-3.04-7.09-10.02,4.96-12.21,7.75-3.64,4.63-7.04,9.27-10.24,14.2Zm-34.27,44.11c1.58-1.11,2.68-2.53,3.89-4.29-4.01,1.66-4.52,2.22-3.89,4.29Z"/>
  <path class="cls-1" d="m307.23,485c5.54-12.06,19.48-20.97,28.98-29.79-3.57-.71-3.84-.77-6.43,1.77-.62-.97.44-5.1.19-6.51-.49-2.85-2.07-5.71-.25-8.32,1.54,2.42.69,5.54,2.68,7.87,1.08-.67,2.56-2.48,2.45-3.91-.15-1.89-1.09-1.4-1.59-2.52-.22-.49-1.7-.38-1.48-1.43.37-1.78,2.14-.33,2.94-.66,7.65-3.15,6.95-15.46,14.94-18.44,3.2-1.19,6.73.72,7.91,3.85,1.28,3.39-1.03,7.31-2.77,10.06-3.66,5.77-3.8,11.24-9.53,15.67,2.06,4.65,4.61,9.21,6.15,14.07.73,2.32,1.04,4.56,1.58,6.91.33,1.43,2.16,4.25,2.18,5.49.09,5.93-3.84-.77-4.41-3.1-1.13-4.66-1.97-8.92-3.98-13.39-1.41-3.13-2.59-8.82-6.74-8.46-3.72.32-8.63,7.1-11.17,9.4-7.66,6.94-14.08,14.37-21.12,21.8-.18-.12-.36-.24-.55-.36Zm43.29-45.38c3.82-2.43,8.38-9.62,3.3-13.16-6.66-4.64-11.08,6.85-12.87,11.21,7.8-.3,6.11.16,9.58,1.95Zm-1.87,3.69c-1.29.57-6.86,5.89-4.54,6.99,2.9,1.36,6.87-4.55,4.54-6.99Zm-1.43-1.61c-1.26-.95-6.8-2.94-7.77-.33-1.03,2.77,6.97.7,7.77.33Zm-11.41,10.18c2.35.59,2.43.58,3.65-.57-1.48-1.45-1.5-1.45-3.65.57Zm2.5-6.97c-.44,1.83,1.98,1.96,2.1.1-.79-.04-1.46-.07-2.1-.1Zm-3.16,4.36c.1.09.2.18.3.27.28-.26.55-.51.83-.77-.15-.13-.3-.26-.46-.4l-.67.89Z"/>
  <path class="cls-1" d="m371.92,386.2c2.24.87,3.23,2.49,5.04,3.5,2.27,1.26,3.89.89,6.78.65.25,3.77-6.12,2.32-7.86,5-1.72,2.64.82,12.01-2.98,12.93-.26-2.81-.22-5.72.24-8.51.31-1.87,1.79-4.42,1.11-6.2-1.33-3.44-7.2-3.96-10.01-4.42-12.4-2.02,5.61-11.77,5.61-16.93-1.67-.55-5.94,2.8-7.63,3.37-3.17,1.05-6.55,1.41-9.87,1.41.39-2.25,5.15-7.74,7.97-9.31-.97,2.68-3.42,3.92-4.78,6.02,3.14.92,8.75-.55,11.65-3.16-1.54.1-2.89.19-4.29.29-.26-6.28,19.13-1.38,22.38-3.04,3.62-1.84,5.07-8.02,2.48-10.69-1.01-1.04-7.21-2.77-6.25-4.81.81-1.71,6.9,2.06,7.76,2.92,3.15,3.15,1.21,6.7-.88,10.31-4.45,7.65-12.55,12.77-16.48,20.68Zm10.75-15.35l-.2-.66c-6.01-.3-8.81-1.26-12.12,4.12-.91,1.47-8.5,9.97-8.39,10.45.3,1.32,6.03,1.96,6.98,1.61,1.66-.62,1.32-1.29,2.57-2.78,3.64-4.34,7.29-8.56,11.15-12.74Z"/>
  <path class="cls-1" d="m264.36,110.78c4.47-9.23-8.95-.65-11.94-5.45-3.06-4.91,8.59-7.08,8.77-11.37,1.83,3.2,7.94,2.18,10.92,1.94,5.11-.41,8.11-4.22,12.04-7.39,2.9-2.33,7.75-7,11.73-6.95,5.21.07,3.35,4.66,1.25,7.52-2.6,3.53-6.59,5.34-10.38,7.3-1.43.74-4.33,1.48-5.25,2.67-1.19,1.52-.22,1.68-.55,3.63-.6,3.54-2.16,5.54-5.92,6.47-3.5.86-8.34-2.11-9.85,2.23-.27-.2-.55-.41-.82-.61Zm12.24-14.6c3.28,4.66,23.49-7.61,20.82-11.64-3-4.51-18.46,10.13-20.82,11.64Zm-3.19,11.01c2.02-.53,7.18-1.01,5.37-4.43-1.18-2.22-2.94-1.03-4.82-.29-4.5,1.76-6.45,3.83-.55,4.72Zm-9.81-8.34c.36,6.35,7.16,3.91,8.86-.22-3.05-.63-5.88-.49-8.86.22Zm-.69,4.71c-.81-2.36-.72-3.71-3.12-4.07-1.95-.29-4.42,2.11-5.54,3.48,2.87,1.54,5.53,1.47,8.66.59Zm10.61-3.73c.09.17.18.33.27.5.33-.22.65-.44.98-.66-.22-.6-.64-.54-1.25.16Z"/>
  <path class="cls-1" d="m210.4,235.22c.13,7.92-6.18,14.16-9.96,20.57,2.1-.89,5.78-2.23,7.3-3.9,1.79-1.97,1.01-4.27,2.44-6.47.18.03.37.07.55.1.19,1.42.37,2.84.6,4.55,3.87-1.24,22.86-8.02,15.78,1.75-3.68,5.08-14.56,10.5-17.75,2.04-10.4,3.81-17.07,11.57-23.06,20.5-2.07-4.28,10.44-15.57,12.76-18.84,4.8-6.77,8.3-12.58,10.69-20.49.21.06.43.12.64.18Zm1.93,17.28c.73,5.96,14.82,1.55,14.06-2.96-4.51-1.17-9.91,1.22-14.06,2.96Z"/>
  <path class="cls-1" d="m348.25,402.29c3.34,2.44,7.06,4.72,8.07,9.05,1.13,4.82-1.66,8.83-6.26,10.09-4.04,1.11-10.68-.12-12.09-4.74-1.26-4.15,3.29-9.06,5.62-12.12-2.33-1.54-4.97-.63-7.3-1.37-.71-3.82,9.58-1.3,11.61-2.77,4.34-3.17,3.75-8.32.21-11.47-.95-.84-3.92-1.98-3.46-3.69.54-2.01,4.47,1.26,5.17,1.8,6.02,4.62,1.67,10.14-1.58,15.22Zm.81,16.72c3.83-.63,6.42-1.64,5.56-5.94-.59-2.94-3.63-6.83-6.65-7.52-3.15-.72-7.59,3.22-8.03,6.77-.59,4.77,5.42,6.51,9.11,6.69Z"/>
  <path class="cls-1" d="m146.36,259.57c-.7-3.68,6.67-10.27,8.87-13.04,3.39-4.28,6.94-8.5,10.05-12.99,1.16-1.67,6.06-7.88,4.58-10-1.29-1.84-10.99-1.63-13-1.84.21-4.12,8.17-3.58,11.4-3.48,3.78.11,4.8,2.24,7.29,4.54,2.3,2.13,7.99,5.29,5.1,9.1-2.68,3.53-9.16,1.2-11.7-1.12-7.39,9.59-14.35,19.94-22.58,28.83Zm32.62-29.27c-.86-2.74-5.81-7.82-7.92-4.18-2.63,4.54,5.32,5.6,7.92,4.18Z"/>
  <path class="cls-1" d="m284,131.89c2.05.26,3.44.07,4.77,1.66-4.79,3.79-14.25.52-15.53-5.64-1.62-7.85,7.71-14.28,13.7-17.03,4.4-2.02,20.65-7.03,18.83,2.83-1.09,5.94-13.61,10.04-18.04,6.64,3.36-3.25,14.45-.08,16.26-5.6,2.23-6.79-10.63-3.75-13.3-2.97-4.95,1.44-12.24,4.49-14.73,9.42-2.96,5.85,2.42,10.84,8.03,10.84,0-.05.01-.1.02-.15Z"/>
  <path class="cls-1" d="m137.24,198.57c-5.51,10.03-10.93,20.12-16.9,30.05,4.89-1.51,9.27-4.71,14.43-5.4,3.77-.51,12.89,1.46,7.44,6.46-1.47-7.17-12.52-2.47-16.34-.75-2.93,1.32-6.32,2.45-8.91,4.35-1.59,1.17-4.54,5.72-6.88,4.85-.59-3.31,4.64-5.55,6.5-7.36,2.89-2.8,4.69-6.66,6.71-10.1,4.22-7.15,7.9-16.27,13.42-22.46l.54.36Z"/>
  <path class="cls-1" d="m268.58,241.11c.45,2.43-1.93,2.77-2.56,4.16,1.06,2.67,2.48,2.42,1.13,5.19-1.36,2.78-5.2,4.18-8,4.52-7.47.93-8.04-3.42-4.66-8.74-1.57.27-2.77.47-4.21.72.76,1.63-.12,3.71-1.66,1.61-1.71-2.32.76-2.94,3.2-3.71,5.11-1.61,11.48-3.33,16.76-3.76Zm-2.56,8.56c-1.86-2.57-12-5.38-12.08.17-.07,5.17,10.29,1.62,12.08-.17Z"/>
  <path class="cls-1" d="m374.57,477.75c.36-3.93,7.18-5.43,6.63-3.35-.35,1.29-2.02.2-2.62.56-.41.24-4.04,2.79-4.01,2.8Z"/>
  <path class="cls-1" d="m336.29,146.01c1.58,2.04,1.29,3.15-.64,4.96.05-1.6-.46-3.24.64-4.96Z"/>
  <path class="cls-1" d="m108.18,176.94c-.16.08-.34.17-.52.26-.14-.48.03-.72.52-.73v.47Z"/>
  <path class="cls-1" d="m266.72,598.68c-1.28,2.89-3.83,5.47-6.6,6.49.43-.75.74-1.3,1.22-2.15-5.57.64-2.52,4.59.31,6.19,2.19,1.23,4.5,2.2,6.94,2.81,1.64.41,5.7.27,6.9,1.57,3.38,3.64-5.25,1.73-6.82,1.41-4.88-.99-8.54-3.26-12.86-5.51-5.33,7.31-9.87,14.9-15.82,21.8-2.81,3.25-5.73,6.4-8.73,9.48-2.05,2.11-6.54,5.71-6.5,9.07.03,2.66,3.92,5.72,6.63,5.07,2.14-.52,5.83-7.13,7.88-5.11,2.38,2.34-2.35,5.34-3.81,6.19-3.93,2.27-5.78,4.87-8.54,8.51-5.15,6.81-10.6,13.42-16.81,19.3-1.92,1.83-14.9,13.82-14.17,6.28.58-6.03,10.51-13.88,15.13-16.91,3.48-2.28,7.89-3,11.24-5.22,2.83-1.88,6.03-6.88,7.53-9.94-5.21-2.73-7.86-5.07-5.81-10.7-2.15,1.09-8.41,4.67-10.86,2.36-2.43-2.29,1.29-7.45,2.66-9.34,4.77-6.56,15.31-13.16,23.63-13.16.63,2.68-8.9,4.71-10.76,5.58-4.56,2.13-10.02,4.92-12.68,9.4-2.2,3.7-1.19,6.37,3.58,4.99,4.81-1.39,9.45-6.21,12.86-9.58,7.62-7.54,14.62-16.03,20.2-25.19,1.45-2.37,2.17-4.99,3.55-7.34.66-1.11,2.25-2.15,2.59-3.45,1.74-6.62-5.26-5.34-9.19-4.47.37-3.86,5.93-3.47,8.62-3.74-1.72-4.1-3.4-8.01-4.86-12.19-1.21-3.45-3.25-4.71-5.53-7.42-5.69-6.77-1.89-13.38,3.63-18.78,5.25-5.14,11.57-9.13,18.66-11.19,5.45-1.59,17.62-2.91,19.3,4.72,1.25,5.7-3.83,11.04-7.5,14.39-6.55,5.98-11.54,12.59-16.45,19.94-1.47,2.19-5.16,5.91-4.27,8.74,1,3.16,4.13,3.86,6.72,3.34,4.68-.93,9.18-3.07,14.05-3.86,4.78-.78,9.82-1.97,14.66-1.97.26,5.18-26.78,3.24-29.97,9.64-.43-.39-1.35-.37-1.19.35.44-.04.85-.17,1.22-.4Zm-7.23-9.13c1.54-2.17,15.55-20,14.37-21.24-5.54,1.07-13.49.03-11.73-7.52,1.53-6.58,8.88-9.9,11.91-15.53-8.99,1.68-22.96,7.64-26.6,16.95-2.36,6.05,2.3,8.79,5.65,12.77,3.3,3.93,3.89,10.05,6.4,14.58Zm10.81-22.89c6.25-.7,23.98-12.24,15.04-19.27-7.77-6.1-13.08,1.27-17.75,6.87-4.81,5.76-5.17,10.27,2.71,12.4Zm-72.42,123.25c7.65-1.16,17.45-11.75,21.32-18.12-8.63,2.75-19.59,11.8-21.32,18.12Zm37.09-35.85q2.3-.4,2.48-1.84-1.26.27-2.48,1.84Z"/>
  <path class="cls-1" d="m229.36,568.65c-.61,1.18-1.21,2.35-2.06,4,4.93-1.64,9.34-4.53,14.19-6.41-.13,2.86-7.93,5.21-9.86,6.18-1.56.78-5.46,1.88-6.31,3.58-.84,1.68,1.15,3.04,1.58,4.51,1.17,4.01-1.05,7.45-5.25,7.96-1.33.16-2.76-1.13-3.94-.09-2.07,1.82,1.61,5.14,2.59,6.5.26-.99.51-1.95.89-3.44,2.94,4.48,6.87,12.57,13.78,10.68,3.54-.97,5.8-4.94,10.11-3.75,3.06.84,4.76,4.23,2.56,6.91-3.61,4.4-18.51-3.25-16.2,5.98.38,1.53,3.23,2.69,2.53,4.4-.63,1.56-2.27.41-3.13-.2-3.45-2.44-.27-7.65,1.13-10.26-3.76-1.86-7.33-3.77-10.04-7.32.1,4.59-.12,5.38-2.11,7.74,0-3.61.44-5.47-1.5-8.87-1.81-3.15-4.76-5.74-6.25-9.07-1.77-3.96-3.57-13.05-9.25-13.34-4.62-.24-13.82,9.91-18.36,3.58-2.92-4.06,3.24-14.86,5.29-18.41.13.07.27.15.4.22-2.24,6.24-9.34,20.65,3.54,16.25,1.77-.6,8.79-2.51,8.86-4.48.1-3.05-10.11-1.81-11.83-1.81.42-1.15.7-1.9.9-2.44,2.19,0,7.67,1.08,9.35-.16,1.65-1.22,1.6-4,2.8-5.84,2.91-4.44,8.93-6.23,13.96-6.43,3.62-.15,14.35.93,14.11,6.25-.33,7.51-14.39,3.22-10.05-2.41.79,1.81,4.56,5.41,6.9,4.15,3.13-1.69-3.02-3.98-4.12-4.34-5.58-1.83-15.25-1.94-19.29,3.26-5.05,6.5,5.66,7.4,9.74,9.49,2.3,1.18,5.63,4.06,8.43,3.49,2.68-.54,4.23-4.33,5.59-6.36.11.1.22.19.33.28Zm-10.7,7.53c-2.93-2.9-10.6-6-13.06-5.35,1.22,2.79,5.06,7.24,6.94,8.17,2.06-.95,3.99-1.84,6.12-2.82Zm17.87,27.4c3.28,1.36,6.72,1.67,9.94.09-2.41-4.13-6.72-2.94-9.94-.09Zm-16.45-19.07c5.04,3.41,8.18-2.18,3.15-5.06-1.02,1.64-2.05,3.29-3.15,5.06Zm-4.36,4.11c.23-.03.46-.06.69-.09.59-2.22-.75-3.14-3.09-3.62,1,1.54,1.7,2.63,2.4,3.71Z"/>
  <path class="cls-1" d="m169.08,558.09c-.49,5.02,1.15,6.75,7.65,8.25.76,3.46-6.15,1.33-7.26.42-2.33-1.91-1.85-5.98-4.34-7.26-3.04-1.57-7.48,2.56-10.63,2.18-4.68-.56-1.6-2.93-.06-5.8-1.72-.88-3.43-1.7-5.2-2.48-2.66,3.08-5.23,6.08-7.95,9.24,6.57,6.98-3.26,5.25-7.44,6.4-7.29,2-12.03,5.41-19.93,2.39-8.13-3.11-3.66-5.99-.32-11.33,3.07-4.9,1.16-13.75,6.76-17.71-.62,3.88-5.82,9.43-2.85,13.39,2.54-.65,3.67-3.35,6.39-4.44-.93,2.75-3.54,3.61-4.79,5.89,2.46,1.42,4.89,1.18,7.47.54.92-3.01,2.5-1.31,5.13-1.85,3.09-.64,5.65-2.9,8.84-3.36.43,2.49-5.85,4.23-7.53,5,2.03,1.97,4.91,3.76,7.34,3.06.6-.17.75-1.72,1.36-2.23.71-.6,2.24-.93,3.29-1.85,1.7-1.48,4.82-5.64,3.93-8.09-1.14-3.15-6.85-1.67-9.25-1.34,1.74-2.39,6.93-3.75,9.51-1.58,2.27,1.92.47,4.54,2.16,6.49,1.8,2.08,4.61,1.44,6.49.45,3.95-2.08,6.43-5.52,10.92-7.15,4.75-1.72,21.72-4.37,21.04,4.56-.61,8.01-15.34,7.75-20.7,8.21Zm-10.8-4.14c3.98,2.55,28.79,3.49,29.59-3.27.63-5.32-11.25-4.53-14.02-4.14-6.05.86-10.98,3.52-15.57,7.41Zm-21.19,9.52c-2.01-1.73-5.46-3.9-8.18-3.95-2.57-.04-4.87,1.63-7.6,1.34-3.14-.34-3.8-1.76-6.49-.12-1.11.68-4.23,4.07-3.86,5.42.97,3.62,10.89,3.95,13.62,3.65,4.71-.51,9.51-2.55,12.52-6.34Zm22.77-5.83c-2.88-1.65-4.84-1.29-5.14,1.2,1.85.24,3.5-.2,5.14-1.2Zm-19.55,8.87c.16-.2.32-.4.48-.6-.85-.98-1.44-1.04-1.76-.16.43.25.86.51,1.28.76Z"/>
  <path class="cls-1" d="m127.72,744.09c1.57,2.48.08,2.72-1.47,3.13-2.26.6-2.8-2.06-5.55.34,1.68,1.27,7.37,3.27,7.61,5.39.24,2.22-5.94-1.89-6.74-2.29-2.38-1.19-5.66-2.39-7.64.57-2.22,3.3,2.49,4.7,5.25,5.77,2.18.85,8.14,1.49,8.62,4.04.63,3.34-6.62-.21-7.75-.62-8.16-3.01-12.36-6.25-4.28-12.69-2.01-2.72-6-6.37-9.04-7.91-3.21-1.63-7.91.08-10.74-2.72-3.29-3.24.39-2.22,2.67-1.49,3.66,1.18,6.68.41,4.83-4.07-2.91-7.04-13.46-1.58-18.44-.71-3.88.68-8.91,1.02-5.37-3.74,2.49-3.34,6.45-5.22,8.97-8.44-4.11-1.43-8.04,3.03-12.03,3.31-1.23-2.69,11.72-5.64,13.86-5.84.48,4.22-7.35,9.26-10.11,11.63.06.18.13.37.19.55,5.56.91,10.57-1.86,15.98-2.66,3.09-.46,5.97-.27,8,2.29,1.62,2.05,1.47,5.69,3.43,7.44,2.83,2.53,10.66-.04,13.5-1.93,4.9-3.26,7.04-9.5,12.58-12.44,3.76-2,10.22-4.01,8.58,2.58-1.34,5.37-7.28,7.73-11.96,9.34-3.41,1.17-12.65,2.58-7.97,7.93,2.95,3.37,10.94-.54,13.13-3.49-4.42-3.67-.25-5.08,1.55-1.88,2.26,4.03-6.79,7.27-9.64,8.6Zm-4.11-11.38c3.3-.34,20.01-4.5,17.53-10.42-2.42-5.78-15.84,8.5-17.53,10.42Zm-3.75,3.78c-1.84.44-5.6.56-7.15,1.69-2.23,1.63-2.19.86-.52,3.28,2.2,3.19,6.25,6.04,9.17,2.7-2.17-1.91-2.52-4.41-1.5-7.67Z"/>
  <path class="cls-1" d="m201.76,761.11c-1.09,2.7-1.93,4.65-.29,7.34,1.57,2.58,4.35,4.39,7.08,2.61.95.81-.21,1.88,1.27,2.39,1.45.5,5.96-2.42,7.34-3.03,4.37-1.93,11.6-6.59,16.55-4.63,3.73,1.48,4.94,8.52.14,9.34-2.59.44-3.68-1.82-4.84-3.57-1.68-2.53-.23-2.46-3.33-2.23-2.06.15-7.97,2.62-9.5,3.99-1.28,1.15-1.31,2.63-2.49,3.89-3.61,3.86-11.36,6.29-15.91,9.19-5.8,3.7-11.4,7.71-16.88,11.87-3.44,2.61-10.43,10.75-15.07,10.12.78-1.97,1.69-3.54,3.5-4.84,1.32-.95,2.32-.86,3.43-1.51,3.87-2.28,7.36-5.48,10.98-8.16,8.09-6,17.88-10.51,25.51-16.93-3.18,0-7.21,2.18-10.32,3.08-3.31.96-7.24,4.15-10.7,4.16-7.09.03-1.59-10.2-.19-13.67-3.29-1.4-16.63,10.05-16.45,5.43.1-2.49,5.8-8.03,7.36-9.83,2.55-2.95,5.3-5.62,8.42-7.97.29,2.51-5.08,5.95-6.6,7.62-2.51,2.76-4.72,5.69-6.77,8.79,4.27-1.35,8.89-6.93,13.56-6.81,6.31.17-2.45,8.22-.84,12.15,1.65,4.03,8.06-.16,9.03-2.79,1.89-5.13.54-12.36,5.65-16.24.12.08.25.15.37.23Zm-3.34,9.32c-1.49,5.33-.2,6.64,4.06,4.43-1.33-1.45-2.55-2.78-4.06-4.43Zm31.74-1.88c.11,1.45,2.82,5.46,4.38,3.3,1.82-2.51-3.01-3.55-4.38-3.3Z"/>
  <path class="cls-1" d="m279.9,632.17c-2.55.51-6.52,1.55-9.05.53-1.77-.71-2.43-2.49-4.2-3.1-1.81-.63-4.92,1.23-6.55-.36-1.9-1.85.33-4.09,2.05-5.2,4.36-2.8,10.88-1.38,15.75-1.47,5.38-.1,9.31-3.55,14.32-5.06-.65,2.32-2.17,3.4-3.4,5.42-1.16,1.9-1.45,4.08-2.87,5.82-1.64,1.99-3.54,3.01-5.03,5.3-1.19,1.82-2.31,3.69-3.42,5.57,4.4.95,7.98,2.58,3.97,6.91-2.6,2.81-9.05,6.62-12.99,5.18-3.83-1.4-4.4-5.55-9.11-6.02-4.53-.44-10.47,1.99-13.55,5.33-6.66,7.23,6.11,16.38-3.85,23.39-5.38,3.8-23.41,6.1-15.64-4.57.45,2.75-.87,3.27,2.09,4.46,3.25,1.31,10.26-.17,13.13-1.86,6.89-4.05-1.7-12.69.95-19.05,3.04-7.28,13.24-11,20.27-9.27,7.3,1.8,13.89-5.56,17.61-11.43-.16-.17-.33-.35-.49-.52Zm-10.17-3.32c2.28,4.43,13.57,2.13,14.14-2.76-5.47-.86-9.01.92-14.14,2.76Zm11.95,15.27c-1.07-1.83-3.48-2.56-5.46-1.84-1.09.39-5.34,4.45-5.07,5.73.73,3.49,9.24-2.01,10.53-3.89Zm-7.56-19.27c-4.24-.57-8.42-.76-12.48,1.66,2.55,1.54,8.17.78,12.48-1.66Zm-1.03,18.23c-.51.06-7.57,3-5.2,3.89,1.44.54,4.21-2.64,5.2-3.89Zm10.41-19.85c2.6,1.03,3.46.58,5.19-2.56-1.95.42-3.4,1.42-5.19,2.56Z"/>
  <path class="cls-1" d="m339.91,660.94c-4.09,6.58-8.62,12.81-13.13,19.11,1.04.73,11,7.8,9.01,8.14-3.48.6-6.81-6.78-10.68-5.88-2.89.67-8.38,9.37-10.3,11.75-5.35,6.67,3.03,5.24,7.79,4.38.34,4.04-12.42,6.15-12.51.13-.1-5.99,10.97-11.55,13.36-16.81-5.74-2.92-12.42.52-18.26-1.08-.69-3.92,8.02-1.45,9.62-2.9,2.14-1.94,2.56-9.53,1.33-11.89-4.27-8.18-14.97,2.51-19.85,4.79-1.79-3.32,9.04-11.31,11.2-13.39,2.95-2.85,6.46-9.71,10.1-11.32-3,8.7-11.94,12.96-16.96,19.99,4.11-2.4,9.45-7.59,14.62-5.03,6.62,3.28,1.22,10,2.06,14.97.55,3.22,6.11,4.19,8.79,2.7,2.61-1.44,4.48-5.89,6.11-8.23,2.32-3.32,4.57-6.71,7.07-9.9.2.16.41.32.61.48Z"/>
  <path class="cls-1" d="m73.71,639.1c-.58,4.95-7.73,9.5-11.09,12.64-3.85,3.6-7.24,7.02-9.6,11.78,5.44-1,12.65-1.7,17.34-4.4.09.38.18.79.34,1.49,1.33-.36,2.67-.72,4.13-1.12.77,2.39-3.38,4.72-4.38,6.44-1.66,2.86-.74,6-.41,9.22,4.49-.76,8.66-1.78,12.86-3.88-.74,4.83-9.07,3.36-11.8,5.83-2.04,1.85-1.87,3.64-1.86,6.72,0,1.44,2.88,11.03,1.15,10.29-4.25-1.81-2.67-12.05-2.67-15.55-2.73-.16-5.06.36-7.37,1.64-1.52.84-1.77,3.41-3.85,1.11-2.42-2.68,4.51-5.02,6.01-6.92,1.54-1.95,7.12-8.78,3.83-10.72-3.11-1.83-12.12,2.47-15.77,2.81,1.7-5.56,5.02-9.98,9.21-13.97,4.59-4.37,9.07-9.4,13.93-13.39Zm-6.29,31.04c-.23-.07-.46-.15-.68-.22-1.39,1.93-2.75,3.87-3.74,6.13,4.98,2.41,4.86-2.68,4.43-5.91Zm2.53-6.86c-.22.25-.44.5-.66.74.08.16.21.28.37.35.57-.21.67-.58.28-1.09Z"/>
  <path class="cls-1" d="m86.9,586.72c-1.64,2.5-5.14,6.55-4.43,9.87.73,3.43,5.77,4.56,8.66,5.01,1.86.29,8.63-1.36,9.6-.38,2.14,2.13-4.39,3.53-5.41,3.65-6,.69-16.61-1.25-14.62-9.19.74-2.94,5.07-6.74,4.95-9.62-.08-1.86-4.23-4.58,1.42-2.51,3.27-2.06,6.53-9.37,8.16-12.86,2.05-4.38,3.11-9.06,6.19-12.87.15.1.3.19.46.29-1.85,4.54-3.69,9.32-5.89,13.7-1.35,2.69-7.79,9.61-7.21,12.5.58,2.85,8.31,5.86,10.72,6.98,1.47.68,14.11,5.96,9.96,8.56-1.42-.39-2.75-2.06-4.06-2.91-2.18-1.42-4.63-2.37-6.96-3.49-4.03-1.93-7.75-4.38-11.54-6.73Z"/>
  <path class="cls-1" d="m253.6,761.89c4.42,3.37,10.3-2.28,15.08-1.58,4.92.73,5.98,8.05,4.43,11.96-.2,0-.4,0-.6,0-1.07-2.8-.82-7.34-3.71-8.92-2.99-1.63-7.63,1.23-10.56,1.81-11.19,2.22-4.31-6.26-.44-10.55-1.97-1.47-2.21-1.91-.52-3.08.39-.27,2.95.12,3.74-.13,1.52-.48,2.85-1.83,4.13-2.71,2.75-1.89,14.47-11.32,18.1-7.75,3.71,3.65-9.69,8.87-11.48,9.52-6.84,2.47-14.64,4.28-18.18,11.43Zm27.79-18.67c-3.16-.7-11.96,3.39-14.11,6.44,12.11-3.82,12.5-3.99,14.11-6.44Z"/>
  <path class="cls-1" d="m108.78,551.21c-6.45,6.08-16.96,11.98-25.83,9.67-5.57-1.45-6.1.27-10.13,4.35-2.56,2.59-6.86,5.83-7.62,9.68-.83,4.17,3.52,4.25,3.99,6.94.62,3.54-4.91-.12-5.6-1.8-2.93-7.15,8.75-16.69,13.61-20.21-.1-.23-.19-.46-.29-.68-3.51-.9-11.61-.72-13.5-4.22,4.57-1.95,12.45,4.85,16.08,1.47,1.66-1.55,2.34-5.54,4.18-7.52,2.16-2.32,4.78-5.02,7.58-6.47-.23,5.01-16.05,10.48-7.19,15.85,8.02,4.85,17.31-5.31,24.29-7.77.14.24.29.48.43.72Z"/>
  <path class="cls-1" d="m20.64,680.28c-3.87-1.66-7.55-1.13-11.03-1.79.4-3.99,14.19,1.12,17.2-.37-.19,5.15,9.02,1.25,5.85,7.45-2.38,4.64-10.42,7.68-15.13,8.93-3.39.9-11.06,2.44-10.19-3.23.82-5.39,9.26-8.72,13.3-10.99Zm11.34,4c-4.38-1.73-7.32-3.31-11.65-1.23-2.02.97-10.97,4.24-11.08,7.44-.27,7.44,20.71-4.06,22.73-6.21Z"/>
  <path class="cls-1" d="m192.99,681.84c-4.19,7.84-10.48,13.08-16.36,19.53,4.32,2.44,11.81-1.78,16.81-.05,5.62,1.94,3.02,6.02,2.72,10.7-.17,2.59.24,4.59,2.02,6.62.89,1.02,4.73,2.59,4.79,4,.19,4.84-7.85-2.86-8.44-4.65-1.36-4.13,2.65-10.33-.77-13.36-4.06-3.6-12.45.66-17.04.03-5.3-.73.51-5.96,2.81-8.16,5.01-4.78,8.7-9.7,12.96-15.1.17.15.33.3.5.45Z"/>
  <path class="cls-1" d="m46.81,704.28c.57,3.17-7.86,7.87-9.9,10.21,2.39,2.41,13.79-2.41,16.88-3.09,3.07-.68,14.65-4.03,17.02-.7,1.97,2.77-2.52,7.38-.72,10.82.75,1.43,3.64,2.3,3.81,3.8.33,3.01-3.77,1.05-4.84-.05-4.1-4.24,2.12-8.56-.01-12.05-2.21-3.61-13.63.15-16.58.88-2.86.71-15.6,5.62-17.45,2.93-2.52-3.66,9.69-11.22,11.81-12.75Z"/>
  <path class="cls-1" d="m47.62,635.48c.73,3.63.32,7.89,5.01,7.71,3.91-.15,6.14-3.32,6.38-6.82.28-4.05-2.49-8.63.06-12.45,2.76-4.13,8.53-2.54,12.67-2.31-.92-.5-1.38-1.28-1.37-2.34,4.08-.39,14.98,7.51,5.17,5.92-3.65-.59-7.27-1.51-10.99-1.22-4.93.39-4.8,1.08-4.1,5.75.98,6.59-.37,14-7.79,16-6.26,1.69-8.36-5.72-5.7-10.38.22.05.44.09.67.14Z"/>
  <path class="cls-1" d="m176.47,720.94c-6.84,2.9-13.48,5.01-21.01,3.7-2.37-.41-8.19-1.54-9.74-3.73-2.45-3.47,1.43-1.44,3.1-.64,6.33,3.03,13.22,3.14,19.94,1.46,2.84-.71,6.36-1.66,8.68-3.55,3.01-2.46,3.7-4.98,8.04-5.68-.42,4.92-7.85,5.13-6.04,9.87.51,1.34,2.38,3.23,3.51,4.1,2.43,1.86,3.43.45,5.73,1.28-2.31,8.62-11.9-2.35-12.2-6.8Z"/>
  <path class="cls-1" d="m47.1,606.55c-2.06-3.48-2.24-3.1-5.82-4.05-3.44-.92-3.47-2.23-2.52-5.65-2.03-.55-3.95-1.08-5.84-1.6-.17-9.35,35.03-2,15,6.8.11,1.58,1.65,3.1-.83,4.49Zm-1.19-10.45c-1.44.13-9.2.54-5.88,3.97,3.35,3.47,5.33-2.01,5.88-3.97Zm1.24,3.83c1.65-.38,7.81-1.89,3.72-4.44-2.76-1.72-3.96,2.38-3.72,4.44Zm-2.09-6.12c0-.18-.01-.35-.02-.53-2.18-.27-4.35-.29-6.48.53h6.5Z"/>
  <path class="cls-1" d="m283.64,727.84c6.19-1.19,10.96-5.58,16.3-8.68,4.81-2.78,11.88-7.35,17.32-7.82.55,4.39-14.61,8.61-17.91,10.47-5.96,3.36-10.88,8.78-18.1,8.58.79-5.83,4.83-10.42,8.02-15.2,3.03-4.54,6.35-13.02,10.95-16.03-2.38,10.55-13.61,17.97-16.97,28.11.13.19.26.38.39.57Z"/>
  <path class="cls-1" d="m97.4,717.4c1.31,3.47,3.74,5.05,7.1,5.24.8,3.92-6.29-.09-7.04-.74-2.7-2.32-2.34-3-6.11-1.92-.32-2.17,1.06-1.54,1.41-3.11.6-2.64.75-1.2-.32-4.63-1.11-3.54-3.57-7.77-1.17-11.26,1.23,5.02,2.95,9.75,4.94,14.66,7.81-3.73,15.64-7.27,23.6-10.68.69,3.1-19.42,10.59-22.4,12.42Z"/>
  <path class="cls-1" d="m157.85,759.31c-.1,3.94-10.47,6.87-13.49,8.13-2.87,1.2-8.18,4.5-8.96.2-.67-3.74,4.27-8.35,6.17-11.14,2.8-4.09,3.2-9.44,6.2-13.27-.87,4.24-1.95,8.46-4.19,12.21-1.08,1.8-7.83,8.87-6.35,10.86,2.84,3.82,16.5-7.05,20.62-6.99Z"/>
  <path class="cls-1" d="m45.97,577.4c-.16,2.6.23,6.42-1.85,8.42-2.31,2.22-5.2,1.56-4.82-1.7.29-2.43,3.88-3.68,4.61-6.04.89-2.87-.98-6.09,2-8.16,2.82-1.95,14.3,1.99,12.04,4.18-.61.59-7.42-2.77-9.11-2.6-3.92.4-3.1,1.91-3.1,5.88.08,0,.15,0,.23,0Zm-1.92,3.87c-.15-.08-.29-.17-.44-.25-4.47,3.91.14,4.88.44.25Z"/>
  <path class="cls-1" d="m191.64,711.93c-.55-1.32-.6-2.61.41-4.16.55,1.67.44,2.93-.41,4.16Z"/>
  <path class="cls-1" d="m199.5,560.42c-.87.73-1.66.67-2.37-.18,1.1-1.46.83-1.23,1.97-.47.13.22.27.43.4.65Z"/>
  <path class="cls-1" d="m229.02,568.36c.58-1,1.17-2,1.75-3,.17.1.33.19.5.29-.64,1-1.28,1.99-1.92,2.99-.11-.09-.22-.19-.33-.28Z"/>
</svg>