<?xml version="1.0" encoding="UTF-8"?>
<svg id="Layer_1" data-name="Layer 1" xmlns="http://www.w3.org/2000/svg" viewBox="0 0 390 844">
  <defs>
    <style>
      .cls-1 {
        fill: #fff;
        stroke-width: 0px;
      }
    </style>
  </defs>
  <g>
    <polygon class="cls-1" points="195.18 763.31 182.48 751.2 179.11 754.71 195.18 770 211.19 754.71 207.87 751.2 195.18 763.31"/>
    <g>
      <path class="cls-1" d="m353.23,659.41c-1.07-8.25-4.39-14.5-9.96-18.75-4.3-3.22-9.18-4.83-14.65-4.83-9.62,0-18.65,5.27-24.07,16.85-2.74,5.81-4.1,12.84-4.1,21.09,0,8.84,1.51,16.36,4.49,22.66,4.83,10.11,12.79,14.8,22.36,14.8,6.45,0,11.77-2.3,15.67-5.96,1.27-1.17,2.69-2.88,4.2-5.13l1.9,9.28h5.08v-38.43h-25.78v8.11h18.41c-.15,10.74-2.88,16.89-8.5,20.75-2.83,1.9-6.1,2.88-9.86,2.88-13.62,0-20.02-12.89-20.02-28.32,0-16.26,6.74-30.08,20.26-30.08,6.4,0,11.38,2.98,14.31,7.91,1.07,1.81,1.86,4.2,2.39,7.18h7.86Zm-90.99,50v-32.62h28.95v-8.45h-28.95v-22.32h32.96v-8.4h-40.82v71.78h7.86Zm-19.56-50.68c-.24-10.21-3.71-16.75-10.5-20.26-3.37-1.76-7.18-2.64-11.42-2.64-13.04,0-21.14,8.25-21.14,21.39,0,9.23,4.25,14.89,15.04,18.21l10.5,3.17c9.03,2.78,11.28,6.01,11.28,11.92,0,7.28-5.17,12.21-15.18,12.21-7.37,0-12.45-3.52-14.79-8.94-.83-2-1.32-4.54-1.42-7.67h-7.37c-.05,4.54.59,8.4,1.81,11.57,3.37,8.64,10.69,13.53,21.49,13.53,9.91,0,17.38-3.81,20.85-10.25,1.71-3.17,2.59-6.93,2.59-11.28,0-9.72-3.37-15.92-15.67-19.58l-11.72-3.51c-7.81-2.29-10.01-5.32-10.01-10.4,0-6.84,4.25-11.86,13.62-11.86,8.79,0,13.96,4.83,14.7,14.4h7.37Zm-102.74,50.68v-28.71c0-11.96,5.32-17.33,11.72-17.33,3.86,0,6.64,1.95,7.76,5.32.54,1.66.78,4.25.78,7.72v33.01h7.28v-33.54c0-10.5-1.95-15.18-6.49-18.16-2.29-1.46-4.88-2.2-7.76-2.2-6.49,0-9.37,2.25-13.28,8.64v-26.51h-7.28v71.78h7.28Zm-33.52-52.29v7.18h5.81v34.57c0,8.54,2.98,11.38,8.89,11.38,2,0,3.76-.24,5.22-.78v-6.98c-1.03.15-1.9.2-2.69.2-2.98,0-4.15-1.27-4.15-4.25v-34.13h6.84v-7.18h-6.84v-14.6h-7.28v14.6h-5.81Zm-12.72,52.29h7.28v-52.29h-7.28v52.29Zm7.27-71.78h-7.28v10.16h7.28v-10.16Zm-57.45,71.78h7.47l8.45-40.53,8.74,40.53h7.52l12.4-52.29h-7.18l-8.74,41.07-8.45-41.07h-8.06l-8.4,41.07-8.25-41.07h-7.86l12.35,52.29Z"/>
      <path class="cls-1" d="m333.65,569.44c0-7.32,1.32-12.74,3.91-16.21,1.9-2.59,4.39-3.86,7.52-3.86s5.76,1.32,7.76,3.96c2.59,3.47,3.91,8.84,3.91,16.11s-1.32,12.4-3.91,15.82c-2,2.59-4.59,3.91-7.76,3.91s-5.66-1.27-7.57-3.86c-2.59-3.42-3.86-8.69-3.86-15.87m.15,46.58v-26.86c2.15,4.83,6.44,7.86,12.11,7.86,6.69,0,12.7-3.81,15.87-12.06,1.56-4.15,2.34-9.33,2.34-15.58,0-13.62-3.42-21.14-8.89-25-2.78-1.9-5.62-2.88-8.5-2.88-2.68,0-5.18.73-7.47,2.25-1.76,1.17-3.56,3.12-5.47,5.81v-6.45h-7.28v72.9h7.28Zm-21.61-46.78c0,6.93-1.42,12.21-4.2,15.77-2.15,2.78-4.93,4.15-8.35,4.15s-6.2-1.37-8.35-4.15c-2.78-3.57-4.15-8.79-4.15-15.77s1.37-12.16,4.15-15.72c2.15-2.78,4.93-4.15,8.35-4.15s6.2,1.37,8.35,4.15c2.78,3.56,4.2,8.79,4.2,15.72m7.37,0c0-9.33-2.1-16.5-6.25-21.48-3.47-4.15-8.01-6.25-13.67-6.25s-10.2,2.1-13.67,6.25c-4.15,4.98-6.25,12.16-6.25,21.48,0,3.91.44,7.67,1.27,11.23,1.22,5.13,3.86,9.38,6.2,11.67,3.12,2.98,7.23,4.88,12.45,4.88,12.7,0,19.92-11.04,19.92-27.78m-74.63,26.17v-28.71c0-11.96,5.32-17.33,11.72-17.33,3.86,0,6.64,1.95,7.76,5.32.54,1.66.78,4.25.78,7.71v33.01h7.28v-33.54c0-10.5-1.95-15.18-6.49-18.16-2.29-1.46-4.88-2.2-7.76-2.2-6.49,0-9.38,2.25-13.28,8.64v-26.51h-7.28v71.78h7.28Zm-49.83-16.5c.54,12.16,6.83,18.12,17.82,18.12,12.06,0,17.43-8.4,17.43-17.38,0-7.03-2.88-10.94-11.28-13.43l-8.3-2.44c-5.52-1.61-7.42-4-7.42-7.47,0-4.49,3.12-7.57,8.94-7.57s9.28,2.93,9.86,9.18h6.88c-.24-10.21-6.69-16.41-16.46-16.41s-16.11,6.1-16.11,16.11c0,7.37,3.17,11.57,12.4,14.31l6.44,1.9c6.4,1.9,8.16,4.25,8.16,7.57,0,4.83-3.66,8.4-10.25,8.4-6.98,0-10.69-3.47-11.23-10.89h-6.88Zm-30.84,16.5v-19.68l6.05-6.69,13.57,26.37h9.03l-17.38-32.76,16.41-19.53h-9.18l-18.51,22.22v-41.7h-6.93v71.78h6.93Zm-26.59,0v-30.03c0-3.17.34-5.57.98-7.18,1.9-4.69,6.06-7.37,9.82-7.37.59,0,1.51.1,2.83.24v-9.28c-.98-.2-1.76-.29-2.39-.29-4.15,0-8.69,3.22-11.23,10.25v-8.64h-7.28v52.29h7.28Zm-22-26.17c0,6.93-1.42,12.21-4.2,15.77-2.15,2.78-4.93,4.15-8.35,4.15s-6.2-1.37-8.35-4.15c-2.78-3.57-4.15-8.79-4.15-15.77s1.37-12.16,4.15-15.72c2.15-2.78,4.93-4.15,8.35-4.15s6.2,1.37,8.35,4.15c2.78,3.56,4.2,8.79,4.2,15.72m7.37,0c0-9.33-2.1-16.5-6.25-21.48-3.47-4.15-8.01-6.25-13.67-6.25s-10.21,2.1-13.67,6.25c-4.15,4.98-6.25,12.16-6.25,21.48,0,3.91.44,7.67,1.27,11.23,1.22,5.13,3.86,9.38,6.2,11.67,3.12,2.98,7.23,4.88,12.45,4.88,12.69,0,19.92-11.04,19.92-27.78m-86.31,26.17h7.47l8.45-40.53,8.74,40.53h7.52l12.4-52.29h-7.18l-8.74,41.07-8.45-41.07h-8.06l-8.4,41.07-8.25-41.07h-7.86l12.35,52.29Z"/>
      <path class="cls-1" d="m310.71,445.82c0,17.53-7.08,28.91-20.7,28.91-7.67,0-13.57-3.57-17.24-10.94-2.34-4.79-3.52-10.79-3.52-18.02,0-9.86,2.2-17.48,6.64-22.8,3.66-4.44,8.35-6.64,14.11-6.64s10.45,2.2,14.11,6.64c4.4,5.32,6.59,12.94,6.59,22.85m8.01-.73c0-14.6-4.98-27.1-13.87-32.91-4.44-2.88-9.42-4.35-14.84-4.35-10.35,0-19.24,4.93-24.66,16.41-2.69,5.76-4.05,12.94-4.05,21.48s1.51,16.21,4.54,22.31c4.93,10.16,13.43,15.19,23.73,15.19,6.59,0,11.96-1.86,16.7-5.76,2.39-1.9,4.59-4.59,6.59-8.01,4-6.79,5.86-15.82,5.86-24.36m-67.11-35.45h-7.86v71.78h7.86v-71.78Zm-59.6,8.4h13.92c6.59,0,10.5,1.95,13.62,6.15,3.08,4.2,5.13,11.23,5.13,21,0,5.66-.73,10.84-2.25,15.53-2,6.25-5.08,9.42-9.33,11.03-2.1.83-4.49,1.22-7.18,1.22h-13.92v-54.93Zm14.89,63.38c6.84,0,11.62-1.95,15.18-5.27,1.81-1.66,3.47-3.86,4.98-6.54,3.08-5.42,5.57-14.26,5.57-25.05,0-6.3-.68-11.57-2.1-15.92-2.73-8.59-7.76-14.65-13.43-17.14-2.83-1.22-6.1-1.85-9.86-1.85h-23.1v71.78h22.75Zm-64.38-29.49l9.23-31.79,9.28,31.79h-18.51Zm35.5,29.49l-21.34-71.78h-9.03l-22.12,71.78h8.45l6.3-21.68h22.95l6.35,21.68h8.45Zm-94.51-63.38h19.29c3.47,0,5.96.64,7.57,1.95,2.54,2.05,3.81,5.37,3.81,10.01,0,3.71-.64,6.59-1.95,8.59-.93,1.46-2.34,2.54-4.25,3.22-1.32.49-3.61.73-6.84.73h-17.63v-24.51Zm0,63.38v-30.81h18.16c6.4,0,8.94,1.61,10.3,4.69.68,1.51,1.07,3.86,1.22,7.03l.44,10.99c.05,2.1.19,3.76.34,4.98.15.93.34,1.95.68,3.12h9.77v-1.61c-1.61-1.12-2.44-2.59-2.78-4.93-.15-.83-.24-2.69-.34-5.61l-.29-9.62c-.19-7.86-2.44-11.43-7.13-13.53,5.22-3.12,8.3-8.2,8.3-17.19,0-8.4-3.52-14.8-8.94-17.38-2.73-1.27-6.3-1.9-10.74-1.9h-26.85v71.78h7.86Z"/>
      <path class="cls-1" d="m352.2,316.92c-.78-6.69-2.74-11.47-6.59-15.77-3.91-4.25-9.77-7.32-17.43-7.32-9.81,0-18.31,4.79-23.58,16.45-2.64,5.81-3.96,13.14-3.96,21.92,0,9.23,1.81,18.36,6.4,25.59,4.59,7.28,11.38,11.43,20.31,11.43,5.62,0,10.01-1.56,14.11-4.74,4.05-3.12,7.67-8.45,9.62-14.65.68-2.25,1.22-4.93,1.56-8.1h-7.67c-1.71,12.35-8.93,18.99-17.28,18.99-5.03,0-9.23-2.15-12.65-6.45-4.3-5.37-6.45-12.89-6.45-22.56,0-7.13,1.17-13.14,3.52-18.07,3.66-7.81,9.57-11.33,16.26-11.33,5.86,0,10.6,2.88,13.57,7.81,1.02,1.66,1.85,3.91,2.54,6.79h7.71Zm-61.21-21.29h-7.86v71.78h7.86v-71.78Zm-69.17,71.78v-60.99l16.75,60.99h7.86l16.75-60.99v60.99h7.37v-71.78h-11.33l-16.75,60.69-16.7-60.69h-11.33v71.78h7.37Zm-18.14-50.68c-.24-10.21-3.71-16.75-10.5-20.26-3.37-1.76-7.18-2.64-11.43-2.64-13.04,0-21.14,8.25-21.14,21.39,0,9.23,4.25,14.89,15.04,18.21l10.5,3.17c9.03,2.78,11.28,6.01,11.28,11.91,0,7.27-5.18,12.21-15.19,12.21-7.37,0-12.45-3.52-14.79-8.94-.83-2-1.32-4.54-1.42-7.67h-7.37c-.05,4.54.59,8.4,1.81,11.57,3.37,8.64,10.69,13.52,21.49,13.52,9.91,0,17.38-3.81,20.85-10.25,1.71-3.17,2.59-6.93,2.59-11.28,0-9.72-3.37-15.92-15.67-19.58l-11.72-3.52c-7.81-2.3-10.01-5.32-10.01-10.4,0-6.84,4.25-11.87,13.62-11.87,8.79,0,13.96,4.83,14.7,14.4h7.37Zm-59.21,15.09c0,17.53-7.08,28.91-20.7,28.91-7.67,0-13.57-3.57-17.24-10.94-2.34-4.79-3.52-10.79-3.52-18.02,0-9.86,2.2-17.48,6.64-22.8,3.66-4.44,8.35-6.64,14.11-6.64s10.45,2.2,14.11,6.64c4.39,5.32,6.59,12.94,6.59,22.85m8.01-.73c0-14.6-4.98-27.1-13.87-32.91-4.44-2.88-9.42-4.35-14.84-4.35-10.35,0-19.24,4.93-24.66,16.41-2.69,5.76-4.05,12.94-4.05,21.48s1.51,16.21,4.54,22.31c4.93,10.16,13.43,15.19,23.73,15.19,6.59,0,11.96-1.86,16.7-5.76,2.39-1.9,4.59-4.59,6.59-8.01,4-6.79,5.86-15.82,5.86-24.37m-64.09-14.16c-.78-6.69-2.73-11.47-6.59-15.77-3.91-4.25-9.76-7.32-17.43-7.32-9.81,0-18.31,4.79-23.58,16.45-2.64,5.81-3.96,13.14-3.96,21.92,0,9.23,1.81,18.36,6.4,25.59,4.59,7.28,11.38,11.43,20.31,11.43,5.62,0,10.01-1.56,14.11-4.74,4.05-3.12,7.67-8.45,9.62-14.65.68-2.25,1.22-4.93,1.56-8.1h-7.67c-1.71,12.35-8.94,18.99-17.28,18.99-5.03,0-9.23-2.15-12.65-6.45-4.3-5.37-6.45-12.89-6.45-22.56,0-7.13,1.17-13.14,3.52-18.07,3.66-7.81,9.57-11.33,16.26-11.33,5.86,0,10.6,2.88,13.57,7.81,1.03,1.66,1.86,3.91,2.54,6.79h7.72Z"/>
      <path class="cls-1" d="m227.45,253.41v-30.03c0-3.17.34-5.57.98-7.18,1.9-4.69,6.05-7.37,9.81-7.37.59,0,1.51.1,2.83.24v-9.28c-.98-.2-1.76-.29-2.39-.29-4.15,0-8.69,3.22-11.23,10.25v-8.64h-7.28v52.29h7.28Zm-22-26.17c0,6.93-1.42,12.21-4.2,15.77-2.15,2.78-4.93,4.15-8.35,4.15s-6.2-1.37-8.35-4.15c-2.78-3.56-4.15-8.79-4.15-15.77s1.37-12.16,4.15-15.72c2.15-2.78,4.93-4.15,8.35-4.15s6.2,1.37,8.35,4.15c2.78,3.56,4.2,8.79,4.2,15.72m7.37,0c0-9.33-2.1-16.5-6.25-21.48-3.47-4.15-8.01-6.25-13.67-6.25s-10.2,2.1-13.67,6.25c-4.15,4.98-6.25,12.16-6.25,21.48,0,3.91.44,7.67,1.27,11.23,1.22,5.13,3.86,9.38,6.2,11.67,3.12,2.98,7.23,4.88,12.45,4.88,12.7,0,19.92-11.03,19.92-27.78m-43.04-19.19v-6.93h-7.13v-6.25c0-4.88,1.42-6.15,4.35-6.15.63,0,1.56.1,2.78.24v-8.01c-1.22-.2-2.34-.29-3.47-.29-5.13,0-8.64,2.39-9.96,5.66-.63,1.61-.98,3.86-.98,6.69v8.1h-5.91v6.93h5.91v45.36h7.27v-45.36h7.13Z"/>
      <path class="cls-1" d="m319.96,76.03h16.11c7.96,0,11.67,3.86,11.67,12.3,0,6.1-1.81,10.06-4.98,11.67-1.56.78-3.81,1.17-6.69,1.17h-16.11v-25.15Zm0,63.38v-29.79h16.89c9.03,0,13.38-2.54,16.55-9.03,1.56-3.27,2.34-7.32,2.34-12.21,0-13.87-6.79-20.75-18.9-20.75h-24.76v71.78h7.86Zm-65.65-28.22c0,4.59.2,8.1.64,10.6,1.12,6.59,2.78,10.3,6.35,13.87,3.56,3.56,8.84,5.57,15.53,5.57,10.3,0,17.97-5.03,21.34-13.67,1.66-4.35,2.49-9.77,2.49-16.36v-43.56h-7.91v44.34c0,15.19-5.66,20.75-15.43,20.75-6.98,0-11.87-3.32-13.77-8.64-.93-2.69-1.37-6.69-1.37-12.11v-44.34h-7.86v43.56Zm-72.61,28.22v-58.11l30.22,58.11h8.89v-71.78h-7.57v58.11l-29.74-58.11h-9.38v71.78h7.57Zm-19.85-50c-1.07-8.25-4.4-14.5-9.96-18.75-4.3-3.22-9.18-4.83-14.65-4.83-9.62,0-18.65,5.27-24.07,16.84-2.73,5.81-4.1,12.84-4.1,21.09,0,8.84,1.51,16.36,4.49,22.66,4.83,10.11,12.79,14.8,22.36,14.8,6.44,0,11.77-2.3,15.67-5.96,1.27-1.17,2.69-2.88,4.2-5.13l1.9,9.28h5.08v-38.43h-25.78v8.1h18.41c-.15,10.74-2.88,16.9-8.5,20.75-2.83,1.9-6.1,2.88-9.86,2.88-13.62,0-20.02-12.89-20.02-28.32,0-16.26,6.74-30.08,20.26-30.08,6.4,0,11.38,2.98,14.31,7.91,1.07,1.81,1.85,4.2,2.39,7.18h7.86Zm-63.26-21.78h-7.86v71.78h7.86v-71.78Zm-20,21.09c-.24-10.2-3.71-16.75-10.5-20.26-3.37-1.76-7.18-2.64-11.43-2.64-13.04,0-21.14,8.25-21.14,21.39,0,9.23,4.25,14.89,15.04,18.21l10.5,3.17c9.03,2.78,11.28,6.01,11.28,11.91,0,7.28-5.18,12.21-15.19,12.21-7.37,0-12.45-3.52-14.79-8.93-.83-2-1.32-4.54-1.42-7.67h-7.37c-.05,4.54.59,8.4,1.81,11.57,3.37,8.64,10.69,13.53,21.48,13.53,9.91,0,17.38-3.81,20.85-10.25,1.71-3.17,2.59-6.93,2.59-11.28,0-9.72-3.37-15.92-15.67-19.58l-11.72-3.52c-7.81-2.29-10.01-5.32-10.01-10.4,0-6.84,4.25-11.87,13.62-11.87,8.79,0,13.97,4.83,14.7,14.4h7.37Z"/>
    </g>
  </g>
  <g>
    <path class="cls-1" d="m396.29,565.24c-3.45.05-6.91.25-10.36.09-3.51-.16-6.45.81-9.03,3.08-4.17,3.67-9.11,5.61-14.68,6.2-8.3.88-15.42-1.38-21.32-7.2-3.61-3.56-6.47-7.65-9.05-11.94-3.32-5.52-6.53-11.11-9.96-16.56-3.45-5.5-7.65-10.38-13.08-14.2-2.64-1.86-5.56-3.13-8.6-4.08-5.96-1.87-11.66-4.3-17.25-7.04-3.06-1.5-6.42-2.42-9.64-3.62-7.92-2.96-14.91-7.38-21.32-12.73-6.73-5.62-12.1-12.38-17.57-19.09-4.29-5.26-8.75-10.38-13.2-15.52-4.51-5.2-10.54-7.39-17.31-8.14-6.18-.68-12.32-.12-18.48.19-4.02.2-8.06.55-12.07.43-8.46-.25-16.72.81-24.91,2.8-6.54,1.59-13.12,3.06-19.72,4.4-5.68,1.15-11.45,1.42-17.17.38-7.72-1.4-14.78-4.35-20.77-9.4-3.95-3.33-6.22-7.54-6.77-12.66-.61-5.63.19-11.17.79-16.73.78-7.15,1.55-14.31,2.13-21.48.38-4.65-.14-9.27-1.58-13.75-1.61-5.02-4.64-8.92-9.38-11.57-4.34-2.43-8.67-4.9-12.9-7.52-4.35-2.7-9.01-4.12-14.17-4.33-2.43-.1-4.89-.61-7.25-1.25-5.59-1.49-11.3-2.16-17.04-2.53-3.96-.25-7.69.65-11.06,2.74-2.36,1.46-4.65,3.02-6.99,4.5-3.03,1.92-6.07,3.83-9.15,5.67-.73.44-1.66.56-2.5.82,0-.64,0-1.28,0-1.92.76-.28,1.59-.45,2.27-.86,4.21-2.5,8.69-4.68,12.51-7.66,6.43-5.01,13.49-6.65,21.48-5.47,4.23.63,8.43,1.24,12.52,2.57,2.22.72,4.67,1.15,7,1.1,5.27-.09,9.79,1.67,14.11,4.35,3.25,2.02,6.6,3.87,9.88,5.84,2.1,1.26,4.25,2.45,6.19,3.92,3.8,2.88,5.7,6.94,6.83,11.38,1.44,5.67,1.36,11.43.8,17.17-.7,7.24-1.71,14.45-2.37,21.7-.32,3.49-.37,7.04-.17,10.54.28,4.92,2.5,9.08,6.24,12.4,5.48,4.89,12.07,7.69,19.25,9.21,7.13,1.51,14.26.8,21.29-.74,7.38-1.62,14.71-3.43,22.07-5.13,5.46-1.26,11-2,16.63-1.79,7,.26,13.97-.21,20.95-.67,6.84-.45,13.67-.37,20.27,1.76,3.39,1.09,6.44,2.79,9,5.27,7.31,7.07,13.82,14.76,19.86,22.89,7.63,10.27,17.29,18.36,29.01,24.02,1.39.67,2.82,1.36,4.31,1.76,4.55,1.22,8.84,3.04,12.96,5.21,4.15,2.19,8.52,3.78,12.98,5.17,8.92,2.78,15.65,8.34,20.77,15.78,3.06,4.44,5.74,9.14,8.62,13.7,2.84,4.49,5.62,9.02,8.6,13.43,2.05,3.02,4.75,5.51,7.77,7.64,4.1,2.89,8.78,3.91,13.75,3.82,3.9-.07,7.74-.74,11.26-2.37,2.05-.95,4.03-2.21,5.69-3.7,2.59-2.32,5.45-3.34,8.95-3.27,3.36.07,6.72-.24,10.09-.38v3.36Z"/>
    <path class="cls-1" d="m266.4-1.27c-.84,1.08-1.62,2.21-2.51,3.24-5.83,6.73-11.09,13.92-16.16,21.26-1.33,1.93-2.68,3.87-4.09,5.74-1.08,1.44-1.38,2.8-.43,4.48,1.24,2.18,2.25,4.51,3.47,6.71.58,1.06,1.34,2.03,2.14,2.94,1.74,1.96,2.24,1.93,4.24.08.2-.18.53-.22.8-.33.02.3.14.64.04.9-.27.76-.62,1.48-1.12,2.65.76-.61,1.22-.97,1.67-1.35,2.4-2.03,4.66-4.26,7.21-6.06,8.13-5.72,16.8-6.14,25.75-2.18,2.2.97,4.33,2.1,6.48,3.18.5.25,1.09.47,1.41.89.28.36.46,1.1.28,1.46-.17.34-.97.67-1.32.54-1.12-.42-2.12-1.14-3.23-1.6-3.1-1.29-6.15-2.76-9.36-3.7-6.75-1.99-13.17-.78-19.08,3.01-2.15,1.38-4.24,2.96-6.07,4.77-3.16,3.12-6.19,6.38-9.06,9.77-1.39,1.64-2.48,3.62-3.39,5.6-1.25,2.74-1.15,5.61.4,8.23.9,1.52,2,2.99,3.27,4.19,2.74,2.6,6.02,3.23,9.59,2.05.76-.25,1.46-.66,2.22-.92.49-.17,1.31-.43,1.48-.22.56.68.08,1.35-.45,1.9-3.58,3.73-10.28,3.93-14.3.43-4.8-4.19-6.12-9.38-3.9-15.41.3-.81.63-1.61.91-2.33-3.13,1.51-6.18,3.09-9.32,4.43-1.52.65-3.23.92-4.88,1.17-.92.14-1.93.06-2.84-.18-2.49-.64-3.71-2.31-3.25-4.89.34-1.9,1.01-3.78,1.82-5.53,2.16-4.6,5.37-8.48,8.44-12.45,1.88-2.43,3.72-4.89,5.56-7.36.33-.44.68-.97.71-1.48.03-.51-.21-1.2-.57-1.5-.21-.17-1,.17-1.37.48-1.11.93-2.13,1.97-3.22,2.94-5.5,4.9-11.79,2.71-15.4-1.29-.59-.66-1.12-1.38-1.69-2.07-2.87-3.45-3.05-7.24-1.24-11.21,1.73-3.8,4.47-6.71,7.77-9.15,1.21-.9,2.39-1.93,3.33-3.1,2.35-2.92,4.86-5.63,8.03-7.65.39-.25.65-.69.97-1.04.96,0,1.92,0,2.88,0-.69.76-1.3,1.63-2.1,2.27-1.44,1.16-3.01,2.14-4.48,3.27-.86.66-1.63,1.45-2.43,2.17.83.28,1.41.11,2.01.01,1.49-.24,2.99-.6,4.49-.64,4.2-.14,7.88,1.18,10.63,4.56,1.79,2.2,2.49,4.7,1.62,7.53-.2.64-.36,1.3-.54,1.94,5.41-7.25,10.83-14.36,16.71-21.12.48,0,.96,0,1.44,0Zm-21.09,25.56c-1.26,1.09-2.56,2.14-3.76,3.29-.23.22-.29.98-.1,1.25.44.62.82.08,1.08-.31.93-1.41,1.83-2.84,2.74-4.26.21-.24.42-.47.62-.71.1-.12.16-.27.23-.4-.15.09-.35.15-.44.29-.16.26-.26.57-.38.85Zm-18.58,7.03c1.59-.4,3.55-.77,5.43-1.39,2.2-.73,4.32-1.67,6.47-2.56.51-.21,1.03-.48,1.43-.86,1.82-1.71,3.67-3.4,5.36-5.24,2.21-2.38,2.33-4.8.57-7.52-1.63-2.51-3.98-3.96-6.82-4.58-3.72-.81-7.29-.11-10.8,1.21-1.81.68-3.18,1.78-4.17,3.48-.69,1.19-1.56,2.27-2.27,3.45-1.34,2.22-2.81,4.37-3.13,7.07-.39,3.26.92,5.4,4,6.25,1.14.32,2.35.42,3.94.69Zm11.15,14.3c0,.07-.02.15-.02.22-1.04,0-2.08.07-3.11-.03-.49-.05-.96-.42-1.44-.65.32-.62.5-1.4.99-1.81.44-.37,1.2-.44,1.82-.44,2.39-.02,4.78.03,7.17.08.99.02,1.19-.21.76-1.13-.95-2.07-1.93-4.13-2.92-6.18-.75-1.56-1.05-1.58-2.08-.21-3.06,4.08-6.17,8.13-9.13,12.28-1.55,2.17-3.07,4.41-4.2,6.82-2.08,4.45-.18,7.08,4.63,6.49,5.81-.71,10.79-3.46,15.21-7.24,1.71-1.46,1.82-3.09.66-5.03-.73-1.22-1.71-2.2-3.14-2.45-1.72-.3-3.46-.49-5.2-.72Zm-20.52-22.53c1.45-2.71,2.89-5.42,4.34-8.14-2.64,2.09-5.12,4.26-4.34,8.14Zm34.36,24.7q-2.93.18-2.6,2.85c.85-.93,1.57-1.72,2.6-2.85Zm-18.78-14.9c-.06-.16-.12-.31-.18-.47-1.02.41-2.05.82-3.07,1.23.06.15.11.3.17.45,1.03-.4,2.06-.8,3.08-1.2Z"/>
    <path class="cls-1" d="m.48,845.2c1.12,0,2.24.03,3.36.03,75.81,0,151.62,0,227.44,0,1.04,0,2.08-.02,3.12-.03.8,0,1.35-.33,1.62-1.18.89-2.78,1.83-5.54,2.72-8.31.42-1.32.07-1.79-1.2-1.46-1,.26-2.01.63-2.88,1.19-2.18,1.4-4.29,2.92-6.41,4.42-1.33.93-2.59,1.98-3.96,2.84-1.03.65-2.28,2.11-3.36.89-1.03-1.16.37-2.45.99-3.55.85-1.52,1.81-2.96,2.77-4.4,3.25-4.89,6.69-9.61,10.86-13.7.47-.46.95-.9,1.46-1.29.14-.1.52-.07.62.05.11.13.13.53.02.67-.49.65-1,1.3-1.57,1.87-4.51,4.46-8.23,9.57-11.54,15.04-.33.55-.58,1.15-.59,2.1.7-.44,1.44-.84,2.11-1.32,2.5-1.81,4.94-3.71,7.49-5.45,1.26-.86,2.67-1.5,4.07-2.12.64-.29,1.4-.41,2.1-.4,1.38.01,1.89.76,1.42,2.13-.63,1.81-1.47,3.54-2.06,5.36-.51,1.58-.91,3.21-1.17,4.86-.2,1.23.24,1.73,1.42,1.78,2,.08,4,.13,5.99-.02,2.2-.17,2.93-1.29,2.7-3.67-.41-4.29.7-8.33,2-12.3.69-2.12,1.77-4.11,2.73-6.13.11-.24.62-.27.94-.39,0,.31.06.64,0,.93-.07.32-.26.61-.39.92-1.35,3.28-.88,5.81,1.63,8.14.89.82,1.9,1.53,2.94,2.15,1.26.75,2.55,1.1,3.57-.5.11-.17.4-.2.61-.3.09.28.26.56.25.83-.06,1.78.42,2.25,1.99,1.69.98-.35,1.9-.87,2.83-1.36,4.14-2.18,8.27-4.39,12.42-6.56,2.3-1.2,4.69-2.15,7.27-2.45,4.84-.56,7.96,3.37,6.59,8.33-.73,2.63-3.16,3.75-5.49,2.55-1.7-.87-2.65-2.37-3.32-4.13-.21-.54-.36-1.11-.51-1.68-.25-.97-.85-1.12-1.66-.81-.6.23-1.21.44-1.79.73-3.46,1.74-6.92,3.48-10.37,5.25-.7.36-1.18.68-1.11,1.85.08,1.39-.75,2.65-2.07,3.42-1.58.92-3.1,1.95-4.55,3.36.51.07,1.01.18,1.53.21.72.04,1.44.01,2.16.01,40.39,0,80.77,0,121.16,0,1.12,0,2.24-.02,3.36-.03-.08.17-.15.48-.24.48-.64.04-1.28.02-1.92.02H2.64q-1.46,0-2.16-.5Zm249.69-8.76c-.05,0-.1.01-.15.02.17.93.27,1.87.53,2.78.19.68.7,1.1,1.46.7,1.12-.6,2.23-1.21,3.31-1.87.53-.32.49-.74,0-1.13-1-.78-1.99-1.57-2.97-2.36-.53-.43-1.05-.88-1.57-1.32-.2.75-.42,1.49-.59,2.25-.07.3-.01.63-.01.95Zm37.07-7.57c-1.31.04-1.68.64-1.1,1.85.72,1.5,1.88,2.53,3.5,2.96,1.21.32,1.81-.28,1.62-1.52-.3-1.94-2.02-3.35-4.01-3.29Zm-33.31,14.62c.05.16.1.33.15.49,1.33.11,2.68.29,3.93-.46,1.57-.95,3.14-1.92,4.69-2.9.23-.15.36-.45.54-.69-.35-.06-.78-.27-1.05-.15-2.76,1.21-5.5,2.47-8.25,3.71Z"/>
    <path class="cls-1" d="m393.22,728.87c-3.72-1.04-3.7-1.02-6.16,1.94-3.61,4.35-7.15,8.76-10.94,12.97-1.55,1.72-.87,3.32,1.3,3.65,1.8.27,3.72-.01,5.56-.23,1.26-.14,2.47-.63,3.72-.88.8-.16,1.22.31.87.96-.32.6-.83,1.33-1.44,1.53-2.4.81-4.84,1.53-7.32,2.12-1.65.4-3.21-.12-4.6-1.02-1.61-1.05-2.21-2.52-1.33-4.17.75-1.41,1.77-2.72,2.83-3.95,3.68-4.29,7.45-8.52,11.15-12.81,1.14-1.32.98-1.78-.78-1.96-2.27-.23-4.57-.21-6.86-.3-1.01-.04-2.02-.22-3.02-.15-2.38.16-4.76.42-7.13.66-.51.05-1.01.21-1.52.23-.7.03-1.6.55-2-.43-.27-.66.51-1.73,1.54-1.91,2.43-.41,4.89-.68,7.35-1,.59-.08,1.26.03,1.77-.19.54-.23,1.27-.7,1.35-1.16.54-2.83,1.05-5.67,1.32-8.53.52-5.33-4.52-8.51-9.7-6.53-2.33.89-4.44,2.35-6.54,3.7-2.18,1.4-4.2,3.02-6.36,4.44-.53.35-1.36.3-2.05.44.14-.67.07-1.49.46-1.98,1.85-2.29,3.72-4.57,5.78-6.69,2.01-2.06,4.31-3.87,6.4-5.87,3.83-3.68,7.04-7.8,9.87-12.2.54-.83,1.23-1.58,2.07-2.21-2.23,4.77-5.17,9.15-8.81,13.03-3.65,3.89-7.64,7.49-11.31,11.49.74-.51,1.46-1.03,2.21-1.53,2.5-1.66,4.9-3.5,7.56-4.91,2.87-1.52,5.94-1.83,9.02-.11,2.17,1.21,3.47,2.9,3.56,5.2.07,1.98-.16,3.98-.37,5.96-.17,1.67-.6,3.31-.74,4.98-.18,2.14.07,2.33,2.25,2.6,1.94.25,3.89.48,5.82.8,1.22.2,2.14.03,2.84-1.03.71-1.08,1.57-2.08,2.36-3.12v2.4c-.29.29-.61.55-.86.86-1.15,1.47-1.13,1.51.86,2.5v2.4Z"/>
    <path class="cls-1" d="m-1.3,739.98c.47-.56,1.04-1.07,1.38-1.7,3.18-5.95,7.56-10.97,12.51-15.53,1.73-1.59,3.24-3.28,4.33-5.33.42-.8.91-1.57,1.45-2.29.21-.28.66-.37,1-.55-.04.36-.03.75-.14,1.09-.15.46-.4.88-.64,1.39,2.73-.65,5.51-2.75,6.71-4.93,2.35-4.25,4.72-8.48,7.09-12.71.28-.5.58-1,.93-1.46.13-.17.42-.21.63-.31.07.29.27.63.18.85-.27.68-.65,1.33-1,1.97-2.02,3.67-4.06,7.34-6.07,11.02-.19.34-.23.76-.34,1.15.47.01.95.11,1.4.02,1.71-.33,3.4-.84,5.13-1.07,2.52-.33,4.96.1,6.5,2.27,1.62,2.29.92,4.73-.29,6.99-1.19,2.22-3.03,3.9-5.2,5.2-5.08,3.02-10.65,4.68-16.48,5.47-1.59.21-2.52.77-3.36,2.06-4.03,6.22-8.38,12.22-13.58,17.57-.61.63-1.42,1.09-2.14,1.62,0-.82,0-1.64,0-2.46.55-.34,1.2-.6,1.64-1.04,5.1-5.11,9.31-10.92,13.29-16.88.27-.4.44-1.3.21-1.53-1.27-1.26-1.34-2.74-1.22-4.34.05-.65-.37-.87-.97-.5-.21.13-.42.28-.59.45-4.35,4.55-8.59,9.17-11.15,15.01-.24.55-.8.97-1.21,1.45,0-.98,0-1.97,0-2.95Zm34.96-25.45c-3.13.26-5.95.92-8.59,2.19-.55.27-1.06.81-1.37,1.35-1.71,2.9-3.36,5.82-5,8.76-.57,1.02-.36,1.32.79,1.3.41,0,.83-.05,1.24-.14,4.9-1.02,9.66-2.46,14.04-4.9,1-.56,1.99-1.23,2.75-2.07,1.7-1.87.96-4.98-1.38-5.94-.82-.34-1.77-.4-2.48-.54Zm-12.44,4.49c-2.21.76-4.11,1.88-5.49,3.62-.9,1.13-1.2,2.54-.74,3.96.31.98,1.27,1.17,1.88.32,1.75-2.46,3.08-5.15,4.35-7.91Z"/>
    <path class="cls-1" d="m90.78,30.06c1.49-2.02,2.8-4.01,4.32-5.82,4.79-5.68,9.66-11.29,14.5-16.93.88-1.03,1.73-2.1,2.65-3.1.46-.49,1.06-.85,1.59-1.27.48.98-.44,1.43-.84,2.02-.63.92-1.4,1.74-2.14,2.58-4.3,4.95-8.66,9.84-12.89,14.85-3.61,4.28-6.9,8.81-9.46,13.82-.84,1.63-1.53,3.34-2.3,5.01-.32.69-.14,1.03.52,1.53,1.46,1.1,3.07.91,4.58.61.65-.13,1.28-1.12,1.65-1.86,1.6-3.2,3.94-5.66,7.17-7.15,6.98-3.22,14.17-3.61,21.51-1.33.23.07.51.11.66.27.34.37.87.82.85,1.21-.03.75-.66,1.03-1.41.85-.47-.11-.93-.25-1.39-.37-6.65-1.74-13.19-1.28-19.49,1.39-1.94.82-3.75,2.16-5.32,3.59-1.5,1.37-2.51,3.14-1.16,5.34.31.49.18,1.24.31,1.86.07.36.25.71.37,1.06.31-.2.62-.4.93-.6.16-.1.32-.2.66-.28-1.7,2.19-.33,3.6,1.03,5.05,2.06,2.2,4.48,3.86,7.23,5.04,2.28.97,4.58,1.42,6.92.12.24-.13.58-.08.87-.12,0,.37.14.82-.03,1.1-1.26,2.16-3.29,2.98-5.67,2.9-2.46-.09-4.75-.91-6.68-2.4-2.01-1.55-3.85-3.33-5.7-5.08-1.08-1.02-1.15-1.13-1.98,0-2.51,3.41-4.96,6.86-7.47,10.28-.48.66-.32,1.06.16,1.65,1.69,2.08,1.71,3.38.22,5.58-1.17,1.73-2.87,2.74-4.73,3.55-1.17.51-2.39.88-2.86,2.33-.19.58-.73.86-1.13-.06-.12-.28-.74-.52-1.08-.47-1.1.16-2.18.5-3.28.7-3.84.7-7.64.57-11.37-.69-.53-.18-1.06-.38-1.55-.64-2.65-1.43-3.18-3.29-1.78-5.97.92-1.76,2.27-3.08,3.93-4.11,2.28-1.42,4.77-2.29,7.45-2.43,2.23-.12,4.48-.14,6.71-.07,1.57.05,3.02.03,4.19-1.25.21-.23.69-.23,1.04-.33-.02.35.08.78-.09,1.05-.55.9-.1,1.09.69,1.24,1.1.21,2.04.12,2.76-.88.89-1.23,1.84-2.41,2.74-3.64.22-.3.33-.69.49-1.04-.44-.07-.89-.23-1.32-.2-.87.07-1.74.22-2.61.37-2.05.35-4.03.13-5.79-.98-2.15-1.36-4.24-2.84-6.31-4.33-1.26-.91-1.33-1-1.92.26-2.43,5.21-6.44,9.11-10.63,12.84-2.33,2.07-4.78,4-7.18,6-.43.36-.89.69-1.28,1.09-.2.21-.29.53-.43.8.28.14.54.34.83.42,2.39.63,4.82,1.1,7.16,1.87,4.19,1.39,7.71,3.86,10.48,7.31.72.9,1.43,1.07,2.49.71,2.28-.77,4.63-1.25,7.07-1.07,3.18.23,5.64,1.65,7.26,4.42,1.03,1.77.92,3.05-.4,4.63-1.4,1.67-3.26,2.52-5.36,2.92-2.73.52-5.43.2-8.1-.37-1.27-.27-2.12,0-2.91,1.02-2.5,3.26-5.97,4.38-9.92,4.39-.4,0-.8-.08-1.2-.03-.6.07-1.19.2-1.79.31.31.68.48,1.5.96,2.03,1.46,1.6,3.46,2.25,5.49,2.73,4.87,1.16,9.82,1.25,14.79,1.1.72-.02,1.44-.12,2.15-.07.34.02.83.24.94.5.12.3.02.88-.21,1.08-.45.4-1.03.82-1.61.91-6.56,1.06-13.07.93-19.44-1.17-.9-.3-1.73-.83-2.57-1.29-2-1.09-3.12-2.82-3.01-5.08.07-1.47-.6-1.89-1.78-2.34-2.67-1.04-5.29-2.23-7.91-3.39-.58-.26-1.11-.63-1.62-1.02-4.41-3.35-5.17-6.83-2.52-11.7.72-1.33,1.59-2.58,2.44-3.84.82-1.22.78-1.35-.57-1.73-1.22-.34-2.48-.65-3.6-1.22-1.06-.54-1.08-1.47-.35-2.42.56-.74,1.22-.66,1.92-.32,1.7.85,3.51,1.02,5.37,1.03,1.09.01,1.99-.34,2.84-1.06,4.57-3.88,9.24-7.65,13.75-11.6,1.97-1.73,3.74-3.72,5.42-5.74.79-.95,1.25-2.21,1.68-3.4.43-1.17.33-2.35-.6-3.36-.32-.35-.6-.78-.75-1.22-.69-2.08-2.28-2.52-4.19-2.34-1.99.19-3.97.58-5.96.63-1.9.06-3.86.04-5.69-.38-2.59-.59-3.5-2.48-2.95-5.13.48-2.34,1.87-4.09,3.72-5.4,1.62-1.15,3.36-2.24,5.21-2.93,7.12-2.63,14.3-5.11,21.48-7.58,1.35-.46,2.8-.65,4.21-.91.62-.12,1.27-.16,1.91-.17,4.15-.05,5.81,1.5,5.98,5.7Zm-42.91,47.63c-1.15-.3-2.74.62-4.06,2.2-.92,1.1-1.97,2.12-2.72,3.32-1.29,2.1-1.18,4.27.32,6.27.57.76,1.24,1.49,2,2.05,3.06,2.26,6.51,3.68,10.16,4.69.94.26,1.69.14,2.32-.7,1.79-2.38,4-4.33,6.42-6.05.38-.27.74-.62.99-1.02.58-.9,1.1-1.69,2.45-1.43.58.11.96-.52.49-1.18-.23-.32-.49-.64-.78-.9-4.72-4.26-10.24-6.67-17.6-7.25Zm17.52-35.79c-.09.14-.17.28-.26.42,2.77,1.29,4.52,3.48,5.85,6.05.1.2.32.35.5.51,1.64,1.39,3.22,2.87,4.96,4.13,2.92,2.11,6.08,3.52,9.84,2.61.68-.16,1.48-.18,2.14.02,1.32.39,2.13-.03,2.73-1.19.22-.42.58-.77.81-1.18.26-.46.46-.95.69-1.43-.5.09-1,.17-1.49.27-1.39.29-2.78.84-4.17.82-2.58-.02-4.18-1.72-4.11-4.29.04-1.4.3-2.89.84-4.18,1.46-3.53,3.12-6.98,4.69-10.46.17-.37.25-.77.53-1.67-3.86,3.44-8.09,5.2-12.04,7.42-2.91,1.63-6.1,2.29-9.45,2.17-.68-.03-1.37,0-2.05,0Zm4.05-2.45c2.93-.14,5.54-1.06,8.04-2.4,2.6-1.4,5.21-2.79,7.79-4.24.9-.5,1.8-1.06,2.56-1.76,1.08-1.01,1-1.99-.29-2.72-.87-.49-1.94-.83-2.93-.86-3.9-.12-7.59.93-11.2,2.3-.42.16-.79.53-1.09.88-1.46,1.68-2.95,3.35-4.3,5.12-.68.89-1.94,1.5-1.75,2.93,1.06.25,2.11.5,3.17.74Zm5.33,25.79c-4.18-.44-8.18-.08-11.83,1.99-1.1.63-2.16,1.38-3.09,2.23-1.59,1.46-1.4,2.73.45,3.8.34.2.72.34,1.09.48,5.07,1.88,10.16,1.77,15.25.09.63-.21,1.33-.65,1.68-1.19.83-1.26,1.52-2.62,2.18-3.98.45-.91.17-1.34-.89-1.36-1.7-.04-3.29.3-4.69,1.43-1.93,1.56-3.96,3.03-6.48,3.44-.99.16-2.07.13-3.05-.09-1.04-.23-1.33-.92-.73-1.79.56-.81,1.32-1.65,2.19-2.06,1.86-.89,3.85-1.51,5.79-2.24.71-.26,1.42-.51,2.13-.76Zm-4.25-33.81c-.08-.11-.16-.23-.24-.34-.51.13-1.04.21-1.54.38-3.16,1.12-6.35,2.19-9.47,3.42-2.3.91-4.54,1.98-6.74,3.1-1.21.61-2.4,1.41-2.17,3.1.19,1.39,1.31,2.32,3.26,2.72.39.08.8.16,1.19.14,1.83-.11,3.66-.26,5.49-.41.81-.06.75-.35.52-1.09-.35-1.13.12-1.54,1.38-1.36.68.09,1.21.3,1.52-.58.96-2.71,2.93-4.72,4.79-6.81.67-.75,1.34-1.51,2.01-2.26Zm7.01,62.26c1.41-.31,3.38-.6,5.25-1.2,1.25-.4,1.36-1.11.72-2.27-.99-1.78-2.55-2.82-4.47-3.37-1.98-.57-3.96-.35-5.93.07-2.07.44-2.09.5-2.02,2.71.02.56.03,1.12,0,1.68-.06.98.45,1.52,1.35,1.67,1.49.25,3,.42,5.11.71Zm-17.32,3.76c2.7,0,4.89-.35,6.81-1.68.96-.67.87-1.17-.24-1.67-1.16-.53-2.31-1.09-3.5-1.56-.48-.19-1.25-.42-1.55-.19-1.51,1.15-2.95,2.42-4.34,3.72-.41.38-.24.96.38,1.08.94.18,1.9.24,2.43.3Zm28.75-47.53c.33-.03.81-.06,1.28-.14.86-.13,1.53-.46,1.47-1.51-.06-1.05-.59-1.62-1.65-1.64-1.27-.03-2.55-.07-3.82,0-1.11.06-1.45.88-.79,1.83.81,1.16,2.03,1.46,3.5,1.46Zm-4.32,19.87c-.51-.56-.88-1.2-1.44-1.5-.3-.16-1.08.12-1.36.44-.61.7-1.09,1.54-1.54,2.37-.16.3-.07.75-.09,1.13.37,0,.79.13,1.1,0,.8-.33,1.58-.73,2.31-1.2.36-.24.58-.69,1.02-1.23Zm-15.48,21.51c-.02-1.56-.84-2.65-1.69-2.34-.77.28-1.43.88-2.14,1.34.61.43,1.19.91,1.84,1.29.33.19.78.34,1.14.27.35-.06.65-.41.85-.55Z"/>
    <path class="cls-1" d="m59.48,141.78c2.91-1.3,5.82-2.61,8.75-3.89,2.34-1.03,4.69-2.06,7.05-3.04,1.03-.43,2.1-.79,3.18-1.06.48-.12,1.04.06,1.57.1-.26.61-.4,1.34-.83,1.8-.41.44-1.11.6-1.69.87-6.71,3.02-13.4,6.07-20.13,9.04-1.58.7-2.89,1.63-3.93,3.02-.72.96-1.54,1.83-2.35,2.72-.6.66-1,1.32-1.16,2.27-.15.86-.8,1.68-1.35,2.43-1.98,2.7-4.08,5.32-6,8.06-1.06,1.51-1.61,3.27-1.74,5.17-.2,3.1,2.47,5.11,4.63,5.64.48.12,1.24-.24,1.63-.63.8-.78,1.39-1.75,2.14-2.58,2.53-2.83,5.43-5.19,8.89-6.81.5-.23.99-.48,1.86-.9-.88-.32-1.42-.56-1.98-.71-2.05-.59-3.75-1.75-5.32-3.14-.95-.84-1.16-1.85-.81-3.04.76-2.53,2.26-4.57,4.19-6.31,2.26-2.02,4.97-3.19,7.87-3.91,4.49-1.13,9-1.47,13.5-.08,1.13.35,2.19.95,3.24,1.52.63.34.99,1,.42,1.57-.26.26-1.04.26-1.44.08-7.03-3.19-13.91-2.21-20.6.9-1.68.78-3.12,2.2-4.46,3.54-1.23,1.24-1.06,2.26.17,3.54,2.59,2.69,6.01,3.49,9.45,2.05,1.39-.58,2.68-1.42,3.98-2.19,1.03-.61,1.99-1.35,3.05-1.91.57-.3,1.28-.35,1.93-.52-.05.6-.1,1.2-.16,1.8,0,.08-.06.15-.09.22-.17.49-.66,1.02.22,1.37.69.28,1.27.96,2.08.13,1.12-1.14,2.29-2.24,3.53-3.25,3.59-2.93,7.16-5.89,10.88-8.65,1.71-1.27,3.71-2.2,5.68-3.06,1.06-.46,2.33-.63,3.5-.63,2.61.01,4.24,2.08,3.81,4.67-.1.62-.26,1.27-.55,1.83-2.01,3.92-4.88,6.91-9.23,8.19-3.36.99-6.79.98-10.23.63-.62-.06-1.42-.07-1.42-.94,0-.94.59-1.45,1.55-1.46.88,0,1.76.09,2.64.03,2.39-.15,4.8-.19,7.15-.6,2.74-.47,5.12-1.79,6.86-4.07.29-.38.59-.77.8-1.19,1.26-2.56.02-4.66-2.81-4.41-1.7.15-3.46.71-4.99,1.48-2.06,1.04-4.02,2.33-5.85,3.73-6.48,4.99-12.41,10.6-18,16.54-2.17,2.31-3.76,5.15-5.62,7.75-.51.71-1.04,1.39-1.81,2.42.75-.14,1.19-.12,1.51-.31,1.85-1.1,3.69-2.24,5.51-3.39,3.31-2.09,6.58-4.26,9.95-6.26,1.21-.72,2.62-1.17,4-1.49,1.06-.24,1.52.32,1.27,1.38-.21.92-.54,1.85-1,2.68-1.19,2.17-2.45,4.31-3.73,6.43-1.35,2.23-2.45,4.5-2.07,7.22.04.31.09.72-.06.93-.35.48-.82.86-1.25,1.29-.23-.46-.62-.91-.67-1.38-.2-2.31.51-4.46,1.62-6.41,1.1-1.94,2.49-3.71,3.7-5.59.52-.8,1.02-1.63,1.34-2.52.34-.94-.18-1.48-1.1-1.14-1.12.41-2.22.92-3.23,1.56-3.45,2.17-6.88,4.38-10.28,6.63-2.74,1.81-5.55,3.46-8.69,4.55-.87.3-1.62.97-2.37,1.55-2.09,1.6-4.09,3.34-6.24,4.85-1.85,1.3-3.93,1.96-5.99.35-2.01-1.57-1.59-3.68-1.03-5.72.32-1.15.84-2.24,1.3-3.35.61-1.46.63-1.45-.63-2.24-.27-.17-.56-.31-.83-.48-2.51-1.68-3.6-3.99-3.11-7,.56-3.5,2.38-6.41,4.31-9.27.48-.71.99-1.41,1.21-2.44-.42.25-.88.46-1.25.77-2.13,1.82-4.2,3.7-6.35,5.49-1.28,1.06-1.8.92-2.63-.48-.95-1.61-.99-3.35-.59-5.11.74-3.27,2.58-6.01,4.41-8.72.72-1.07,1.19-1.76.3-3.12-1.45-2.23-.72-4.64.36-6.86,1.75-3.61,3.83-7.03,6.61-9.95,2.75-2.89,5.59-5.71,8.41-8.54.33-.34.73-.63,1.13-.88.17-.11.44-.06.67-.08.02.29.16.67.03.86-.41.58-.92,1.09-1.41,1.61-3.52,3.71-7.15,7.32-10.52,11.16-1.45,1.65-2.44,3.73-3.49,5.7-.66,1.24-.69,2.65-.03,3.94.76,1.47,1.68,1.67,2.77.5,3.07-3.28,6.47-6.2,10.27-8.6,1.81-1.15,3.77-2.08,5.73-2.97.62-.28,1.67-.92,2.07.13.35.9-.34,1.66-1.31,1.96-5.69,1.76-9.93,5.7-14.26,9.49-.48.42-.74,1.1-1.11,1.65.67.13,1.36.41,2.02.37,2.92-.18,5.64-1.13,8.21-2.47.61-.32,1.17-.86,1.58-1.43,2.89-3.92,5.74-7.88,8.6-11.82.65-.89.8-1.6-.3-2.4-1.74-1.26-2.02-3.16-1.15-4.95,1.25-2.58,2.82-5.01,4.28-7.48.11-.18.51-.18.78-.26,0,.22.1.49,0,.65-.58,1.05-1.22,2.07-1.8,3.11-.55.98-1.14,1.94-1.55,2.97-.58,1.45-.21,2.59.92,3.4,1.09.78,1.84.74,2.7-.32.96-1.18,1.75-2.48,2.7-3.66.65-.8,1.36-1.59,2.18-2.19,1.6-1.18,2.42-.79,2.66,1.23.26,2.16-.33,4.14-1.73,5.81-1.44,1.73-3.23,2.86-5.56,2.91-1.02.02-1.91.28-2.52,1.14-2.48,3.5-4.94,7.01-7.41,10.51.15.14.3.28.46.42Zm-9.25,33.82c1.9-.75,4.03-1.43,6.03-2.4,3.69-1.8,6.8-4.46,10.02-6.98,2.12-1.66,3.21-3.93,4.26-6.26.11-.25.03-.59.04-.89-.29.04-.63,0-.86.13-1.51.9-2.98,1.87-4.5,2.76-.71.42-1.29.81-1.4,1.77-.12,1.04-.84,1.66-1.87,1.95-.69.2-1.35.49-2.01.77-4.11,1.75-7.7,4.23-10.59,7.65-.21.25-.29.71-.24,1.04.03.16.53.23,1.12.45Zm12.3-2.93c-.16-.18-.32-.37-.48-.55-1.18.8-2.36,1.6-3.54,2.4-3.43,2.3-7.04,4.07-11.31,4.1-.49,0-1.23.25-1.43.61-.69,1.24-1.45,2.53-1.7,3.89-.39,2.07,1.23,3.72,3.29,3.31,2.89-.57,5.61-1.99,7.01-4.57,1.42-2.6,3.27-4.69,5.35-6.67.91-.87,1.88-1.69,2.82-2.53Zm-21.16-23.21c-.31.16-.99.32-1.35.75-1.75,2.09-3.45,4.26-3.94,7.02-.19,1.06-.1,2.23.13,3.28.23,1.02.91,1.2,1.82.57.98-.69,1.91-1.45,2.78-2.28,3.01-2.86,6-5.75,8.97-8.65.24-.23.28-.66.41-1-.3-.01-.62-.11-.9-.03-2.5.71-5.01,1.03-7.91.34Zm29.3-22.7c2.07-.13,3.63-1.45,3.66-3,0-.4-.24-.91-.54-1.17-.18-.15-.86-.04-1.04.18-.9,1.08-1.73,2.22-2.53,3.38-.05.08.35.47.46.61Z"/>
    <path class="cls-1" d="m355.98,151.95c-1.92,1.01-3.71,1.85-5.39,2.88-.62.38-1.06,1.16-1.42,1.84-1.76,3.4-3.49,6.83-5.19,10.26-2.2,4.43-4.35,8.9-6.59,13.31-1.16,2.28-2.44,4.49-3.72,6.71-.78,1.35-.66,1.68.91,1.66,4.9-.06,9.73-.67,14.47-1.91.39-.1.77-.24,1.16-.31,2.79-.48,4.51-2.17,6.14-4.47,4.01-5.67,8.46-11.03,12.6-16.61,3.24-4.36,7.21-7.9,11.59-11.02.47-.33,1.09-.45,1.64-.66-.12.59-.09,1.26-.38,1.75-3.51,6-6.98,12.03-10.65,17.93-3.72,5.98-8.76,10.56-15.31,13.33-2.85,1.2-3.55,3.76-4.41,6.23.16.11.32.22.48.33.68-1.02,1.32-2.06,2.05-3.05.18-.25.61-.31.92-.46-.02.29.04.64-.09.87-.7,1.26-1.45,2.49-2.17,3.73-1.21,2.09.05,5.19,2.41,5.62.76.14,1.7-.22,2.45-.59,1.72-.84,3.33-1.9,5.05-2.74,1.6-.78,3.34-1.12,5.14-.85,2.07.31,2.56,1.06,2.13,3.09-.64,3.03-2.28,5.61-3.74,8.27-.49.89-.99,1.78-1.22,2.96.45-.22.92-.41,1.35-.67,2.52-1.55,4.94-3.28,7.57-4.61,2.19-1.11,4.57-1.89,6.94-2.54,1.08-.3,2.39-.1,3.53.18,1.51.37,1.84.97,1.31,2.48-1.06,3.01-2.35,5.94-3.44,8.94-.77,2.09-1.41,4.24-2.04,6.38-.33,1.1-.15,2.07,1.14,2.5.52.18,1.26.37.94,1.08-.31.67-.81,1.47-1.43,1.73-1.38.59-2.81-.42-2.88-1.93-.03-.7.13-1.43.28-2.13.88-4.09,2.63-7.87,4.33-11.66.42-.94.81-1.91,1.13-2.89.31-.97-.15-1.59-1.12-1.69-.86-.09-1.8-.2-2.6.05-2.36.73-4.79,1.37-6.96,2.51-4.9,2.57-9.46,5.67-13.31,9.72-.27.29-.57.56-.88.81-.11.08-.37.14-.42.09-.14-.15-.35-.44-.29-.56.53-1.06,1.05-2.14,1.68-3.15,2.36-3.8,4.78-7.56,7.13-11.36.46-.74.82-1.57,1.05-2.41.39-1.38-.18-2.24-1.63-2.26-2.02-.03-4.06.1-5.15,2.27-.7,1.4-2.13,1.71-3.41,1.97-2.01.4-3.72,1.31-5.44,2.36-2.04,1.25-4.25,2.22-6.35,3.38-1.37.76-2.66,1.66-3.83,2.93.75-.08,1.5-.17,2.24-.24,3.95-.35,6.56,2.02,6.25,5.97-.15,1.96-.82,3.89-1.3,5.82-.33,1.32-.8,2.6-1.1,3.92-.43,1.94-.19,3.82.79,5.57.19.35.42.69.55,1.06.27.8-.18,2-.87,2.27-.88.35-1.42-.29-1.72-.9-.45-.91-.99-1.93-.96-2.89.06-1.89.39-3.8.79-5.66.31-1.48.93-2.89,1.33-4.35.25-.92.43-1.87.49-2.82.22-3.7-2.05-5.82-5.68-5.07-1.77.36-3.5,1.13-5.11,1.98-4.98,2.64-9.24,6.29-13.51,9.92-1.03.88-2.04,1.8-3.1,2.65-.62.5-1.28.96-1.98,1.34-.29.15-.75.11-1.07,0-.12-.04-.19-.61-.08-.85.58-1.31,1.02-2.75,1.89-3.84,2.28-2.87,4.63-5.71,7.18-8.34,2.61-2.7,5.48-5.14,8.24-7.69.35-.32.74-.6,1.14-.87.11-.07.39-.1.44-.03.13.17.29.49.22.59-.44.65-.87,1.33-1.43,1.87-3.41,3.26-6.9,6.43-10.27,9.73-1.69,1.66-3.17,3.54-4.58,5.5,1.26-.24,2.05-1.13,2.95-1.84,3.62-2.89,7.09-6.01,10.91-8.6,2.79-1.89,5.01-4.04,6.74-6.93,1.88-3.15,4.14-6.07,6.28-9.06.95-1.33,1.51-2.68,1.65-4.38.13-1.71.85-3.38,1.37-5.05.48-1.56.33-1.84-1.15-1.46-5.7,1.45-11.48,2.08-17.35,2.01-1.15-.01-1.94.5-2.72,1.25-1.04.99-2.09,2-3.3,2.76-2.89,1.81-5.26.92-6.4-2.32-.99-2.81-.39-5.52.64-8.18,2.09-5.37,5.45-9.94,9.24-14.18,2.28-2.55,4.92-4.78,7.41-7.14.35-.33.73-.65,1.14-.87.6-.32,1.39-.99,1.86-.15.22.4-.27,1.31-.61,1.88-.22.38-.75.58-1.14.85-6.58,4.53-11.79,10.3-15.34,17.45-.83,1.67-1.11,3.64-1.4,5.51-.14.89.11,1.93.45,2.8.93,2.38,3.71,2.81,5.46.91.2-.21.38-.56.36-.83-.13-1.53.81-1.82,2.04-2.07.7-.14,1.44-.66,1.9-1.23,2.07-2.56,3.66-5.41,4.96-8.45,2.55-5.96,5.57-11.68,8.78-17.31.87-1.52,1.54-3.16,2.19-4.79.4-1,.14-1.33-.91-1.37-1.04-.04-2.09.09-3.11-.02-.45-.05-1.17-.5-1.19-.81-.02-.44.38-1.06.78-1.32.42-.28,1.06-.27,1.61-.31.88-.07,1.76-.06,2.63-.13.86-.07,1.49-.45,1.76-1.36.48-1.61,1.02-3.19,1.54-4.79.24-.74.03-1.11-.79-.91-.54.13-1.07.34-1.61.49-3.91,1.04-7.6.28-11.19-1.36-.65-.3-1.13-.66-.81-1.46.31-.77.9-.78,1.59-.56,1.14.38,2.26.81,3.42,1.09,3.63.89,7.2.67,10.46-1.23,2.48-1.44,4.81-3.15,7.19-4.75.73-.49,1.38-1.11,2.13-1.55.41-.24.97-.22,1.47-.32-.07.52,0,1.13-.24,1.55-1.86,3.29-3.35,6.74-4.01,10.47-.36,2.02-.36,4.12-.43,6.18-.02.61.21,1.26.45,1.85.45,1.14.64,1.16,1.84.51.22-.12.53-.06.79-.09,0,.23.09.52-.02.67-.62.93-1.25,1.85-1.95,2.72-.53.66-1.17.43-1.64-.11-1.04-1.19-1.51-2.62-1.54-4.19-.03-1.25,0-2.49,0-3.75Zm22.13,6.58c-3.13,2.31-5.75,4.71-7.99,7.5-2.99,3.73-5.94,7.5-8.86,11.28-1.31,1.7-2.53,3.48-3.76,5.25-.14.2-.07.55-.1.83.23-.02.47.01.67-.07.51-.22,1.01-.48,1.49-.75,3.38-1.9,6.26-4.4,8.68-7.42,3.87-4.81,6.8-10.2,9.73-15.6.1-.18.06-.43.13-1.02Zm-21.36-12.23c-.36-.43-.77-1.26-1.44-1.64-.79-.44-1.58.15-2,.86-.64,1.09-1.27,2.22-1.67,3.41-.3.89-1.25,2.13-.12,2.74.55.3,1.86-.54,2.68-1.08,1.37-.9,2.28-2.2,2.56-4.31Zm-11.85,60.51c.36-.14.52-.18.66-.26,1.82-1,3.66-1.97,5.44-3.04.38-.23.87-1.03.76-1.2-.64-.96-1.45-1.82-2.22-2.68-.03-.03-.44.19-.56.36-1.42,2.02-2.83,4.05-4.21,6.1-.09.14.08.45.14.72Zm14.39-67c-.76.76-1.36,1.26-1.81,1.86-.12.16.16.77.41.97.15.12.75-.05.9-.26.36-.5.61-1.1.83-1.68.06-.16-.14-.41-.34-.89Z"/>
    <path class="cls-1" d="m69.7,237.31c-2.1-2.25-1.78-3.47.92-4.44.82-.29,1.69-.48,2.55-.63.21-.04.63.24.69.45.06.24-.08.68-.29.82-.57.38-1.21.64-2.06,1.07,1.08.71,2.05.75,2.95.59,3.3-.57,6.6-1.19,9.87-1.92.57-.13,1.24-.8,1.46-1.37,2.05-5.34,5.43-9.74,9.43-13.73,1.59-1.58,3.19-3.14,4.86-4.63,1.68-1.5,3.11-3.12,4.29-5.09,1-1.66,2.51-3.11,4.05-4.34,3.54-2.84,7.79-4.35,12.03-5.82.73-.25,1.17-.17,1.77.58,2.22,2.76,2,5.62.66,8.56-1.44,3.15-3.35,6.02-5.91,8.37-2.23,2.05-4.57,3.99-6.88,5.96-1.34,1.14-1.39,1.24-.45,2.76.63,1.02,1.35,1.99,1.96,3.02.96,1.6.9,2.84-.44,4.09-.85.79-1.93,1.45-3.02,1.85-3.3,1.22-6.61.82-9.87-.29-.44-.15-.96-.36-1.23-.71-1.07-1.39-2.18-1.16-3.52-.4-1.46.82-3.05,1.41-4.54,2.16-1.05.53-1.23,1.09-.4,1.83.92.82,2.06,1.47,3.21,1.93,1.25.49,2.65.61,3.93,1.03.4.13.97.84.89,1.11-.15.53-.64,1.21-1.12,1.35-3.14.91-8.33-1.47-9.72-4.49-.52-1.14-1.15-1.31-2.25-1.04-2.56.62-5.14,1.14-8.17,1.81,2.27.42,4.01.08,5.74-.35.54-.14,1.07-.35,1.62-.44.76-.12,1.05.27.81.99-.41,1.24-1.34,1.91-2.55,2.33-4.13,1.44-8.32,1.54-12.51.41-1.37-.37-2.74-.91-3.97-1.62-2.92-1.68-3.97-4.79-2.54-7.83.91-1.94,2.04-3.82,3.33-5.53,4.39-5.79,8.9-11.5,13.36-17.24.24-.31.42-.69.68-.99.79-.92.53-1.68-.2-2.52-1.66-1.94-3.29-3.92-4.84-5.95-.39-.51-.67-1.32-.58-1.92.19-1.21,1.22-1.46,2.05-.53,1.33,1.49,2.56,3.07,3.89,4.56,2.35,2.66,2.44,2.7,4.54-.2,2.3-3.16,4.45-6.44,6.67-9.66.62-.9.61-1.53-.26-2.46-.94-1-1.49-2.4-2.04-3.7-.21-.51,0-1.23.13-1.83.05-.24.42-.54.67-.56.22-.02.58.25.7.48.45.84.72,1.8,1.26,2.57,1.08,1.53,2.15,1.48,3.1-.09.96-1.57,1.82-3.2,2.76-4.78.14-.23.48-.33.73-.49.05.34.26.76.13,1.01-.64,1.28-1.4,2.51-2.06,3.79-.19.38-.21.85-.31,1.27.45-.1.98-.07,1.33-.32,1.9-1.32,3.77-2.68,5.61-4.07.83-.62,1.56-1.37,2.36-2.03.15-.12.6-.17.63-.11.13.24.28.64.17.81-.42.67-.88,1.32-1.43,1.88-1.4,1.42-2.94,2.71-4.27,4.2-2.41,2.7-3.76,5.76-2.56,9.46.17.53.34,1.07.61,1.56.87,1.6,1.79,1.77,3.31.76.48-.32,1.04-.53,1.56-.79-.24.62-.38,1.32-.75,1.85-.94,1.32-2.03,2.64-3.9,2.23-1.83-.4-2.33-2.02-2.79-3.59-.78-2.65-.43-5.21.57-7.74.16-.41.14-.88.21-1.33-.46.06-.91.12-1.37.19-1.35.21-2.22.95-2.98,2.13-2.48,3.82-5.08,7.55-7.67,11.3-1.11,1.61-1.17,1.99.33,3.17,2.85,2.26,5.87,4.17,9.73,4.09.46,0,.92.39,1.38.6-.24.48-.36,1.15-.75,1.42-1.3.92-2.82,1.03-4.36.75-2.59-.48-4.76-1.84-6.79-3.42-2.76-2.15-2.67-2.15-4.78.6-3.78,4.95-7.64,9.84-11.46,14.77-.93,1.2-1.88,2.39-2.74,3.63-2.52,3.61-.92,6.01,1.95,7.78.78.48,1.74.65,2.88,1.06Zm52.28-31.67c-.08-.86-.1-1.18-.14-1.49-.34-2.23-1.55-2.98-3.74-2.32-.46.14-.9.33-1.33.53-4.59,2.12-8.01,5.76-11.65,9.08-.47.43-.73,1.52-.55,2.16.57,2.06,1.29,4.1,2.16,6.05.64,1.43,1.1,1.51,2.39.5,2.58-2.01,5.18-4.01,7.54-6.27,1.65-1.58,3.02-3.49,4.31-5.39.64-.94.8-2.2,1.03-2.85Zm-19.8,8.7c-.64.32-.81.37-.92.47-2,1.83-4.01,3.65-5.97,5.52-.2.19-.25.84-.09,1.03,1.17,1.33,1.51,2.95,1.87,4.6.26,1.2.67,1.43,1.66.87,1.88-1.05,3.71-2.19,5.49-3.39.35-.23.66-.99.54-1.37-.72-2.35-1.57-4.67-2.38-6.99-.1-.3-.17-.62-.21-.73Zm-8.91,7.83c-1.17,1.47-2.37,2.82-3.38,4.32-.8,1.18-1.4,2.5-2,3.8-.18.39-.08.91-.1,1.37.44.01.95.16,1.32,0,1.62-.66,3.21-1.4,4.81-2.14.83-.38,1.18-1.07.97-1.96-.24-1-.55-1.99-.84-2.98-.22-.73-.46-1.44-.77-2.42Zm11.17,8.63c1.54-.09,2.59-.07,3.61-.24,1.14-.19,1.37-.67.82-1.68-.61-1.12-1.32-2.19-2-3.27-.48-.77-1.09-.8-1.83-.33-1.62,1.03-3.26,2.03-4.87,3.07-.31.2-.77.72-.7.83.22.37.59.81.98.9,1.47.34,2.97.54,3.98.72Z"/>
    <path class="cls-1" d="m309.91,138.84c.6-.38,1.18-.81,1.81-1.14,1.49-.76,2.96-1.6,4.53-2.16,3.15-1.11,5.09.01,5.38,3.31.21,2.36.07,4.79-.23,7.16-.32,2.53-1.02,5.01-1.51,7.52-.07.36.06.76.1,1.15.43-.08.91-.07,1.29-.26,2.06-1.02,4.12-2.06,6.14-3.16.46-.25.83-.73,1.15-1.17,2.86-3.95,5.87-7.79,8.5-11.89,4.31-6.72,8.36-13.61,12.49-20.44.46-.76,1.22-1.48.5-2.61-.18-.28.27-1.35.68-1.57,2.59-1.39,3.65-4.02,4.99-6.3,4.99-8.49,10.44-16.64,16.61-24.32.85-1.06,1.56-2.24,2.49-3.21,2.16-2.26,4.55-1.96,6.03.8,1.57,2.92,1.7,5.94.27,8.99-1.24,2.65-3.12,4.81-5.15,6.87-6.06,6.11-12.81,11.33-20.18,15.75-1.84,1.11-3.21,2.49-4.27,4.36-3.27,5.77-6.58,11.52-10.05,17.17-5.36,8.72-11.4,16.97-17.72,25.02-.49.63-.9,1.35-1.5,1.87-2.17,1.88-2.11,4-1.04,6.44.67,1.52,1.13,3.17,1.46,4.8.16.79-.05,1.73-.35,2.5-.3.78-1.04.7-1.35-.12-.65-1.72-1.2-3.47-1.81-5.21-.24-.68-.47-1.36-.75-2.02-.25-.57-.7-.64-1.15-.25-.36.31-.67.68-.99,1.04-4.96,5.43-9.91,10.86-14.89,16.27-1.9,2.06-3.86,4.06-6.43,5.32-3.63,1.78-5.28,1-6.27-2.9-.58-2.3-.11-4.45.82-6.53,1.42-3.17,3.45-5.94,5.96-8.34,5.93-5.69,12.62-10.31,19.93-14.02,1.5-.76,2.42-1.63,2.69-3.31.51-3.23,1.25-6.43,1.67-9.67.19-1.47,0-3.04-.28-4.51-.31-1.59-1.2-2.06-2.83-1.87-.47.06-.96.15-1.4.33-4.62,1.85-8.68,4.42-11.24,8.88-2.4,4.18-5.19,8.05-9.05,11.03-.22.17-.53.22-.8.32-.05-.29-.23-.66-.11-.87.86-1.62,1.63-3.31,2.71-4.79,1.78-2.45,3.61-4.9,5.71-7.08,2.7-2.8,4.57-6.14,6.75-9.28,5.94-8.53,12.18-16.82,19.25-24.46.11-.12.19-.27.32-.36.56-.35,1.12-.68,1.69-1.02.42.9-.4,1.3-.81,1.8-4.59,5.64-9.26,11.2-13.79,16.89-2.28,2.86-4.3,5.92-6.43,8.89.14.12.28.24.42.37Zm-19.28,43.69c.12.53.22,1.42.51,2.23.78,2.22,1.64,2.57,3.81,1.77,2.23-.83,4-2.31,5.6-4,2.13-2.26,4.18-4.6,6.28-6.89,3.07-3.35,6.16-6.68,9.21-10.05.73-.8,1.53-1.56,1.42-2.88-.25-3.02-.51-3.27-3.24-1.9-6.68,3.34-12.63,7.75-18.19,12.69-1.19,1.06-2.27,2.24-3.31,3.44-1.29,1.49-1.97,3.26-2.09,5.58Zm90.09-96.14c-.52-1.31-.87-2.73-1.6-3.9-1.29-2.05-2.73-2.1-4.48-.38-.34.33-.65.7-.95,1.07-5.62,7.05-10.85,14.37-15.43,22.14-.69,1.17-1.38,2.34-2.02,3.53-.12.22,0,.56,0,.85.22-.05.49-.03.67-.15,2-1.32,4.01-2.61,5.96-3.99,5.75-4.07,11.08-8.61,15.59-14.06,1.21-1.47,1.96-3.08,2.26-5.12Zm-56.56,69.44c-.14-.15-.28-.31-.43-.46-1.23.85-2.52,1.62-3.64,2.59-.45.39-.56,1.21-.71,1.86-.05.21.23.64.44.71.21.07.63-.09.8-.29,1.2-1.45,2.36-2.94,3.54-4.41Z"/>
    <path class="cls-1" d="m296.39,91.65c-.69-.11-1.79-.09-2.72-.47-1.51-.6-2.41-.12-3.19,1.14-.31.51-.82.89-1.24,1.33.12-.65.16-1.32.38-1.93.32-.87,1.03-1.6.17-2.62-.88-1.05-1.87-1.05-3.02-.7-2.71.83-5.49,1.1-8.3.87-1.41-.12-3.02-.15-3.65-1.78-.58-1.53.25-2.78,1.17-3.93,1.63-2.03,3.62-3.62,6.01-4.64,1.14-.49,2.24-.89,2.06-2.48-.03-.29.39-.62.6-.93.29.22.73.39.83.68.39,1.07,1.11,1.19,2.1,1,3.78-.73,7.58-1.26,11.43-.61,1.05.18,1.58-.5,2.22-1.11,3.54-3.34,6.98-6.81,10.72-9.92,2.49-2.08,5.37-3.72,8.19-5.37,1.05-.61,2.42-.88,3.65-.92,1.96-.06,3.06,1.21,2.58,3.11-.44,1.75-1.17,3.49-2.13,5.02-1.99,3.18-4.98,5.37-8.18,7.23-2.76,1.61-5.59,3.1-8.38,4.66-1.65.92-1.64.94-1.03,2.73,1.04,3.05-.24,6.15-3.27,7.93-2.06,1.21-4.35,1.52-7.02,1.72Zm28.08-27.68c.17-1.47-.34-2.13-1.71-2.12-.86,0-1.8.1-2.57.46-1.58.74-3.24,1.48-4.57,2.57-4.25,3.51-8.37,7.17-12.53,10.8-.5.44-1.42.96-.85,1.7.54.71,1.42,1.35,2.5,1.03.46-.13.89-.36,1.31-.59,3.51-1.91,7.07-3.75,10.5-5.79,1.91-1.14,3.67-2.55,5.4-3.97,1.32-1.08,2.12-2.58,2.52-4.1Zm-26.55,24.95c1.1-.19,2.45-.35,3.75-.67.83-.21,1.68-.55,2.39-1.03,1.26-.86,1.35-2.04.44-3.56-.93-1.56-1.51-1.78-3.09-1.07-1.88.85-3.76,1.72-5.61,2.65-.55.28-1.09.68-1.47,1.16-.92,1.15-.67,1.92.73,2.22.85.18,1.74.19,2.86.29Zm-.45-8.87c-.58-.36-.94-.77-1.29-.77-1.9.02-3.82.05-5.71.26-1.06.11-2.08.57-3.12.87.49,1.15.92,2.32,1.48,3.43.47.92,1.31,1.1,2.25.75,1.12-.42,2.38-.64,3.31-1.32,1.12-.81,1.95-2.01,3.08-3.22Zm-16.16,6.54s.02-.09.02-.14c.79-.06,1.59-.11,2.38-.19,3.24-.33,3.31-.43,2.13-3.36-.21-.51-.34-1.1-.68-1.51-.25-.31-.84-.62-1.17-.53-2.41.63-4.63,1.7-6.53,3.32-.8.68-.65,1.51.36,1.81,1.12.34,2.32.4,3.49.59Zm17.56-5.21c.48-.3.86-.54,1.24-.78-.12-.16-.3-.48-.35-.46-.39.15-.77.35-1.13.59-.04.03.12.35.23.66Z"/>
    <path class="cls-1" d="m234.49,250.41c.12-.93.17-1.9.41-2.8.1-.36.64-.6.99-.89.19.33.49.64.55.99.15.86.16,1.75.3,2.62.22,1.32.52,1.51,1.75,1.04,1.79-.68,3.52-1.56,5.34-2.13,2.89-.91,5.82-1.69,8.77-2.4.81-.19,1.76-.06,2.59.15,1.41.35,1.91,1.35,1.51,2.74-.13.45-.34.9-.6,1.3-2.26,3.58-5.05,6.65-8.99,8.36-1.58.68-3.35,1.07-5.07,1.23-2.67.26-4.8-.81-6.19-3.24-.81-1.42-.96-1.47-2.44-.63-5.6,3.15-10.88,6.67-14.82,11.93-2.49,3.32-5.3,6.4-7.16,10.16-.17.34-.47.65-.78.87-.1.07-.65-.27-.63-.31.26-.83.47-1.7.89-2.45,2.28-4.14,4.94-8.01,8.06-11.58,1.2-1.38,2.29-2.87,3.27-4.41,2.87-4.52,5.68-9.07,8.46-13.64,1.55-2.55,2.53-5.32,2.97-8.29.17-1.18.48-2.34.77-3.5.05-.19.32-.31.49-.47.15.24.43.47.43.71-.03,3.84-1.04,7.43-2.95,10.74-1.84,3.18-3.82,6.28-5.68,9.44-.46.79-.72,1.7-1.07,2.55.8-.42,1.63-.79,2.4-1.25,1.44-.87,2.78-1.9,4.27-2.66,1.77-.9,2.85-2.04,2.18-4.18Zm8.57,6.92c3.82-.1,6.97-1.65,9.61-4.26.63-.62,1.49-1.72,1.31-2.31-.37-1.18-1.76-.83-2.73-.68-4.29.64-8.28,2.25-12.21,3.99-.9.4-.84,1.01-.28,1.71,1.14,1.4,2.75,1.43,4.3,1.56Z"/>
    <path class="cls-1" d="m188.17,218.46c.89.07,1.61.07,2.32.18.97.16,2.01.42,1.97,1.68-.05,1.6,1.11,1.98,2.22,2.42,2.84,1.13,5.06,3.03,6.84,5.46,2.06,2.82,1.29,5.33-2.08,6.44-3.29,1.07-6.49.61-9.45-1.19-1.62-.98-1.53-1.02-2.48.39-3.25,4.84-6.5,9.68-9.8,14.48-3.08,4.48-6.22,8.91-9.34,13.35-.74,1.04-1.5,2.07-2.3,3.06-.22.28-.63.41-.95.6-.02-.43-.18-.9-.04-1.27.21-.58.58-1.13.95-1.64,6.17-8.65,12.39-17.26,18.49-25.96,2.1-3,4-6.18,5.07-9.75.6-2,.48-2.43-1.65-2.71-3.08-.4-6.2-.56-9.31-.8-.96-.07-1.92,0-2.88-.09-1.19-.12-1.55-.78-.92-1.79.31-.49.88-1.04,1.4-1.13,4.02-.65,8.06-1.19,11.94-1.75Zm8.36,14.3c.03-.09.07-.18.1-.28.55-.05,1.11-.07,1.66-.16,1.95-.31,2.14-.83.88-2.45-1.55-2-3.62-3.3-5.88-4.34-1.38-.63-1.71-.43-2.15,1.12-.18.61-.36,1.21-.56,1.81-.46,1.33-.39,1.98.85,2.55,1.63.74,3.4,1.18,5.11,1.75Z"/>
    <path class="cls-1" d="m312.31,115.95c1.05.11,2.48.2,3.88.42.63.1,1.26.49,1.11,1.3-.15.78-.62,1.2-1.51,1.2-2.07.01-4.18-.12-6.19.25-6.01,1.11-12.33-6.22-9.49-12.87,1.96-4.59,5-8.15,9.03-10.91,5-3.43,10.52-5.75,16.49-6.85,1.62-.3,3.36-.36,5-.14,3.95.53,5.69,3.64,4.26,7.39-.76,2-1.94,3.72-3.91,4.67-1.58.76-3.2,1.51-4.89,1.91-2.71.64-5.49,1.01-8.24,1.45-.54.09-1.12.05-1.67-.04-.75-.13-1.07-.94-.5-1.4.51-.41,1.24-.62,1.91-.75,2.9-.55,5.86-.87,8.71-1.59,1.91-.48,3.72-1.42,5.5-2.3,1.44-.71,2.02-1.99,1.66-3.61-.35-1.59-1.39-2.64-2.92-2.79-1.89-.18-3.87-.27-5.72.08-6.94,1.33-13.25,4.13-18.76,8.61-1.56,1.27-2.86,2.77-3.8,4.58-1.12,2.17-1.08,4.33.05,6.44,2.06,3.81,5.07,5.92,10,4.94Z"/>
    <path class="cls-1" d="m133.73,233.26c1.09-.54,1.77-.88,2.47-1.21,3.89-1.85,7.73-3.85,11.71-5.48,1.8-.74,3.88-.91,5.85-1.06,2.14-.16,4.09.68,5.78,1.98,1.51,1.16,1.36,3.87-.25,4.92-.14.09-.69-.1-.71-.22-.49-2.54-2.62-2.82-4.54-3.19-2.4-.46-4.79-.08-7.08.77-5.64,2.1-10.91,4.97-16.02,8.12-.98.6-1.63,1.73-2.47,2.57-1.12,1.13-2.23,2.27-3.45,3.29-.32.27-1.02.09-1.55.12.02-.52-.1-1.08.07-1.54.62-1.71,1.83-3.05,3.29-4.03,3.5-2.36,5.84-5.65,7.74-9.28,4-7.64,7.93-15.32,11.9-22.98,1.29-2.48,2.61-4.95,3.94-7.41.13-.24.46-.38.69-.57.05.34.18.69.12,1.01-.07.38-.29.74-.47,1.1-2.15,4.28-4.26,8.59-6.48,12.84-3.22,6.16-6.52,12.28-9.77,18.42-.25.46-.42.97-.79,1.86Z"/>
    <path class="cls-1" d="m288.16,255.04c-1.04-.15-1.93-.17-2.76-.43-2.52-.79-3.48-2.79-2.51-5.26.4-1.03,1.05-1.97,1.54-2.97.37-.74-.01-1.1-.73-.98-.86.15-1.7.41-2.53.68-.64.21-.99.59-.36,1.19.47.45.71,1.02.14,1.41-.36.25-1.12.29-1.49.07-.7-.43-1.6-1.01-1.78-1.7-.26-.98.55-1.84,1.52-2.16,2.49-.82,4.98-1.7,7.53-2.22,1.81-.37,3.54-.77,5.25-1.49,2.19-.93,4.49-1.64,6.78-2.31.57-.17,1.29.2,1.95.32-.21.65-.28,1.41-.66,1.94-.51.69-1.26,1.21-1.91,1.8-.55.49-.54.93.1,1.33.2.13.41.25.6.4,1.62,1.31,1.76,2.21.84,4.16-1.41,3-3.96,4.52-6.96,5.4-1.52.44-3.12.58-4.56.83Zm.97-3.14c3-.15,5.66-.61,7.97-2.24,1.42-1,1.44-1.85-.1-2.67-1.32-.7-2.81-1.11-4.24-1.58-2.76-.9-4.98.17-7.02,1.96-.77.68-1.3,1.42-1.01,2.5.31,1.14,1.13,1.71,2.25,1.85.79.1,1.59.14,2.14.18Zm6.29-8.89s.09-.09.13-.14c-.07-.05-.15-.1-.22-.16-.02.06-.06.13-.04.18.01.05.09.08.14.11Z"/>
    <path class="cls-1" d="m272.87,694.21c-1.05.62-1.61,1.03-2.23,1.3-1.96.87-3.93,1.73-5.94,2.49-.65.24-1.43.25-2.13.19-2.32-.18-3.29-1.47-2.74-3.73,1.06-4.38,3.34-8.11,6.46-11.31,5.86-6.01,13.13-9.56,21.06-11.93.3-.09.63-.15.94-.16.68-.03.81.4.68.94-.23.99-1.06,1.31-1.9,1.64-2.53.99-5.09,1.92-7.55,3.06-4.15,1.92-8.07,4.23-11.61,7.15-2.32,1.91-4.23,4.14-5.35,6.96-.47,1.18-1.11,2.49-.09,3.61.97,1.06,2.37.82,3.63.57,2.42-.46,4.55-1.66,6.34-3.25,3.17-2.8,6.39-5.6,9.18-8.75,5.88-6.64,11.5-13.51,16.33-20.97,2.43-3.76,4.52-7.73,6.73-11.62.31-.54.55-1.19.59-1.8.17-2.2,1.13-4,2.7-5.46,1.25-1.16,1.58-2.3,1.01-4.01-1.13-3.4-1.05-3.55-4.6-3.3-1.64.12-3.25.69-4.88,1.04-.29.06-.6.02-.89.03,0-.37-.17-.9.01-1.09.71-.73,1.44-1.5,2.32-1.98,1.72-.94,3.65-1.09,5.59-1.06,1.66.03,1.83-.24.97-1.53-2.63-3.96-4.8-8.11-5.82-12.81-.41-1.89-1.58-3.28-3.04-4.47-1.11-.91-2.28-1.76-3.3-2.76-3.26-3.21-4.62-7.01-3.36-11.57.86-3.09,2.56-5.7,4.65-8.02,5.65-6.24,12.2-11.3,20.03-14.53,5.34-2.2,10.88-3.27,16.64-1.84,1.01.25,2.01.54,2.96.96,3.31,1.43,4.8,4.27,4.04,7.78-.27,1.24-.81,2.42-1.26,3.61-.35.92-1.17,1.72-.39,2.87.15.23-.29,1.04-.64,1.39-2.68,2.62-5.53,5.08-8.09,7.81-2.34,2.5-4.64,5.1-6.52,7.95-3.86,5.87-7.55,11.86-11.08,17.94-2.58,4.45-2.14,4.43,1.49,7.49.43.36.87.71,1.32,1.04.77.57,1.54.71,2.44.19,6.71-3.88,14.19-5.26,21.66-6.69,3.3-.63,6.57-1.4,9.86-2.05.44-.09.96.18,1.44.28-.28.52-.44,1.28-.87,1.51-.9.47-1.94.73-2.95.96-4.6,1.03-9.25,1.89-13.82,3.06-3.94,1.01-7.8,2.33-11.69,3.55-1.66.52-2.83,1.49-3.52,3.26-1.17,2.98-3.52,5.09-5.96,7.07-.2.16-.57.12-.86.17.04-.28.06-.57.14-.83.04-.14.2-.24.3-.36.3-.37.73-.84.06-1.14-.3-.13-.83.15-1.2.35-.26.14-.42.47-.62.72-2.01,2.59-1.92,3.14.89,4.69,4.09,2.26,8.33,4.04,13.1,4.31,1.58.09,3.15.52,4.7.91.64.16,1.49.45,1.28,1.43-.2.93-.81,1.23-1.78,1.13-2.7-.28-5.42-.41-8.12-.7-3.74-.39-7.03-2.05-10.3-3.76-3.63-1.9-3.01-2.66-5.2,1.47-7.21,13.6-16.73,25.48-27.14,36.71-1.68,1.81-2.71,3.92-3.43,6.23-.31,1.02-.21,1.84.66,2.57.85.72,1.64,1.53,2.38,2.36.88.99,1.98,1.26,3.23,1.25,1.88-.02,3.39-.6,4.34-2.4.55-1.05,1.36-1.97,2.14-2.87.41-.47.95-.87,1.5-1.17,1.31-.71,2.12-.27,2.35,1.24.22,1.44-.15,2.81-1.23,3.72-1.39,1.17-2.88,2.3-4.51,3.07-1.35.64-2.46,1.34-3.29,2.6-2.21,3.33-4.57,6.56-6.76,9.89-4.76,7.25-10.37,13.79-16.32,20.05-2.36,2.48-4.96,4.75-7.53,7.03-1.01.89-2.18,1.65-3.39,2.23-.82.39-1.85.51-2.77.48-.92-.03-1.43-.68-1.19-1.67.13-.54.3-1.08.55-1.58,5.85-11.77,14.43-20.61,27.01-25.18.85-.31,1.74-.9,2.26-1.62,2.06-2.85,3.98-5.8,5.94-8.71.27-.4.52-.81.73-1.24.24-.51.18-1.03-.47-1.07-3.58-.25-5.21-3.13-7.34-5.34-.72-.74-.69-1.55-.32-2.43.42-1.01.8-2.04,1.39-3.54Zm45.97-89.54c-1-.1-1.48-.13-1.95-.19-4.23-.5-8.67-4.59-5.93-10.1,1.09-2.19,2.38-4.34,3.88-6.27,2.05-2.64,4.42-5.04,6.58-7.6.58-.68.91-1.57,1.35-2.36-.92.11-1.88.1-2.75.36-9.39,2.8-16.99,8.34-23.49,15.51-.84.93-1.43,2.11-2.05,3.23-1.43,2.58-1.32,5.19-.06,7.81,1.06,2.22,2.61,4.09,4.62,5.41,3,1.98,4.63,4.71,5.43,8.12.72,3.06,2.06,5.88,3.86,8.45.91,1.31,1.12,1.26,1.94-.1,3.67-6.08,7.33-12.16,11.03-18.22.83-1.36,1.82-2.62,2.7-3.95.2-.31.24-.72.36-1.09-.37,0-.75-.07-1.11,0-1.64.34-3.26.72-4.41.98Zm.89-2.77c4.21-.21,7.54-1.96,10.43-4.66,1.17-1.09,2.27-2.25,3.4-3.38,1.95-1.96,3.37-4.27,4.38-6.82,1.34-3.41.38-5.92-2.73-7.7-2.14-1.23-4.5-1.62-6.9-1.84-2.12-.2-4.26-.3-5.08,2.37-.07.21-.28.39-.43.57-2.32,2.75-4.72,5.43-6.92,8.26-1.26,1.63-2.37,3.42-3.24,5.29-1.13,2.4-.54,4.23,1.48,5.98,1.67,1.45,3.71,1.76,5.63,1.94Zm-50.88,120.18c-.26-.16-.33-.24-.38-.23-.23.05-.47.09-.68.19-5.74,2.88-11.06,6.35-15.53,11.01-2.55,2.65-4.8,5.54-6.43,8.86-.18.37-.31,1.05-.11,1.27.23.26.95.36,1.28.19,1.4-.73,2.86-1.43,4.09-2.41,4.89-3.87,9.16-8.39,13.14-13.18,1.56-1.88,3.08-3.78,4.63-5.7Zm17.2-20.73c.87-.05,2.07-.91,2.12-1.6.02-.24-.28-.49-.43-.74-.63.39-1.26.77-1.87,1.18-.12.08-.25.24-.27.37-.04.2-.03.44.04.63.04.09.27.11.41.16Zm31.29-63.61c-.33-.17-.63-.37-.67-.33-.25.25-.45.55-.61.86-.02.04.42.4.44.37.27-.24.5-.52.84-.9Zm-5.03-.02c-.23-.09-.44-.21-.66-.24-.08-.01-.29.22-.27.26.09.19.24.35.37.52.1-.1.2-.19.56-.54Z"/>
    <path class="cls-1" d="m267.56,639.89c.06.73.11,1.42.17,2.11.15,1.98-.35,3.8-1.39,5.48-.1.16-.39.21-.59.31-.09-.2-.27-.39-.26-.59.01-.31.13-.62.22-.93.52-1.87.3-3.68-.62-5.35-.85-1.53-1.81-3.02-2.86-4.41-1.55-2.04-3.27-3.93-4.84-5.96-1.54-1.99-2.69-4.19-2.59-6.81.03-.9-.41-1.46-1-2.06-2.3-2.33-4.6-4.67-6.8-7.09-.81-.89-1.5-1.01-2.49-.44-2.28,1.32-4.54,2.72-6.91,3.86-2.22,1.06-4.55,1.94-6.9,2.69-1.75.56-3.47.12-5.05-.86-1.3-.8-1.91-1.92-1.75-3.41.12-1.11.23-2.24.53-3.31,1.06-3.77,2.14-7.53,3.35-11.25.4-1.24,1.2-2.36,1.82-3.53.14.06.29.12.43.18-.11.4-.2.8-.32,1.2-1.15,3.83-2.3,7.65-3.44,11.48-.18.61-.27,1.25-.36,1.88-.46,3.24.93,4.95,4.24,4.73,1.87-.12,3.8-.65,5.53-1.39,2.71-1.16,5.29-2.65,7.92-4,.67-.34,1.27-.75,1.01-1.66-.26-.9-.68-1.69-1.75-1.68-1.68,0-3.36.08-5.03.16-1.76.08-3.51.25-5.27.28-1.01.01-1.3-.45-.99-1.39.17-.52.4-1.16.8-1.42.35-.22.99.09,1.5.06,2.79-.13,5.59-.26,8.38-.45.96-.06,1.33-.79,1.43-1.65.74-6.06,4.59-9.48,9.95-11.46,6.83-2.53,13.62-2.4,20.25.83.57.28,1.12.63,1.61,1.03.93.76,1.35,1.76,1.18,2.98-.41,2.95-3.34,5.13-6.27,4.64-2.31-.38-4.11-1.7-5.73-3.29-.74-.72-.69-1.6-.29-2.44.22-.48.62-.87.94-1.3.22.38.46.75.67,1.13,1.16,2.12,5.33,3.78,7.57,2.99,1.14-.4,1.39-1.18.46-1.93-.98-.79-2.09-1.54-3.26-1.96-6.63-2.36-13.21-2.05-19.6.89-1.28.59-2.43,1.53-3.52,2.46-1.85,1.56-2.03,3.7-1.81,5.93.13,1.29,1.17,1.31,2.09,1.56,2.85.76,5.76,1.38,8.51,2.41,2.76,1.04,5.35,2.51,8,3.81,2.79,1.37,4.99.74,6.59-2,1.69-2.9,3.33-5.83,5-8.75.23-.4.49-.78,1.13-.97-.56,1.1-1.1,2.21-1.68,3.3-.91,1.69-1.88,3.35-2.77,5.05-.2.38-.18.87-.27,1.3.44-.12.94-.14,1.32-.36,3.29-1.82,6.55-3.69,9.83-5.52,1.12-.62,2.26-1.2,3.4-1.76.18-.09.64,0,.64.06.04.28.09.68-.07.84-.44.44-.95.84-1.5,1.15-4.52,2.57-9.04,5.13-13.57,7.68-.28.16-.56.31-.83.48-2.19,1.39-2.34,2.34-.7,4.36,2.37,2.91,2.39,6.2.13,8.95-1.39,1.69-3.12,2.43-5.3,2.08-.55-.09-1.12-.14-1.64-.33-.9-.33-1.52-.14-2.01.69-.52.87-.9,1.65-.08,2.6,1.25,1.45,2.41,2.98,3.88,4.83,0-1.21-.07-2.11.04-2.98.03-.28.48-.57.81-.72.09-.04.53.34.6.59,1.8,6.28,7.11,8.44,12.43,10.58,1.09.44,1.91.05,2.82-.66,1.74-1.38,3.52-2.8,5.5-3.77,1.44-.71,3.22-.99,4.85-.98,2.39.02,4.35,1.96,4.67,4.11.31,2.13-1.08,4.36-3.43,5.17-3.35,1.15-6.78.9-10.2.3-.08-.01-.16-.04-.23-.05-3.12-.68-3.18-.66-4.28,1.44-1.21,2.31-.98,4.62.67,6.18.4.38.89.68,1.37.97.92.56.79,1.24.33,2.04-.46.79-1.05.83-1.83.53-2.52-.98-3.89-3-3.34-5.66.38-1.84,1.26-3.59,1.97-5.36.51-1.28.51-1.49-.75-1.99-3.69-1.45-7.05-3.39-9.78-6.34-.08-.09-.29-.07-.61-.13Zm-4.49-24.61c-.39-.33-.64-.65-.97-.79-3.21-1.4-6.4-2.82-9.65-4.11-1.17-.46-2.46-.65-3.72-.83-.93-.13-1.3.44-.7,1.12,2.42,2.74,4.91,5.42,7.43,8.06.22.23,1.04.26,1.25.05,1.54-1.51,3.48-2.2,5.45-2.87.28-.09.5-.34.91-.63Zm.03,8.61c.2-.14.52-.27.67-.5,1.03-1.6,2.09-3.18,3-4.84.56-1.01-.19-2.1-1.26-1.76-2.41.77-4.75,1.76-7.06,2.79-.9.4-.7,1.19.03,1.69,1.24.85,2.54,1.62,3.82,2.4.19.12.45.14.79.24Zm26.28,22.22c1.44-.21,3.2-.33,4.88-.73,1.4-.33,1.55-1.18.57-2.25-.96-1.05-2.18-1.56-3.62-1.53-2.59.05-4.73,1.24-6.75,2.69-.22.16-.47.57-.4.75.09.22.47.41.76.46,1.41.22,2.83.38,4.56.61Zm-17.92-23.35c-.13-1.51-1.11-2.74-2.38-3.77-.57-.47-1.06-.17-1.39.37-.58.95-1.13,1.93-1.67,2.9-1.53,2.77-1.07,3.56,2.12,3.7.08,0,.16,0,.24,0,1.77-.02,3.03-1.25,3.08-3.21Zm-13.51,2.41c.13,1.69.98,2.79,1.93,3.81.17.19.59.34.81.26.73-.25,1-1.71.36-2.17-.98-.71-2.06-1.28-3.1-1.9Z"/>
    <path class="cls-1" d="m173.33,611.51c-.33-.05-1.1-.02-1.73-.3-1.53-.67-2.71-.18-4,.67-4.71,3.08-9.78,5.05-15.54,4.86-3.74-.13-7.27-1-10.53-2.86-2.16-1.23-2.24-1.55-1.38-3.79,1.14-2.96,2.96-5.48,5.1-7.75.99-1.06,1.36-1.98.82-3.4-.65-1.7-.42-3.52.18-5.18,1.24-3.37,2.64-6.67,3.99-10,.09-.21.26-.4.44-.55.1-.08.32-.13.43-.07.11.05.24.26.21.37-.09.38-.22.76-.36,1.13-.92,2.3-1.93,4.56-2.74,6.9-.64,1.82-.94,3.74-.16,5.63.42,1.02.97,1.18,1.82.48.86-.71,1.65-1.51,2.45-2.29.63-.61,1.2-1.29,1.87-1.85.3-.25.78-.26,1.18-.38-.13.42-.17.9-.4,1.26-.29.47-.72.85-1.11,1.25-.88.92-1.81,1.81-2.66,2.76-.8.9-.67,1.4.43,1.72,2.21.66,4.44.49,6.62-.14.4-.12.77-.7.96-1.14.69-1.57.82-1.77,2.24-1.16,1.27.55,2.29.33,3.4-.28,1.75-.96,3.54-1.86,5.32-2.76.78-.4,1.57-.81,2.41-1.07.55-.17,1.6-.27,1.69-.07.39.84-.14,1.52-.91,1.92-.99.52-2.02.96-3.02,1.47-1,.51-2.01,1-2.96,1.59-1.17.72-1.17,1.15.07,1.8,1.77.92,3.57,1.78,5.4,2.59,1.09.48,1.6.22,2.01-.89.22-.59.26-1.27.56-1.81.18-.33.85-.74,1.04-.64.91.49,1.35-.07,1.81-.64,1.2-1.49,2.43-2.96,3.54-4.52.38-.53.41-1.3.62-1.96.17-.51.28-1.06.56-1.51,1.22-1.99.68-3.82-1.56-4.44-1.19-.33-2.52-.27-3.78-.18-1.1.08-2.18.47-3.28.66-.27.05-.58-.15-.87-.23.11-.35.12-.82.35-1.03,1.94-1.74,7.7-2.16,9.86-.78,1.02.65,1.58,1.59,1.64,2.78.03.71,0,1.45-.15,2.14-.21,1.02.04,1.75,1.04,2.11,1.65.59,3.3,1.22,4.99,1.66.48.13,1.14-.26,1.66-.53.33-.17.58-.54.82-.86,4.44-5.74,10.55-8.63,17.4-10.27,3.69-.88,7.42-1.34,11.17-.58,1.53.31,3.06.93,4.42,1.71,2.35,1.34,2.98,3.95,1.86,6.46-1.2,2.68-3.35,4.32-6.03,5.1-3.29.96-6.66,1.66-10.02,2.35-1.64.34-3.33.4-5,.58-.95.11-1.37.51-1.27,1.58.37,3.96,2.78,6.55,6.8,7.14.32.05.64.03.95.08.57.09,1.44-.35,1.59.56.16.95-.58,1.36-1.39,1.68-3.02,1.19-9.2-.64-9.69-5.33-.43-4.13-3-4.44-5.92-3.37-1.8.66-3.55,1.48-5.38,2.05-1.36.42-2.8.73-4.21.79-1.67.06-2.16-.78-1.43-2.33.5-1.07,1.25-2.03,1.89-3.04.55-.86.46-1.44-.6-1.82-1.35-.49-2.67-1.06-3.99-1.63-.81-.35-1.32-.07-1.83.6-2.11,2.8-4.25,5.58-6.41,8.34-1.13,1.44-1.15,1.48.15,2.7.35.33.72.64,1.05.98,1.26,1.27,1.27,2.2.05,3.47-.88.92-2.47,1.49-4.57,1.51Zm-19.35,2.18c6.34-.33,11.95-2.37,16.39-7.13.85-.91.89-1.24-.17-1.8-1.69-.89-3.51-1.55-5.16-2.5-1.66-.95-3.15-1.05-4.96-.28-3.7,1.58-7.51,2.09-11.36.27-.4-.19-1.19-.12-1.5.16-2.09,1.87-4,3.91-5.16,6.51-.51,1.16-.37,1.5.83,2.03,3.52,1.56,7.13,2.82,11.09,2.73Zm49.76-18.42c4.82-.22,9.6-.71,14.27-1.85,2.47-.6,4.91-1.45,7.21-2.51,2.38-1.1,2.58-2.94.61-4.68-.86-.76-2.02-1.34-3.13-1.64-1.45-.39-2.99-.58-4.5-.58-6.19,0-12.07,1.45-17.46,4.48-2.06,1.16-3.86,2.82-5.66,4.38-1.02.88-.81,1.51.54,1.67,2.69.33,5.41.5,8.11.74Zm-6.87,2.25c-1.62-.31-2.77-.58-3.93-.75-1.06-.15-2.63,1.05-2.74,2.13-.02.21.47.71.68.68,1.98-.19,3.86-.7,5.98-2.07Zm-22.8,9.46c-.33.31-.66.47-.72.7-.2.84.53.79,1,.87.23.04.5-.21.75-.32-.32-.38-.63-.76-1.04-1.25Z"/>
    <path class="cls-1" d="m143.26,803.31c-3.1.1-5.6-.38-8-1.35-.52-.21-1.03-.45-1.5-.75-1.12-.72-1.31-1.25-.84-2.14.64-1.19,1.38-.54,2.21-.21,1.7.67,3.4,1.41,5.18,1.78,1.88.4,3.68-1.99,3.07-3.82-.03-.08-.06-.15-.08-.22-1.63-4.44-3.72-5.83-8.41-5.16-2.27.33-4.48,1.14-6.7,1.79-2.38.7-4.69,1.65-7.11,2.15-1.76.37-3.66.37-5.46.19-1.87-.18-2.16-.96-1.3-2.62,1.24-2.39,3.13-4.22,5.15-5.94,1.58-1.34,3.14-2.72,4.68-4.11.35-.32.64-.72.89-1.12.11-.18.18-.56.09-.66-.2-.19-.55-.37-.8-.32-.78.14-1.59.29-2.31.61-2.34,1.03-4.65,2.14-6.97,3.2-.8.37-1.6.73-2.43,1.02-.23.08-.71-.04-.82-.22-.12-.21-.05-.67.11-.87.29-.36.68-.68,1.1-.88,3.11-1.46,6.21-2.95,9.37-4.3,1.16-.49,2.45-.72,3.71-.89,1.12-.15,1.59.4,1.06,1.43-.91,1.75-1.93,3.51-3.22,4.99-1.46,1.68-3.27,3.04-4.92,4.56-.71.65-1.43,1.29-2.06,2.01-.61.69-.42,1.25.52,1.24,1.98-.03,4.02-.05,5.92-.52,2.63-.64,5.13-1.81,7.75-2.53,2.3-.62,4.66-1.14,7.03-1.32,2.69-.2,4.77,1.15,6.05,3.55.6,1.12,1.06,2.32,1.58,3.49.23.51.4,1.05.64,1.55,1.51,3.2,2.39,3.69,5.8,2.79,2.94-.77,5.82-1.75,8.73-2.61,1.47-.43,2.42-1.34,3.21-2.66,2.22-3.72,4.86-7.13,8.11-10.03,3.04-2.71,6.46-4.68,10.51-5.46,2.33-.44,2.86-.04,3.05,2.33.29,3.47-1.12,6.21-3.64,8.47-2.67,2.4-5.84,3.91-9.12,5.2-2.6,1.02-5.26,1.9-7.88,2.89-2.45.92-3.23,2.85-1.83,5.06.75,1.18,1.91,2.12,2.99,3.04.33.28,1.14.35,1.54.15,3.3-1.62,6.6-3.25,9.79-5.05,1.53-.86,1.44-1.46.04-2.44-.52-.37-1.15-.62-1.58-1.06-.26-.27-.44-.9-.3-1.23.14-.34.76-.75,1.07-.69,1.58.35,3.09,1,4,2.4.31.48.28,1.43.02,1.98-.36.76-.97,1.52-1.66,1.99-2.23,1.53-4.55,2.95-6.85,4.39-.47.3-1.01.49-1.5.75-.67.35-1.07.74-.22,1.37,1.15.85.4,1.7-.11,2.49-.53.82-1.24.48-1.9.15-.36-.18-.75-.3-1.08-.53-1.53-1.09-2.88-.49-4.19.42-1,.69-.97,1.13.1,1.68,1.92.98,3.85,1.94,5.77,2.92.57.29,1.21.54,1.64.97.32.32.58.97.47,1.38-.19.7-.84.58-1.39.32-2.23-1.07-4.48-2.11-6.69-3.23-3.86-1.96-3.85-1.98-7.41.63-.26.19-.52.37-.76.58-1.41,1.24-1.42,2.06-.1,3.38,1.36,1.36,3.13,1.9,4.88,2.43,2.6.79,5.24,1.45,7.85,2.21.92.27,1.83.6,2.67,1.04.76.4,1.16,1.08.71,2.01-.4.82-.95,1.25-1.91.95-4.2-1.3-8.41-2.55-12.59-3.91-1.04-.34-2.03-.96-2.94-1.6-1.96-1.39-2.36-3.3-1.35-5.49.88-1.9,2.45-3.11,4.05-4.32,1.05-.79.98-.92-.09-1.7-2.7-1.98-5.48-3.88-8.01-6.05-1.7-1.46-3.4-2.33-5.14-1.92Zm40.9-19.18c.02-2.28-.55-2.9-2.28-2.46-1.76.45-3.52,1.05-5.13,1.89-4.65,2.43-7.78,6.5-10.93,10.52-.16.21-.12.57-.17.86.38,0,.8.1,1.13-.03,3.93-1.54,7.88-3.06,11.75-4.73,1.29-.56,2.47-1.46,3.58-2.36,1.27-1.04,2-2.46,2.05-3.69Zm-23.28,16.96c.09-1.28-.16-1.51-1.41-1.16-2.39.66-4.76,1.37-7.14,2.08-.3.09-.61.23-.86.42-.67.52-.89,1.2-.24,1.84,2.45,2.45,5.24,4.45,8.37,5.93.74.35,3.27-.88,3.48-1.62.07-.25-.02-.69-.21-.86-2.05-1.85-2.7-4.09-2-6.63Z"/>
    <path class="cls-1" d="m328.14,663.99c1.36,0,2.73-.13,4.07.03,1.86.22,3.45-.27,4.99-1.26,1.75-1.13,3.52-2.22,5.31-3.26,1.03-.6,2.12-1.14,3.22-1.59.36-.15.87.05,1.31.1-.05.38.01.85-.18,1.13-1.13,1.64-2.28,3.27-3.5,4.84-.69.89-1.16,1.67-1.18,2.95-.03,1.88-1.21,3.51-2.81,4.52-2.08,1.32-3.29,3.16-4.13,5.39-.36.96-1,1.81-1.53,2.7-.37.62-.82,1.19-1.15,1.82-.8,1.53-.68,1.72.98,1.91.71.08,1.43.15,2.12.33,3.1.81,3.92,2.96,2.05,5.59-.78,1.09-1.71,2.13-2.75,2.98-2.62,2.15-5.68,3.51-8.81,4.78-2.58,1.04-5.55-.58-6.75-2.33-2.37-3.47-5.72-4.09-9.44-3.84-1.4.1-2.9.46-4.14,1.11-2.81,1.49-5.65,3.02-8.18,4.93-3.23,2.44-3.71,4.86-2.28,8.71.73,1.94,1.62,3.83,2.39,5.75.79,1.97,1.04,3.99.59,6.11-.62,2.92-2.32,5.11-4.75,6.65-4.97,3.15-10.52,4.19-16.31,3.7-3.37-.28-4.33-2.38-2.78-5.42.36-.71.81-1.37,1.27-2.03.1-.14.41-.14.62-.21.06.21.19.43.18.64,0,.23-.15.45-.21.68-.55,1.91-.25,2.45,1.64,2.82.62.12,1.27.16,1.91.17,3.71.06,7.34-.48,10.86-1.63,1.2-.39,2.37-.99,3.45-1.65,2.26-1.38,2.8-2.66,2.15-5.25-.45-1.78-1.12-3.5-1.7-5.24-.43-1.29-.91-2.56-1.31-3.86-1.21-3.89-.18-7.38,2.47-10.22,3.36-3.6,7.39-6.34,12.16-7.85,2.94-.93,5.83-.8,8.66.43.51.22,1.07.35,1.55.62.84.48,1.52.37,2.11-.37,2.03-2.54,4.82-3.92,7.78-4.96,1.22-.43,2.04-1.15,2.65-2.25,1.2-2.17,2.46-4.3,3.65-6.47.16-.28.03-.72.04-1.09-.31,0-.62-.06-.91,0-2.03.4-4.04.97-6.09,1.19-2.68.29-5.12-.3-6.61-2.89-.45-.78-1.12-.74-1.87-.62-1.42.22-2.84.47-4.27.55-1.46.08-3.07-.02-3.68-1.61-.57-1.47.57-2.56,1.47-3.57,1.27-1.42,2.96-2.14,4.75-2.67,3.57-1.06,7.25-1.11,10.94-1.01Zm-.98,9.85c3.24-.39,6.24-1.18,9.01-2.63.77-.4,1.38-1.28,1.85-2.07.61-1.03.41-1.35-.73-1.69-2.3-.68-4.47-.54-6.69.57-2.27,1.14-4.72,1.9-7.07,2.89-1.08.45-1.16,1.17-.14,1.65,1.19.57,2.51.86,3.77,1.27Zm5.23,11.7c-.86.24-1.98.21-2.48.75-1.67,1.81-3.17,3.79-4.61,5.8-.26.37-.08,1.29.23,1.73.18.27,1.06.28,1.5.1,1.99-.81,3.98-1.66,5.9-2.64,1.06-.54,2.05-1.27,2.93-2.06,1.34-1.19,1.19-2.14-.46-2.89-.92-.42-1.98-.54-3.02-.8Zm-4.73-18.76c-4.07-.43-8.1-.44-11.95,1.11-.82.33-1.92.41-2.08,1.63.89.23,1.79.69,2.66.64,4.02-.23,7.73-1.63,11.37-3.38Zm-.65,20.55c-.25-.08-.48-.24-.65-.19-2.09.62-3.9,1.72-5.39,3.3-.19.2-.22.87-.05,1.01.38.32.9.53,1.4.62.23.04.62-.23.79-.47.96-1.42,1.93-2.82,3.55-3.6.16-.08.21-.39.35-.67Zm12.91-22.16c.27-.16.86-.37,1.27-.76.74-.7,1.4-1.5,2.05-2.29.18-.22.21-.56.31-.84-.29,0-.64-.11-.86.01-1.45.8-2.88,1.65-4.3,2.5-.18.11-.44.44-.39.52.14.24.38.46.63.58.28.13.61.14,1.29.28Z"/>
    <path class="cls-1" d="m99.89,742.19c.04-.8.09-1.6.13-2.39.13-2.51.08-2.55-2.27-2.05-.78.17-1.56.37-2.35.44-2.02.2-3.55.98-4.66,2.81-1.06,1.73-3.13,1.53-4.17-.22-.55-.92-.27-1.81.46-2.36.87-.66,1.88-1.28,2.92-1.55,1.71-.45,2.68-1.47,3.47-2.98,1.45-2.75,3.01-5.46,4.69-8.08.82-1.29.71-2.59.61-3.92-.07-.95-.96-1.03-1.67-.91-2.12.36-4.26.71-6.33,1.26-2.31.62-4.56,1.48-6.85,2.19-.76.24-1.55.42-2.34.5-1.12.12-1.54-.31-1.32-1.37.15-.69.47-1.35.75-2.01,2.09-5.02,5.37-9.22,9.11-13.1.78-.81,1.57-1.6,2.38-2.37,4.05-3.86,8.2-7.63,11.35-12.31.14-.21.51-.28.77-.42.03.29.2.67.07.86-1.06,1.59-2.02,3.29-3.29,4.7-2.78,3.08-5.7,6.04-8.62,9-3.31,3.36-6.69,6.66-8.92,10.9-.39.74-.56,1.6-.84,2.4.83-.05,1.71.04,2.5-.18,1.85-.51,3.63-1.27,5.48-1.76,2.31-.6,4.65-1.12,7.01-1.48,1.17-.18,2.15-.34,2.84-1.43.35-.55.96-1.1,1.16.18.13.78.75.83,1.28.65.98-.32,1.9-.8,2.87-1.17.58-.23,1.01-.03.81.64-.2.67-.49,1.36-.91,1.92-1.25,1.66-2.51,3.32-3.91,4.85-1.02,1.12-1.32,2.24-1,3.71.35,1.64.5,3.32.73,4.98.22,1.59.47,1.85,1.99,1.37,3.88-1.22,7.92-2.03,11.44-4.22.28-.17.71-.09,1.07-.13-.13.36-.15.86-.4,1.05-1.15.85-2.29,1.78-3.59,2.35-2.34,1.03-4.77,1.85-7.18,2.69-3.63,1.26-3.29.92-3.41,4.43-.07,1.99-.07,4,.05,5.99.16,2.75.75,5.38,2.8,7.46.29.29.41,1.09.22,1.43-.43.74-1.12.41-1.64-.02-1.77-1.46-2.58-3.46-2.86-5.64-.28-2.21-.38-4.45-.55-6.68.04,0,.08,0,.13-.01Zm-.01-9.09c-.23-1.42-.44-2.84-.71-4.25-.05-.27-.31-.65-.52-.68-.24-.03-.64.2-.78.43-1.22,2.06-2.41,4.14-3.57,6.24-.31.56-.02.98.63.88,1.18-.18,2.36-.42,3.53-.66,1.03-.22,1.45-.9,1.42-1.95Zm1.17-12.46c-.16.43-.29.74-.37,1.05-.01.05.3.25.32.23.25-.25.47-.53.7-.8-.16-.12-.32-.24-.65-.49Z"/>
    <path class="cls-1" d="m21.22,689.33c.18-3.58,1.74-6.6,3.8-9.42.33-.45.71-.87,1.05-1.31,1.09-1.39,1.12-1.42-.08-2.82-1.14-1.33-1.08-2.82-.57-4.3.66-1.92,1.86-3.53,3.34-4.91.2-.19.56-.22.85-.32.02.38.19.86.02,1.11-.53.79-1.2,1.49-1.8,2.23-.64.79-.97,1.65-.56,2.66.76,1.87,2.38,2.29,4.02,1.1,2.98-2.15,6-4.24,8.95-6.42.68-.5,1.24-1.22,1.71-1.94.92-1.4,1.72-2.88,2.62-4.3.11-.17.51-.16.77-.24,0,.22.08.48-.01.66-.46.93-1,1.83-1.44,2.76-.16.33-.15.75-.22,1.13.37.02.75.12,1.11.06,1.5-.24,2.98-.59,4.48-.77.86-.1,1.76-.04,2.62.11,2.69.46,3.87,2.16,3.2,4.83-.84,3.35-2.83,5.86-6.01,7.35-2.65,1.24-5.48,1.84-8.36,1.92-1.98.05-2.99.94-3.88,2.57-4.32,7.93-8.73,15.82-13.13,23.72-.38.69-.87,1.32-1.33,1.97-.06.08-.32.1-.43.04-.11-.06-.24-.29-.21-.37.27-.66.54-1.33.88-1.95,4.02-7.28,8.06-14.55,12.09-21.82.43-.77.89-1.52,1.24-2.33.17-.39.1-.88.14-1.32-.6-.04-1.26-.25-1.78-.06-.45.17-.73.8-1.09,1.22-2.99,3.54-5.96,7.09-8.99,10.6-.58.67-1.22,1.93-2.2,1.36-.58-.34-.56-1.68-.81-2.57-.02-.07,0-.16,0-.24Zm20.89-13.62c2.25-.53,4.52-.98,6.73-1.61.97-.28,1.88-.87,2.74-1.43,1.22-.81,1.95-1.95,1.51-3.47-.42-1.45-1.72-1.94-3-1.95-1.74,0-3.5.22-5.21.55-.58.11-1.19.76-1.52,1.31-.89,1.51-1.66,3.1-2.42,4.68-.77,1.58-.63,1.76,1.17,1.92Zm-19.05,11.45c.2.73.32,1.17.45,1.61.45-.25,1.01-.4,1.33-.76,2.17-2.43,4.31-4.88,6.4-7.38.46-.55.95-1.34.9-1.98-.05-.65-2.72-.96-3.48-.45-.39.26-.75.6-1.04.97-.99,1.24-2.11,2.42-2.88,3.78-.77,1.35-1.17,2.91-1.67,4.21Zm18.69-18.38c-.48.37-.95.58-1.2.94-1.04,1.48-2.05,3-3,4.54-.19.31-.07.81-.09,1.22.43-.1,1.1-.05,1.27-.32,1.16-1.88,2.22-3.82,3.29-5.75.05-.1-.13-.33-.26-.62Zm-3.9,2.79l-.46-.41c-1.27.91-2.56,1.8-3.81,2.73-.29.22-.47.59-.69.89.4.2.85.61,1.2.54.64-.12,1.39-.39,1.8-.85.76-.87,1.32-1.92,1.96-2.9Z"/>
    <path class="cls-1" d="m315.5,821.89c1.64-.54,3.67-1.21,5.71-1.88,1.81-.6,3.59-1.38,5.45-1.76,3.27-.67,5.58.52,6.64,3.63.79,2.32,1.07,4.81,1.56,7.23.05.22.05.53-.07.7-.33.5-.73.95-1.11,1.42-.31-.42-.75-.79-.91-1.26-.31-.9-.45-1.86-.7-2.78-.29-1.08-.53-2.18-.96-3.2-.89-2.11-2.24-3-4.51-2.77-1.49.15-2.97.59-4.41,1.04-1.75.55-3.43,1.31-5.18,1.88-1.94.64-3.93.74-5.91.2-1.61-.44-1.91-1.05-1.48-2.64.56-2.07,1.93-3.65,3.17-5.31.81-1.08,1.73-2.09,2.61-3.12.57-.66.75-1.2-.25-1.65-.75-.34-1.83-.53-1.39-1.8.46-1.3,1.49-.95,2.42-.75,2.04.42,3.59-.27,5.23-1.57,4.05-3.23,8.23-6.32,12.54-9.2,1.89-1.26,4.17-1.98,6.34-2.75,1.28-.46,2.88-.65,3.76.64.93,1.36-.07,2.63-1.03,3.58-1.41,1.39-2.87,2.76-4.49,3.9-1.29.91-2.79,1.55-4.27,2.16-4.65,1.92-9.33,3.76-14,5.63-.37.15-.82.23-1.07.5-2.36,2.49-4.75,4.94-6.97,7.55-.88,1.03-.5,1.65.88,2.01.61.16,1.26.21,2.38.38Zm10.63-15.95c.07.15.13.31.2.46,2.97-1.09,5.96-2.12,8.89-3.31,1.61-.65,3.14-1.54,4.66-2.4.61-.35,1.15-.87,1.62-1.39.52-.58.24-1.2-.44-1.18-1.09.03-2.25.15-3.25.57-4.28,1.8-8.09,4.37-11.7,7.25Z"/>
    <path class="cls-1" d="m124.4,650.67c2.32-.19,4.75.07,6.95-1.26.34-.21,1.22-.05,1.46.25.24.3.2,1.15-.06,1.48-.57.72-1.27,1.52-2.09,1.81-1.57.54-3.24.9-4.9,1.06-3.87.37-7.67-.15-11.37-1.32-4.05-1.28-5.71-4.35-4.53-8.4.42-1.45,1.04-2.85,1.71-4.21.81-1.65,1.75-3.24,2.65-4.84,1.02-1.82,1.08-2.12-.54-3.09-.07-.04-.13-.09-.19-.14-.55-.46-1.3-.92-.78-1.75.5-.79,1.27-.38,1.94-.15q2.01.68,3.08-1.2c1.31-2.29,2.57-4.61,3.9-6.89,2.08-3.53,3.67-7.24,4.8-11.2.79-2.74,2.09-5.34,3.22-7.98.24-.57.72-1.05,1.14-1.52.1-.11.42-.07.62-.02.06.01.13.3.09.42-.14.37-.29.75-.51,1.08-1.62,2.35-2.49,5.01-3.14,7.74-.84,3.53-2.21,6.83-4.02,9.97-1.77,3.04-3.49,6.11-5.22,9.18-1.01,1.81-.93,1.9.76,3.02,4.62,3.08,9.5,5.56,14.83,7.19,2.94.9,5.51,2.52,7.72,4.68.39.38.88.82.98,1.31.09.45-.16,1.1-.48,1.46-.16.18-.86.03-1.24-.14-.43-.19-.78-.55-1.15-.86-2.17-1.83-4.59-3.18-7.29-4.04-5.3-1.69-10.11-4.37-14.81-7.29-1.67-1.04-1.7-1.04-2.68.71-.86,1.54-1.7,3.08-2.45,4.67-.41.86-.73,1.78-.91,2.72-.48,2.41.37,4.2,2.49,5.47,3.08,1.85,6.5,2.07,10.02,2.11Z"/>
    <path class="cls-1" d="m115.31,606.52c-2.41-.57-4.77-.98-7.03-1.7-1.88-.6-3.23-.47-4.6,1.16-2.86,3.43-5.97,6.65-8.89,10.04-.98,1.14-1.78,2.46-2.5,3.78-2.15,3.93-1.26,6.85,2.66,8.98.61.33,1.45.42,1.3,1.43-.15.99-.89,1.49-1.89,1.28-3.49-.72-5.68-4.05-4.95-7.58.63-3.04,2.13-5.72,4.07-8.06,2.85-3.44,5.95-6.67,8.92-10.01.45-.5.75-1.14,1.12-1.71-.65-.23-1.29-.57-1.96-.68-2.84-.44-5.7-.75-8.54-1.22-1.33-.22-2.65-.62-3.91-1.09-.37-.14-.54-.8-.8-1.22.46-.2.96-.65,1.37-.58,2.59.44,5.16,1.06,7.75,1.51,2.36.41,4.75.66,7.11,1.03,1.04.16,1.79-.06,1.91-1.2.42-4.06,2.71-7.11,5.37-9.93,1.86-1.98,3.86-3.81,5.83-5.69.2-.19.56-.23.84-.34,0,.36.14.82-.03,1.05-.58.75-1.27,1.42-1.93,2.11-2.04,2.13-4.19,4.17-6.11,6.41-3.67,4.28-2.39,7.74,3.14,8.91,2.83.6,5.62.39,8.21-.83,2.3-1.09,4.47-2.46,6.62-3.83,2.22-1.42,4.33-3,6.52-4.47.73-.49,1.52-.89,2.34-1.19.36-.13.84.08,1.27.14-.1.37-.1.81-.31,1.09-.28.36-.71.62-1.1.89-2.85,1.92-5.66,3.88-8.56,5.72-2.42,1.54-4.85,3.11-7.44,4.31-1.77.82-3.82,1.01-5.79,1.49Z"/>
    <path class="cls-1" d="m239.82,734.2c-.28.74-.41,1.25-.65,1.71-3.45,6.74-7.9,12.74-13.48,17.89-.99.91-1.88,1.94-2.77,2.97-.16.19-.2.67-.07.87.12.19.56.28.83.23,2.84-.46,5.67-.99,8.51-1.42,1.73-.27,3.49-.59,5.23-.55,1.81.04,3.65.34,5.4.82,2,.54,2.94,2.12,2.98,4.16.02.95-.12,1.91-.24,2.86-.21,1.66-.52,3.31-.68,4.98-.3,3.04.85,5.47,3.33,7.24,1.3.92,2.65,1.77,3.96,2.68,1.07.74,1.19,1.24.68,2.18-.5.92-1.19.81-2.04.52-2.09-.7-3.93-1.8-5.49-3.32-1.67-1.62-2.72-3.61-2.58-5.98.13-2.31.38-4.62.76-6.89.52-3.15.17-5.68-4.8-5.9-3.32-.15-6.67.41-10,.79-2.3.26-4.56.82-6.86,1.11-1.64.21-2.22-.44-1.55-1.91.82-1.8,1.88-3.5,3.01-5.12.72-1.03,1.71-1.9,2.66-2.75,4.84-4.28,8.65-9.37,11.77-15,.43-.78.72-1.76,2.08-2.13Z"/>
    <path class="cls-1" d="m39.22,740.9c-1.12,0-2.24.04-3.35-.03-.32-.02-.9-.44-.87-.56.1-.41.33-.91.66-1.13.37-.24.91-.25,1.38-.28,3.93-.19,7.84,0,11.64,1.08,1.36.39,2.6.5,3.96-.01,1.3-.49,1.42-.4,1.72,1.09.17.85.76.96,1.36,1.1,1.4.33,2.83.54,4.21.92,2.2.6,2.63,1.46,1.48,3.48-.78,1.36-1.77,2.71-2.96,3.72-5.51,4.7-11.76,7.95-18.97,9.09-1.38.22-2.9.14-4.24-.22-2.08-.56-2.85-2.01-2.19-4.06.43-1.33,1.17-2.62,2.02-3.75,2.34-3.14,5.64-5.14,8.93-7.13.75-.45,1.53-.86,2.27-1.34.24-.15.38-.46.57-.7-.24-.18-.46-.49-.71-.52-2.29-.33-4.58-.61-6.87-.9l-.02.16Zm-.04,15.61c.21-.03.77-.08,1.32-.17,6.44-1.09,12.16-3.82,17.36-7.7.45-.33.88-.7,1.25-1.12,1.03-1.14.89-1.74-.6-2.2-2.29-.7-4.6-1.35-6.93-1.91-.56-.14-1.29.03-1.83.29-4.62,2.23-9.05,4.77-13,8.08-.91.77-2.01,1.64-1.56,2.99.46,1.39,1.86,1.6,3.16,1.74.16.02.32,0,.83,0Z"/>
    <path class="cls-1" d="m98.18,775.07c-2.9.53-5.85.86-8.68,1.65-6.31,1.76-12.54,3.79-18.83,5.63-1.35.4-2.8.66-4.21.64-1.28-.02-1.73-.74-1.3-1.94.48-1.34,1-2.78,1.91-3.81,2.01-2.26,4.25-4.32,6.44-6.4,1.16-1.1,2.42-2.08,3.66-3.09.16-.13.61-.18.64-.12.13.25.31.65.19.82-.48.72-.97,1.47-1.61,2.05-1.77,1.62-3.65,3.12-5.41,4.74-1.11,1.02-2.13,2.16-3.14,3.29-.23.26-.44.9-.31,1.03.28.3.8.57,1.19.52.94-.11,1.88-.36,2.79-.63,6.59-1.94,13.16-3.95,19.77-5.83,3.72-1.06,7.55-1.34,11.41-1,2.48.22,2.86.7,2.56,3.21-.11.94-.39,1.87-.63,2.8-.18.69-.43,1.37-.63,2.06-.78,2.6-.07,4.73,2.08,6.36.7.53,1.46.97,2.21,1.43.8.5,1.42,1.01.87,2.11-.5,1-1.16,1.09-2.15.8-4.38-1.29-6.28-4.7-4.97-9.09.39-1.3.92-2.56,1.24-3.88.51-2.09-.04-2.83-2.17-2.99-.95-.07-1.92-.01-2.88-.01-.02-.12-.04-.24-.06-.36Z"/>
    <path class="cls-1" d="m101.37,673.85c-.53-.36-1.13-.64-1.55-1.1-.26-.28-.46-1.04-.3-1.2.32-.32.9-.42,1.38-.51.19-.04.44.16.65.27,2.69,1.41,5.38,2.82,8.06,4.25.63.34,1.32.66.95,1.63-.35.92-.93,1.06-1.88.93-3.95-.54-7.91-1-11.87-1.45-2.41-.27-4.79-.15-7.09.7-1.61.59-1.88.98-1.55,2.69.44,2.27,1.05,4.52,1.43,6.8.53,3.15.14,6.18-1.39,9.06-1.86,3.5-4.84,5.45-8.57,6.35-2.84.69-4.77-.38-5.46-3.2-.5-2.08-.58-4.26-.83-6.4-.03-.23-.02-.52.1-.7.34-.5.76-.96,1.14-1.43.29.51.7.99.83,1.54.32,1.32.4,2.69.75,4,.72,2.61,2.19,3.52,4.86,2.92,1.23-.28,2.43-.81,3.54-1.4,2.24-1.19,3.44-3.09,3.24-5.68-.13-1.67-.38-3.32-.65-4.97-.25-1.49-.68-2.96-.9-4.46-.66-4.42,1.82-8.11,6.51-8.64,1.73-.19,3.5-.09,5.25-.02,1.1.05,2.18.29,3.27.44l.09-.42Z"/>
    <path class="cls-1" d="m233.17,770.34c-.63.97-1.27,2.3-2.23,3.31-1.08,1.15-2.45,2.04-3.72,3-1.61,1.23-1.99,2.02-.7,3.56,1.88,2.25,4.09,4.23,6.24,6.24.91.85,1.95.14,2.94-.16.54-.17,1.15-.11,1.73-.16-.31.6-.62,1.19-.93,1.78-.03.06-.13.09-.2.13-3.53,2.53-3.83,2.57-7.14-.19-1.46-1.22-2.85-2.59-4-4.09-.74-.97-1.08-2.28-1.44-3.49-.25-.84-.59-1.06-1.35-.68-.78.4-1.56.8-2.35,1.2-6.86,3.47-14.09,4.58-21.67,3.36-3.18-.52-6.23-1.48-8.97-3.21-.74-.47-1.98-.94-1.36-2.15.73-1.4,1.69-.28,2.39.14,5.75,3.43,12.03,3.55,18.38,2.93,5.33-.52,10.25-2.47,14.82-5.21.9-.54,1.61-1.51,2.22-2.41,1.47-2.19,3.36-3.84,5.8-4.84.61-.25,1.27-.41,1.54.92Z"/>
    <path class="cls-1" d="m67.52,654.29c-.94-.1-2.01-.07-2.99-.35-1.92-.55-2.48-1.72-1.97-3.68.67-2.58.67-2.55-2.03-2.81-1.03-.1-2.07-.25-3.05-.56-1.25-.39-1.47-1.05-.77-2.2.31-.51.83-1.03,1.37-1.25,5.38-2.2,10.87-3.18,16.61-1.47,2.16.64,3.86,1.91,5.04,3.82,1.31,2.14.97,3.76-1.17,5.06-1.15.7-2.44,1.17-3.68,1.73q-1.65.76-.87,2.46c.16.36.52.8.43,1.08-.25.71-.7,1.34-1.07,2.01-.49-.32-1.02-.6-1.47-.97-.23-.19-.41-.51-.49-.81-.54-2.01-1.81-2.7-3.88-2.07Zm-.63-2.22c2.85.02,3.08-.16,3.63-2.82.07-.31.17-.61.23-.92.19-.89-.12-1.43-1.09-1.34-1.27.12-2.53.26-3.78.5-1.12.21-2.14,1.74-2.02,2.88.1.98.8,1.49,2.28,1.66.32.04.63.04.75.04Zm5.25-2.82c-.03,1.46.48,1.94,1.84,1.55,1.13-.33,2.25-.77,3.32-1.27,1.25-.59,1.4-1.12.62-2.2-.45-.63-1.05-1.18-1.66-1.67-.26-.21-.74-.32-1.08-.25-1.54.33-3.01,2.24-3.04,3.84Zm-2.14-4.82v-.52c-2.71-.55-5.79-.22-7.69,1.05,2.83-.19,5.26-.36,7.69-.53Z"/>
    <path class="cls-1" d="m342.31,784.41c-1.32.04-1.77-.46-1.59-1.33.21-1.01.55-2,.88-2.98,1.42-4.31,4.23-7.85,6.52-11.68,2.79-4.66,5.55-9.33,8.29-14.02,1.09-1.86,2.09-3.77,3.18-5.64.16-.27.57-.4.86-.6-.04.37.02.79-.14,1.09-2.29,4.3-4.49,8.66-6.94,12.87-2.45,4.2-5.21,8.23-7.73,12.4-.98,1.63-1.74,3.41-2.49,5.17-.43,1.03.04,1.62,1.12,1.38,1.16-.25,2.35-.6,3.37-1.18,2.21-1.27,4.48-2.52,6.44-4.14,5.91-4.88,12.46-8.64,19.39-11.82,1.3-.6,2.63-1.1,3.53-2.37.65-.91,1.74-.67,2.67-.54.22.03.6.87.48,1.06-.5.77-1.04,1.65-1.8,2.09-2.06,1.22-4.2,2.31-6.37,3.32-6.91,3.22-13.48,6.95-19.36,11.87-2.27,1.9-4.82,3.43-7.67,4.37-.98.33-2,.52-2.64.68Z"/>
    <path class="cls-1" d="m139.83,787.06c-1.09-.53-2.46-1.12-3.75-1.86-.6-.35-1.17-.9-1.53-1.5-1.25-2.08-2.74-2.97-5.01-1.4-.25.17-1,.1-1.06-.04-.15-.38-.19-.93-.02-1.29.3-.64.68-1.34,1.22-1.73,1.19-.85,1.05-1.74.54-2.89-1.06-2.41-2.08-4.84-3-7.31-.47-1.26-.85-2.6-.98-3.93-.1-.99.22-2.03.44-3.03.05-.22.45-.39.73-.5.06-.02.29.31.4.51.07.13.06.31.1.47.95,4.65,2.97,8.92,4.79,13.26.79,1.89,1.11,1.99,2.81.88,7.06-4.59,14.87-7.73,22.3-11.6.48-.25,1.14-.15,1.71-.21-.28.53-.45,1.17-.86,1.55-.51.47-1.22.75-1.86,1.07-4.84,2.46-9.7,4.88-14.51,7.39-2.05,1.07-4.03,2.28-5.98,3.53-1.54.98-1.56,1.34-.43,2.85,1.55,2.07,3.47,3.51,6.21,3.51.52,0,1.31-.2,1.29.6-.01.39-.6.92-1.04,1.11-.64.28-1.38.32-2.49.54Z"/>
    <path class="cls-1" d="m192.82,805.44c-1.17,5.13-1.89,10.37-4.84,14.9-1.61,2.47-3.14,5-4.65,7.53-.52.88-1.02,1.83-1.27,2.82-.43,1.75.32,2.5,2.04,2.01,1.68-.48,3.35-1.09,4.91-1.87,2.21-1.1,4.3-2.44,6.46-3.64,2.23-1.24,4.46-2.47,6.72-3.66.55-.29,1.2-.45,1.82-.52.2-.02.68.63.63.72-.43.72-.82,1.64-1.49,2.01-4.96,2.73-9.95,5.43-15.01,7.97-1.83.92-3.86,1.51-5.85,2.06-1.38.38-2-.08-2.12-1.48-.09-1.09-.07-2.29.32-3.29.68-1.77,1.61-3.45,2.54-5.11,2.07-3.67,4.99-6.86,6.28-10.97.53-1.67.88-3.39,1.36-5.08.45-1.59.76-3.25,2.15-4.41Z"/>
    <path class="cls-1" d="m69.65,623.64c.15,2.07.36,4.14.45,6.22.08,1.96-.36,3.81-1.47,5.47-.77,1.16-1.88,1.72-3.22,1.82-2.07.15-3.31-1.31-2.46-3.2.67-1.49,1.59-3.14,2.87-4.02,2.19-1.5,2.29-3.32,2.04-5.58-.17-1.48-.1-3.03.17-4.5.32-1.74,1.57-2.72,3.36-2.92,4.24-.49,8.08.6,11.62,2.91.33.21.71.48.85.81.13.3.08.78-.08,1.08-.09.18-.59.33-.82.25-.6-.2-1.15-.55-1.73-.82-2.7-1.28-5.46-2.28-8.51-2.14-2.91.13-3.28.52-3.15,3.45.02.4.05.8.07,1.2Zm-1.55,5.92c-1.05,1.03-1.77,1.73-2.49,2.43-.52.5-1.28,1.13-.64,1.75.43.42,1.43.46,2.13.36.38-.05.89-.72.96-1.16.15-.97.04-1.97.04-3.38Z"/>
  </g>
</svg>